<?xml version="1.0" encoding="utf-8"?>
<!-- Generator: Adobe Illustrator 27.5.0, SVG Export Plug-In . SVG Version: 6.00 Build 0)  -->
<svg version="1.1" id="Layer_1" xmlns="http://www.w3.org/2000/svg" xmlns:xlink="http://www.w3.org/1999/xlink" x="0px" y="0px"
	 viewBox="0 0 800 800" style="enable-background:new 0 0 800 800;" xml:space="preserve">
<g>
	<g>
		<rect style="fill:#FFFFFF;" width="800" height="800"/>
		<g>
			<path d="M396.377,332.043c12.601,1.461,25.489,3.583,37.838,0.682c7.409-1.741,14.314-5.235,21.717-7.006
				c13.745-3.289,28.198-0.432,41.754,3.565c11.159,3.291,22.679,7.765,29.885,16.899c13.445,17.042,6.593,42.033,12.046,63.044
				c4.549,17.527,17.987,34.398,12.774,51.74c-3.021,10.05-11.739,17.231-20.431,23.111c-8.479,5.736-17.552,10.927-27.541,13.169
				c-35.69,8.009-71.695-22.992-107.313-14.672c-14.605,3.412-27.363,13.223-42.251,15.037
				c-14.723,1.794-29.099-4.483-42.604-10.614c-7.644-3.47-15.551-7.136-20.968-13.549c-4.753-5.627-7.137-12.878-8.625-20.091
				c-5.591-27.108,1.722-68.573,15.646-93.308C316.136,328.37,365.538,328.466,396.377,332.043z"/>
			
				<text transform="matrix(1 0 0 1 331.6325 448.2111)" style="fill:#FFFFFF; font-family:'TheAbsoluteRegular'; font-size:108.5268px;">DRINK</text>
			<g>
				<g>
					<path d="M325.744,593.778c-0.03,0-0.061-0.005-0.09-0.015c-0.184-0.062-4.613-1.62-14.174-9.776
						c-7.97-6.798-10.472-24.208-0.617-40.481c0.079-0.13,0.247-0.172,0.377-0.099c0.046,0.026,4.654,2.652,12.549,8.627
						c11.2,8.477,11.785,22.984,7.901,30.196c-1.433,2.66-2.573,4.491-3.489,5.962c-1.542,2.476-2.246,3.606-2.178,5.295
						c0.003,0.092-0.038,0.18-0.112,0.235C325.863,593.759,325.804,593.778,325.744,593.778z M311.2,544.031
						c-9.538,15.954-7.115,32.914,0.643,39.531c7.931,6.765,12.368,8.975,13.62,9.521c0.055-1.638,0.83-2.883,2.264-5.186
						c0.912-1.465,2.047-3.287,3.471-5.932c3.789-7.036,3.205-21.197-7.746-29.486C316.591,547.288,312.229,544.638,311.2,544.031z"
						/>
				</g>
				<g>
					<path d="M325.744,593.778c-0.086,0-0.171-0.04-0.226-0.115c-10.761-14.754-14.655-49.632-14.693-49.983
						c-0.017-0.153,0.094-0.291,0.248-0.308c0.143-0.017,0.291,0.093,0.308,0.248c0.038,0.349,3.916,35.079,14.59,49.713
						c0.091,0.125,0.063,0.3-0.061,0.391C325.86,593.761,325.802,593.778,325.744,593.778z"/>
				</g>
				<g>
					<path d="M322.522,588.423c-0.148,0-0.272-0.116-0.279-0.266c-0.003-0.063-0.251-6.42,4.28-12.686
						c0.09-0.125,0.265-0.152,0.39-0.063c0.125,0.091,0.153,0.265,0.063,0.39c-4.412,6.1-4.178,12.27-4.175,12.332
						c0.008,0.154-0.112,0.285-0.266,0.292C322.531,588.423,322.527,588.423,322.522,588.423z"/>
				</g>
				<g>
					<path d="M319.78,582.169c-0.102,0-0.2-0.056-0.249-0.152c-0.026-0.051-2.657-5.065-10.06-8.041
						c-0.143-0.057-0.213-0.22-0.155-0.363c0.057-0.143,0.22-0.212,0.363-0.155c7.61,3.059,10.241,8.093,10.349,8.306
						c0.07,0.138,0.015,0.305-0.122,0.375C319.866,582.159,319.823,582.169,319.78,582.169z"/>
				</g>
				<g>
					<path d="M316.556,572.234c-0.005,0-0.011,0-0.016,0c-0.154-0.009-0.272-0.141-0.262-0.295
						c0.022-0.379,0.594-9.337,4.341-13.534c0.103-0.115,0.279-0.125,0.395-0.022c0.115,0.103,0.125,0.279,0.022,0.395
						c-3.618,4.052-4.195,13.104-4.201,13.195C316.826,572.12,316.703,572.234,316.556,572.234z"/>
				</g>
				<g>
					<path d="M314.678,564.722c-0.101,0-0.199-0.055-0.248-0.152c-0.02-0.038-1.995-3.8-6.409-6.334
						c-0.134-0.077-0.18-0.248-0.103-0.381c0.077-0.134,0.247-0.18,0.381-0.103c4.564,2.619,6.546,6.403,6.627,6.563
						c0.071,0.137,0.017,0.306-0.121,0.376C314.765,564.712,314.721,564.722,314.678,564.722z"/>
				</g>
				<g>
					<path d="M312.875,555.771c-0.151,0-0.276-0.121-0.279-0.273c-0.004-0.169-0.079-4.182,1.861-6.691
						c0.095-0.123,0.271-0.144,0.392-0.05c0.122,0.094,0.145,0.27,0.05,0.392c-1.817,2.35-1.746,6.296-1.745,6.336
						c0.004,0.154-0.118,0.282-0.273,0.286C312.879,555.771,312.877,555.771,312.875,555.771z"/>
				</g>
			</g>
			<g>
				<g>
					<path d="M272.439,345.404c-0.024-0.019-0.045-0.041-0.061-0.067c-0.106-0.163-2.62-4.128-5.079-16.452
						c-2.051-10.273,6.763-25.494,24.578-32.172c0.142-0.053,0.301,0.018,0.357,0.156c0.02,0.049,2.013,4.964,4.514,14.544
						c3.548,13.591-4.974,25.345-12.49,28.605c-2.772,1.202-4.801,1.934-6.431,2.522c-2.744,0.99-3.996,1.442-4.988,2.81
						c-0.054,0.074-0.141,0.117-0.233,0.115C272.544,345.463,272.486,345.441,272.439,345.404z M291.816,297.333
						c-17.368,6.624-25.965,21.443-23.969,31.442c2.04,10.222,4.157,14.706,4.802,15.91c1.057-1.252,2.437-1.75,4.989-2.671
						c1.623-0.586,3.643-1.314,6.398-2.51c7.332-3.18,15.64-14.663,12.172-27.951C294.033,303.228,292.248,298.447,291.816,297.333z
						"/>
				</g>
				<g>
					<path d="M272.439,345.404c-0.068-0.053-0.109-0.137-0.106-0.23c0.684-18.249,19.218-48.049,19.405-48.349
						c0.082-0.131,0.254-0.17,0.385-0.088c0.123,0.075,0.171,0.254,0.088,0.385c-0.186,0.298-18.642,29.973-19.32,48.073
						c-0.006,0.154-0.136,0.274-0.29,0.269C272.54,345.462,272.484,345.44,272.439,345.404z"/>
				</g>
				<g>
					<path d="M273.224,339.204c-0.117-0.092-0.141-0.26-0.054-0.382c0.037-0.052,3.777-5.197,11.215-7.312
						c0.148-0.042,0.302,0.045,0.345,0.192c0.042,0.149-0.044,0.303-0.192,0.345c-7.241,2.059-10.878,7.049-10.914,7.099
						c-0.089,0.126-0.264,0.154-0.389,0.065C273.231,339.21,273.228,339.207,273.224,339.204z"/>
				</g>
				<g>
					<path d="M274.943,332.595c-0.08-0.063-0.122-0.167-0.101-0.274c0.011-0.056,1.049-5.623-2.922-12.543
						c-0.077-0.134-0.031-0.305,0.103-0.381c0.134-0.077,0.304-0.031,0.381,0.103c4.082,7.113,3.032,12.696,2.985,12.93
						c-0.03,0.151-0.177,0.249-0.328,0.22C275.016,332.641,274.976,332.622,274.943,332.595z"/>
				</g>
				<g>
					<path d="M278.561,322.797c-0.004-0.003-0.009-0.007-0.013-0.011c-0.116-0.103-0.126-0.279-0.023-0.394
						c0.252-0.284,6.247-6.965,11.788-7.941c0.152-0.027,0.296,0.075,0.324,0.227c0.027,0.152-0.075,0.297-0.227,0.324
						c-5.349,0.942-11.407,7.694-11.468,7.761C278.844,322.874,278.676,322.888,278.561,322.797z"/>
				</g>
				<g>
					<path d="M281.737,315.735c-0.079-0.063-0.122-0.166-0.101-0.273c0.008-0.042,0.786-4.219-1.112-8.942
						c-0.057-0.143,0.012-0.306,0.155-0.363c0.144-0.058,0.305,0.011,0.363,0.155c1.963,4.882,1.176,9.081,1.141,9.257
						c-0.029,0.151-0.176,0.25-0.327,0.221C281.811,315.781,281.771,315.762,281.737,315.735z"/>
				</g>
				<g>
					<path d="M285.863,307.59c-0.119-0.094-0.142-0.265-0.05-0.387c0.102-0.135,2.527-3.333,5.604-4.102
						c0.151-0.038,0.301,0.055,0.339,0.203c0.038,0.15-0.054,0.302-0.203,0.339c-2.882,0.72-5.269,3.864-5.293,3.896
						c-0.092,0.123-0.268,0.148-0.391,0.056C285.866,307.592,285.864,307.591,285.863,307.59z"/>
				</g>
			</g>
			<g>
				<g>
					<path d="M508.666,598.64c-0.03,0-0.061-0.005-0.09-0.015c-0.184-0.062-4.613-1.62-14.174-9.776
						c-7.97-6.798-10.472-24.208-0.617-40.481c0.079-0.13,0.247-0.172,0.377-0.099c0.046,0.026,4.654,2.652,12.549,8.627
						c11.2,8.477,11.785,22.984,7.901,30.196c-1.433,2.66-2.573,4.491-3.489,5.962c-1.542,2.476-2.246,3.606-2.178,5.295
						c0.003,0.092-0.038,0.18-0.112,0.235C508.784,598.621,508.725,598.64,508.666,598.64z M494.122,548.892
						c-9.538,15.954-7.115,32.914,0.643,39.531c7.931,6.765,12.368,8.975,13.62,9.521c0.055-1.638,0.83-2.883,2.264-5.186
						c0.912-1.465,2.047-3.288,3.471-5.932c3.789-7.036,3.205-21.197-7.746-29.486C499.513,552.149,495.151,549.5,494.122,548.892z"
						/>
				</g>
				<g>
					<path d="M508.666,598.64c-0.086,0-0.171-0.04-0.226-0.115c-10.761-14.754-14.655-49.632-14.693-49.983
						c-0.017-0.153,0.094-0.291,0.248-0.308c0.143-0.017,0.291,0.093,0.308,0.248c0.038,0.349,3.916,35.079,14.59,49.713
						c0.091,0.125,0.063,0.3-0.061,0.391C508.781,598.622,508.723,598.64,508.666,598.64z"/>
				</g>
				<g>
					<path d="M505.444,593.285c-0.148,0-0.272-0.116-0.279-0.266c-0.003-0.063-0.251-6.42,4.28-12.686
						c0.09-0.125,0.265-0.152,0.39-0.063c0.125,0.091,0.153,0.265,0.063,0.39c-4.412,6.1-4.178,12.27-4.175,12.332
						c0.008,0.154-0.112,0.285-0.266,0.292C505.453,593.285,505.448,593.285,505.444,593.285z"/>
				</g>
				<g>
					<path d="M502.702,587.03c-0.102,0-0.2-0.056-0.249-0.152c-0.026-0.051-2.657-5.065-10.06-8.041
						c-0.143-0.057-0.213-0.22-0.155-0.363c0.057-0.144,0.22-0.212,0.363-0.155c7.61,3.059,10.241,8.093,10.349,8.306
						c0.07,0.138,0.015,0.305-0.122,0.375C502.788,587.021,502.745,587.03,502.702,587.03z"/>
				</g>
				<g>
					<path d="M499.477,577.096c-0.005,0-0.011,0-0.016-0.001c-0.154-0.009-0.272-0.141-0.263-0.295
						c0.022-0.379,0.594-9.338,4.341-13.534c0.103-0.115,0.279-0.125,0.395-0.022c0.115,0.103,0.125,0.279,0.022,0.395
						c-3.618,4.052-4.195,13.104-4.201,13.195C499.748,576.981,499.624,577.096,499.477,577.096z"/>
				</g>
				<g>
					<path d="M497.6,569.584c-0.101,0-0.199-0.055-0.248-0.152c-0.02-0.038-1.995-3.8-6.409-6.334
						c-0.134-0.077-0.18-0.248-0.103-0.381c0.077-0.134,0.247-0.18,0.381-0.103c4.564,2.619,6.546,6.403,6.627,6.563
						c0.071,0.137,0.017,0.306-0.121,0.376C497.686,569.574,497.643,569.584,497.6,569.584z"/>
				</g>
				<g>
					<path d="M495.796,560.633c-0.151,0-0.276-0.121-0.279-0.273c-0.004-0.169-0.079-4.182,1.862-6.691
						c0.095-0.123,0.271-0.144,0.392-0.05c0.122,0.094,0.145,0.27,0.05,0.392c-1.817,2.35-1.746,6.296-1.745,6.336
						c0.004,0.154-0.118,0.282-0.273,0.286C495.801,560.633,495.799,560.633,495.796,560.633z"/>
				</g>
			</g>
			<g>
				<g>
					<path d="M567.374,354.469c-0.03,0-0.061-0.005-0.089-0.015c-0.184-0.062-4.613-1.62-14.174-9.776
						c-7.97-6.798-10.472-24.208-0.617-40.481c0.079-0.13,0.247-0.172,0.377-0.099c0.046,0.026,4.654,2.652,12.549,8.627
						c11.2,8.477,11.785,22.984,7.901,30.197c-1.433,2.66-2.573,4.491-3.489,5.962c-1.542,2.476-2.246,3.606-2.178,5.295
						c0.003,0.092-0.038,0.18-0.112,0.235C567.492,354.45,567.433,354.469,567.374,354.469z M552.829,304.722
						c-9.538,15.955-7.115,32.914,0.643,39.531c7.931,6.765,12.368,8.975,13.62,9.521c0.055-1.638,0.83-2.883,2.264-5.186
						c0.912-1.465,2.047-3.288,3.471-5.932c3.789-7.036,3.205-21.197-7.746-29.486C558.221,307.979,553.859,305.329,552.829,304.722
						z"/>
				</g>
				<g>
					<path d="M567.374,354.469c-0.086,0-0.171-0.04-0.226-0.115c-10.761-14.754-14.655-49.632-14.693-49.983
						c-0.017-0.153,0.094-0.291,0.248-0.308c0.143-0.017,0.291,0.093,0.308,0.248c0.038,0.349,3.916,35.079,14.59,49.713
						c0.091,0.125,0.063,0.3-0.061,0.391C567.489,354.452,567.431,354.469,567.374,354.469z"/>
				</g>
				<g>
					<path d="M564.152,349.114c-0.148,0-0.272-0.116-0.279-0.266c-0.003-0.063-0.251-6.42,4.28-12.686
						c0.09-0.125,0.265-0.152,0.39-0.063c0.125,0.091,0.153,0.265,0.063,0.39c-4.412,6.1-4.178,12.27-4.175,12.332
						c0.008,0.154-0.112,0.285-0.266,0.292C564.16,349.114,564.156,349.114,564.152,349.114z"/>
				</g>
				<g>
					<path d="M561.409,342.86c-0.102,0-0.2-0.056-0.249-0.152c-0.026-0.051-2.657-5.065-10.06-8.041
						c-0.143-0.057-0.213-0.22-0.155-0.363c0.057-0.144,0.22-0.212,0.363-0.155c7.61,3.059,10.241,8.093,10.349,8.306
						c0.07,0.138,0.015,0.305-0.122,0.375C561.496,342.85,561.453,342.86,561.409,342.86z"/>
				</g>
				<g>
					<path d="M558.185,332.925c-0.005,0-0.011,0-0.016-0.001c-0.154-0.009-0.272-0.141-0.263-0.295
						c0.022-0.379,0.594-9.337,4.341-13.534c0.103-0.115,0.279-0.125,0.395-0.022c0.115,0.103,0.125,0.279,0.022,0.395
						c-3.618,4.052-4.195,13.104-4.201,13.195C558.455,332.811,558.332,332.925,558.185,332.925z"/>
				</g>
				<g>
					<path d="M556.307,325.413c-0.101,0-0.199-0.055-0.248-0.152c-0.02-0.038-1.995-3.8-6.409-6.334
						c-0.134-0.077-0.18-0.248-0.103-0.381c0.077-0.134,0.247-0.18,0.381-0.103c4.564,2.619,6.546,6.403,6.627,6.563
						c0.071,0.137,0.017,0.306-0.121,0.376C556.394,325.403,556.35,325.413,556.307,325.413z"/>
				</g>
				<g>
					<path d="M554.504,316.462c-0.151,0-0.276-0.121-0.279-0.273c-0.004-0.169-0.079-4.182,1.862-6.691
						c0.095-0.123,0.271-0.144,0.392-0.05c0.122,0.094,0.145,0.27,0.05,0.392c-1.817,2.35-1.746,6.296-1.745,6.336
						c0.004,0.154-0.118,0.282-0.273,0.286C554.509,316.462,554.506,316.462,554.504,316.462z"/>
				</g>
			</g>
			<circle cx="280.772" cy="623.964" r="7.716"/>
			<circle cx="413.195" cy="533.36" r="7.716"/>
			<circle cx="248.372" cy="456.097" r="7.716"/>
			<circle cx="420.912" cy="306.137" r="7.716"/>
			<circle cx="528.582" cy="635.099" r="5.531"/>
			<circle cx="627.66" cy="620.11" r="5.531"/>
			<circle cx="670.842" cy="502.159" r="5.531"/>
			<circle cx="135.144" cy="503.694" r="5.531"/>
			<circle cx="153.38" cy="629.939" r="5.531"/>
			<circle cx="145.714" cy="279.425" r="5.531"/>
			<circle cx="288.76" cy="177.129" r="5.531"/>
			<circle cx="550.925" cy="184.723" r="5.531"/>
			<circle cx="679.096" cy="296.629" r="5.531"/>
			<circle cx="440.117" cy="126.401" r="5.531"/>
			<circle cx="546.066" cy="508.234" r="5.531"/>
			<circle cx="546.614" cy="258.196" r="5.531"/>
			<circle cx="564.872" cy="421.02" r="5.531"/>
			<g>
				<g>
					<g>
						<g>
							<path d="M341.803,163.68h-30.17c-0.359,0-0.65-0.291-0.65-0.65s0.291-0.65,0.65-0.65h30.17c0.359,0,0.65,0.291,0.65,0.65
								S342.163,163.68,341.803,163.68z"/>
						</g>
					</g>
					<g>
						<g>
							<path d="M391.349,163.81h-14.261c-0.359,0-0.65-0.291-0.65-0.65s0.291-0.65,0.65-0.65h14.261c0.359,0,0.65,0.291,0.65,0.65
								S391.708,163.81,391.349,163.81z"/>
						</g>
					</g>
					<g>
						<g>
							<path d="M401.795,144.174c-0.063,0-0.128-0.01-0.193-0.029c-0.343-0.107-0.535-0.471-0.428-0.814l5.115-16.472
								c0.105-0.343,0.462-0.537,0.814-0.428c0.343,0.107,0.535,0.471,0.428,0.814l-5.115,16.472
								C402.33,143.995,402.073,144.174,401.795,144.174z"/>
						</g>
					</g>
					<g>
						<g>
							<path d="M384.412,202.475c-0.083,0-0.168-0.015-0.249-0.05c-5.307-2.193-8.327-5.263-8.453-5.392
								c-0.25-0.258-0.244-0.669,0.013-0.919c0.255-0.25,0.668-0.245,0.919,0.013c0.029,0.029,2.973,3.012,8.018,5.097
								c0.331,0.137,0.489,0.517,0.352,0.85C384.91,202.324,384.668,202.475,384.412,202.475z"/>
						</g>
					</g>
					<g>
						<g>
							<path d="M321.364,199.81c-0.347,0-0.634-0.274-0.649-0.624c-0.015-0.358,0.264-0.662,0.623-0.677
								c0.041-0.001,4.169-0.183,6.719-1.21c0.333-0.133,0.712,0.027,0.846,0.361c0.134,0.333-0.027,0.711-0.36,0.846
								c-2.76,1.112-6.974,1.297-7.152,1.304C321.383,199.81,321.373,199.81,321.364,199.81z"/>
						</g>
					</g>
				</g>
				<g>
					<g>
						<g>
							<path d="M337.226,218.184c-9.961,0-18.076,8.115-18.076,18.076c0,9.974,8.115,18.076,18.076,18.076
								c9.974,0,18.076-8.102,18.076-18.076C355.301,226.298,347.2,218.184,337.226,218.184z M337.226,253.035
								c-9.246,0-16.775-7.529-16.775-16.775c0-9.246,7.529-16.775,16.775-16.775c9.259,0,16.775,7.529,16.775,16.775
								C354.001,245.505,346.485,253.035,337.226,253.035z"/>
						</g>
						<g>
							<g>
								<path d="M328.212,234.984c-0.567,0-1.137-0.184-1.615-0.564c-1.124-0.893-1.313-2.526-0.422-3.651
									c0.497-0.627,5.009-6.181,10.226-7.937c1.361-0.46,2.836,0.273,3.294,1.636c0.458,1.361-0.274,2.836-1.636,3.294
									c-3.185,1.072-6.717,4.868-7.81,6.24C329.736,234.648,328.978,234.984,328.212,234.984z"/>
							</g>
						</g>
					</g>
				</g>
				<g>
					<path d="M431.778,159.393l-17.282-41.054v-2.601c0-3.485-2.835-6.333-6.333-6.333h-30.143c0.026-1.482,0-2.731-0.026-3.745
						c-0.143-5.085-0.169-5.865,9.259-15.072l0.416-0.416c7.529-7.36,11.678-11.418,11.574-15.475
						c-0.052-2.224-1.404-4.382-4.382-6.996c-5.397-4.747-14.669,5.787-21.444,13.472c-1.04,1.183-2.016,2.289-2.874,3.212
						c-2.523,2.744-4.616,5.28-6.216,7.555c-2.003,2.822-3.056,6.177-3.056,9.688v7.776h-26.398c-3.498,0-6.333,2.848-6.333,6.333
						v2.588l-17.49,36.658c-0.039,0.091-0.065,0.195-0.065,0.286v123.318c0,0.351,0.273,0.637,0.624,0.65l90.69,3.121
						c0.052,0,0.117,0,0.169-0.013c0.052,0.013,0.104,0.013,0.156,0.013c0.052,0,0.104,0,0.169-0.013l28.557-7.672
						c0.286-0.078,0.481-0.338,0.481-0.637V159.653C431.83,159.562,431.817,159.471,431.778,159.393z M362.571,101.628
						c0-3.238,0.975-6.333,2.809-8.947c1.574-2.211,3.628-4.707,6.112-7.412c0.871-0.936,1.847-2.042,2.9-3.238
						c6.047-6.866,15.176-17.243,19.61-13.355c2.679,2.354,3.888,4.226,3.94,6.06c0.091,3.485-3.914,7.399-11.184,14.513
						l-0.416,0.403c-9.831,9.61-9.805,10.598-9.649,16.047c0.026,1.053,0.052,2.25,0.026,3.706h-14.148V101.628z M329.839,115.738
						c0-2.77,2.25-5.033,5.033-5.033h73.291c2.783,0,5.033,2.263,5.033,5.033v2.081h-83.356V115.738z M329.605,119.119h83.382
						l-9.48,33.472h-89.884L329.605,119.119z M401.661,281.046l-89.377-3.082v-75.32c2.016,1.951,6.554,5.319,13.29,4.161
						c3.68-0.637,7.126-2.874,10.754-5.254c5.28-3.433,11.262-7.36,19.376-7.139c7.698,0.182,13.654,4.148,19.402,7.985
						c4.356,2.9,8.479,5.644,12.9,6.268c0.767,0.104,1.508,0.156,2.211,0.156c5.943,0,9.675-3.55,11.444-5.8V281.046z
						 M401.687,159.041c-0.013,0.052-0.026,0.117-0.026,0.169v41.509c-0.572,1.014-4.799,7.88-13.472,6.658
						c-4.135-0.572-8.128-3.238-12.367-6.073c-5.631-3.745-12.003-7.998-20.091-8.193c-8.531-0.208-14.669,3.81-20.104,7.36
						c-3.524,2.289-6.853,4.46-10.273,5.046c-7.698,1.326-12.263-3.797-13.069-4.785v-45.319l0.728-1.522h90.131L401.687,159.041z
						 M430.53,273.542l-27.569,7.399V163.281l27.569-2.068V273.542z M430.53,159.913l-27.569,2.068v-2.679l11.001-38.869
						l16.567,39.35V159.913z"/>
				</g>
				<g>
					<g>
						<path d="M388.218,264.625c-3.149,0-5.712-2.563-5.712-5.712c0-3.151,2.563-5.713,5.712-5.713c3.151,0,5.713,2.563,5.713,5.713
							C393.932,262.063,391.369,264.625,388.218,264.625z M388.218,254.5c-2.433,0-4.412,1.98-4.412,4.413
							c0,2.433,1.979,4.412,4.412,4.412c2.433,0,4.413-1.979,4.413-4.412C392.631,256.48,390.652,254.5,388.218,254.5z"/>
					</g>
				</g>
			</g>
			<g>
				<g>
					<g>
						<path d="M195.155,467.735H136.4c-7.332,0-13.298-5.966-13.298-13.298v-98.042c0-0.296,0.239-0.535,0.535-0.535
							s0.535,0.239,0.535,0.535v98.042c0,6.743,5.486,12.229,12.228,12.229h58.754c6.743,0,12.228-5.486,12.228-12.229V350.895
							c0-0.296,0.239-0.535,0.535-0.535s0.535,0.239,0.535,0.535v103.541C208.452,461.769,202.487,467.735,195.155,467.735z"/>
					</g>
				</g>
				<g>
					<g>
						<path d="M167.401,451.584h-3.263c-25.778,0-35.459-4.97-39.041-9.138c-2.316-2.696-2.002-4.964-1.988-5.059
							c0.044-0.291,0.315-0.491,0.609-0.448c0.291,0.044,0.491,0.314,0.449,0.605c-0.01,0.079-0.236,1.942,1.794,4.267
							c3.468,3.971,12.906,8.705,38.177,8.705h3.263c25.271,0,34.709-4.734,38.177-8.705c2.03-2.325,1.804-4.188,1.794-4.267
							c-0.04-0.291,0.162-0.562,0.453-0.604c0.289-0.034,0.56,0.157,0.604,0.447c0.015,0.095,0.328,2.364-1.988,5.059
							C202.86,446.614,193.179,451.584,167.401,451.584z"/>
					</g>
				</g>
				<g>
					<g>
						<path d="M139.226,433.928c-3.578,0-6.488-2.911-6.488-6.488v-7.915c0-3.577,2.91-6.488,6.488-6.488s6.489,2.911,6.489,6.488
							v7.915C145.714,431.017,142.803,433.928,139.226,433.928z M139.226,414.106c-2.988,0-5.419,2.431-5.419,5.419v7.915
							c0,2.988,2.431,5.419,5.419,5.419c2.988,0,5.419-2.431,5.419-5.419v-7.915C144.645,416.536,142.214,414.106,139.226,414.106z"
							/>
					</g>
				</g>
				<g>
					<g>
						<path d="M176.09,441.7c-2.791,0-5.063-2.271-5.063-5.063v-3.352c0-2.791,2.271-5.062,5.063-5.062s5.063,2.271,5.063,5.062
							v3.352C181.152,439.429,178.881,441.7,176.09,441.7z M176.09,429.293c-2.202,0-3.993,1.791-3.993,3.992v3.352
							c0,2.202,1.791,3.993,3.993,3.993c2.202,0,3.993-1.791,3.993-3.993v-3.352C180.083,431.085,178.291,429.293,176.09,429.293z"
							/>
					</g>
				</g>
				<g>
					<g>
						<path d="M185.68,418.17c-2.791,0-5.063-2.271-5.063-5.063v-3.352c0-2.791,2.271-5.062,5.063-5.062s5.063,2.271,5.063,5.062
							v3.352C190.743,415.899,188.471,418.17,185.68,418.17z M185.68,405.763c-2.202,0-3.993,1.791-3.993,3.992v3.352
							c0,2.202,1.791,3.993,3.993,3.993s3.993-1.791,3.993-3.993v-3.352C189.673,407.555,187.882,405.763,185.68,405.763z"/>
					</g>
				</g>
				<g>
					<g>
						<path d="M147.069,394.408c-3.48,0-6.312-2.832-6.312-6.312v-4.275c0-3.48,2.832-6.312,6.312-6.312s6.311,2.832,6.311,6.312
							v4.275C153.38,391.576,150.549,394.408,147.069,394.408z M147.069,378.579c-2.891,0-5.242,2.352-5.242,5.242v4.275
							c0,2.89,2.352,5.242,5.242,5.242c2.89,0,5.242-2.352,5.242-5.242v-4.275C152.311,380.931,149.959,378.579,147.069,378.579z"/>
					</g>
				</g>
				<g>
					<g>
						<path d="M133.272,397.955c-0.296,0-0.535-0.239-0.535-0.535v-33.227c0-0.296,0.239-0.535,0.535-0.535s0.535,0.239,0.535,0.535
							v33.227C133.807,397.716,133.568,397.955,133.272,397.955z"/>
					</g>
				</g>
				<g>
					<g>
						<path d="M202.258,378.579c-0.296,0-0.535-0.239-0.535-0.535v-21.409c0-0.296,0.239-0.535,0.535-0.535s0.535,0.239,0.535,0.535
							v21.409C202.793,378.339,202.554,378.579,202.258,378.579z"/>
					</g>
				</g>
				<g>
					<g>
						<path d="M141.721,459.989c16.12-1.466,32.367-1.477,48.486,0C174.088,461.467,157.841,461.455,141.721,459.989
							L141.721,459.989z"/>
					</g>
				</g>
				<g>
					<g>
						<path d="M169.407,367.592c-7.781,0.001-9.76-9.022-10.738-13.481c-0.691-3.147-3.688-3.548-6.861-3.971
							c-2.217-0.297-4.312-0.576-5.551-1.86c-2.726-2.822-3.979-3.119-5.931-2.743c-0.508,0.098-0.826,0.766-1.346,1.937
							c-0.962,2.166-2.415,5.441-7.453,7.654c-4.233,1.858-8.808,2.026-12.552,0.454c-2.906-1.219-5.084-3.412-6.131-6.174
							c-2.191-5.775,2.003-9.248,3.056-10.007c0.43-4.506,2.086-7.716,4.923-9.54c3.943-2.534,9.035-1.688,11.369-1.093
							c-0.509-1.127-1.062-2.923-0.587-4.78c0.451-1.763,1.722-3.187,3.779-4.232c5.696-2.893,10.41-0.817,11.855-0.022
							c1.226-1.592,4.992-4.4,26.791-4.1c20.885,0.285,25.175,9.728,25.96,12.323c3.012-1.153,5.762-1.143,8.181,0.03
							c4.414,2.138,6.273,7.42,6.653,8.649c5.26,2.34,6.64,5.169,6.867,7.144c0.348,3.034-1.73,5.742-3.789,7.265
							c-1.974,1.461-4.109,2.027-5.445,1.445c-4.139-1.806-8.927-3.306-13.358,1.786c-2.166,2.49-5.015,3.713-8.032,3.442
							c-2.835-0.253-5.52-1.849-6.842-4.066c-0.511-0.858-1.314-1.85-2.215-1.704c-0.962,0.154-1.934,1.601-2.365,3.52
							c-0.118,0.527-0.209,1.139-0.309,1.8c-0.559,3.72-1.403,9.341-8.561,10.236C170.299,367.563,169.844,367.592,169.407,367.592z
							 M141.498,344.342c1.837,0,3.315,0.904,5.528,3.196c0.981,1.015,2.896,1.271,4.923,1.542c3.24,0.433,6.912,0.923,7.764,4.801
							c1.545,7.041,3.941,13.426,10.927,12.561c6.353-0.794,7.094-5.73,7.635-9.333c0.103-0.689,0.2-1.327,0.323-1.875
							c0.549-2.447,1.79-4.111,3.239-4.342c0.828-0.135,2.07,0.145,3.303,2.212c1.152,1.932,3.514,3.324,6.019,3.548
							c2.663,0.236,5.195-0.855,7.13-3.079c5.317-6.112,11.35-3.479,14.593-2.064c0.975,0.426,2.736-0.107,4.381-1.324
							c1.819-1.345,3.659-3.703,3.363-6.284c-0.283-2.471-2.517-4.679-6.46-6.385c-0.149-0.065-0.261-0.194-0.303-0.35
							c-0.017-0.06-1.7-6.06-6.165-8.219c-2.282-1.104-4.929-1.027-7.869,0.228c-0.151,0.064-0.323,0.054-0.465-0.022
							c-0.144-0.078-0.244-0.218-0.272-0.379c-0.021-0.118-2.335-11.76-25.079-12.07c-23.285-0.321-25.461,2.963-26.179,4.04
							c-0.079,0.118-0.202,0.2-0.341,0.228c-0.142,0.027-0.285-0.002-0.402-0.08c-0.205-0.136-5.076-3.306-11.225-0.181
							c-1.768,0.898-2.853,2.088-3.226,3.537c-0.649,2.525,1.055,5.071,1.073,5.097c0.13,0.191,0.122,0.445-0.019,0.628
							c-0.142,0.183-0.384,0.253-0.602,0.177c-0.069-0.025-6.968-2.429-11.697,0.615c-2.593,1.67-4.092,4.691-4.454,8.98
							c-0.014,0.169-0.109,0.322-0.253,0.41c-0.206,0.127-5.009,3.172-2.846,8.874c0.943,2.485,2.912,4.462,5.545,5.567
							c3.474,1.458,7.742,1.294,11.708-0.448c4.659-2.046,5.958-4.972,6.906-7.108c0.582-1.31,1.041-2.344,2.12-2.553
							C140.611,344.393,141.064,344.342,141.498,344.342z M116.409,339.7h0.01H116.409z"/>
					</g>
				</g>
				<g>
					<g>
						<path d="M114.875,360.557c-0.08,0-0.162-0.018-0.239-0.056c-5.098-2.549-8.117-5.919-8.974-10.018
							c-1.463-6.991,3.869-13.49,4.096-13.763c0.189-0.226,0.525-0.256,0.753-0.068c0.227,0.189,0.257,0.526,0.069,0.753
							c-0.052,0.063-5.23,6.384-3.87,12.865c0.789,3.76,3.616,6.88,8.404,9.274c0.264,0.132,0.371,0.453,0.239,0.718
							C115.26,360.448,115.071,360.557,114.875,360.557z"/>
					</g>
				</g>
				<g>
					<g>
						<path d="M126.712,321.625c-0.055,0-0.111-0.009-0.166-0.027c-0.281-0.091-0.435-0.393-0.343-0.674
							c0.04-0.123,4.14-12.252,16.715-10.059c0.291,0.051,0.486,0.328,0.435,0.619c-0.051,0.291-0.321,0.485-0.619,0.435
							c-11.647-2.036-15.362,8.871-15.514,9.337C127.147,321.481,126.937,321.625,126.712,321.625z"/>
					</g>
				</g>
				<g>
					<g>
						<path d="M218.407,331.322c-0.25,0-0.473-0.175-0.524-0.43c-0.786-3.931-6.296-5.855-6.351-5.874
							c-0.279-0.096-0.429-0.4-0.333-0.679c0.096-0.279,0.399-0.43,0.679-0.333c0.251,0.086,6.149,2.148,7.054,6.676
							c0.058,0.29-0.13,0.571-0.419,0.629C218.477,331.319,218.442,331.322,218.407,331.322z"/>
					</g>
				</g>
				<g>
					<g>
						<circle cx="133.86" cy="457.743" r="1.283"/>
					</g>
				</g>
				<g>
					<g>
						<circle cx="195.948" cy="457.743" r="1.283"/>
					</g>
				</g>
				<g>
					<g>
						<path d="M207.918,446.833c-0.296,0-0.535-0.239-0.535-0.535v-87.703c0-0.296,0.239-0.535,0.535-0.535h13.878
							c13.505,0,24.493,10.987,24.493,24.493v25.909C246.288,429.62,229.075,446.833,207.918,446.833z M208.452,359.13v86.629
							c20.323-0.286,36.766-16.907,36.766-37.296v-25.909c0-12.916-10.508-23.424-23.423-23.424H208.452z"/>
					</g>
				</g>
				<g>
					<g>
						<path d="M207.918,434.142c-0.296,0-0.535-0.239-0.535-0.535v-62.32c0-0.296,0.239-0.535,0.535-0.535h11.524
							c7.018,0,12.728,5.71,12.728,12.728v26.41C232.169,423.263,221.29,434.142,207.918,434.142z M208.452,371.822v61.244
							c12.537-0.285,22.648-10.572,22.648-23.176v-26.41c0-6.428-5.23-11.658-11.658-11.658H208.452z"/>
					</g>
				</g>
			</g>
			<g>
				<g>
					<path d="M408.81,624.9c-27.495,0-49.032-7.316-49.032-16.656c0-9.34,21.538-16.656,49.032-16.656
						c27.496,0,49.033,7.316,49.033,16.656C457.844,617.583,436.306,624.9,408.81,624.9z M408.81,592.523
						c-26.521,0-48.097,7.052-48.097,15.72c0,8.668,21.576,15.721,48.097,15.721s48.097-7.052,48.097-15.721
						C456.908,599.575,435.331,592.523,408.81,592.523z"/>
				</g>
				<g>
					<path d="M408.155,618.911c-23.664,0-42.202-4.891-42.202-11.135s18.538-11.135,42.202-11.135
						c23.665,0,42.202,4.891,42.202,11.135S431.82,618.911,408.155,618.911z M408.155,597.576c-24.684,0-41.266,5.274-41.266,10.199
						s16.582,10.199,41.266,10.199c24.685,0,41.267-5.274,41.267-10.199S432.84,597.576,408.155,597.576z"/>
				</g>
				<g>
					<path d="M371.974,610.895c8.59-8.291,25.323-8.626,36.666-8.484c10.335,0.363,20.955,0.947,30.77,4.512
						c2.179,0.924,4.6,1.906,5.925,3.972c-0.518-0.605-1.114-1.118-1.805-1.509c-1.331-0.787-2.883-1.35-4.35-1.795
						c-9.942-2.648-20.34-3.008-30.581-3.311C397.495,604.114,381.042,603.929,371.974,610.895L371.974,610.895z"/>
				</g>
				<g>
					<path d="M409.455,668.612c-5.526,0.001-11.267-1.103-17.123-3.318c-36.847-13.942-32.37-55.113-32.32-55.527
						c0.031-0.257,0.271-0.438,0.52-0.409c0.256,0.031,0.44,0.264,0.408,0.52c-0.048,0.407-4.431,40.861,31.722,54.541
						c13.672,5.174,26.707,4.164,37.699-2.916c14.56-9.379,24.483-28.783,25.895-50.638c0.017-0.258,0.242-0.445,0.497-0.437
						c0.258,0.017,0.453,0.239,0.437,0.497c-1.431,22.146-11.517,41.827-26.322,51.364
						C424.337,666.497,417.103,668.612,409.455,668.612z"/>
				</g>
				<g>
					<path d="M387.655,663.226c-0.088,0-0.175-0.024-0.254-0.075c-18.153-11.742-24.002-42.628-24.06-42.939
						c-0.047-0.254,0.122-0.498,0.376-0.545c0.25-0.051,0.497,0.121,0.545,0.376c0.056,0.307,5.835,30.801,23.647,42.322
						c0.217,0.141,0.279,0.43,0.139,0.647C387.958,663.151,387.807,663.226,387.655,663.226z"/>
				</g>
				<g>
					<path d="M410.628,671.054c-2.153,0.001-4.479-0.074-6.995-0.241c-9.83-0.655-13.586-3.064-15.006-4.969
						c-1.152-1.545-0.872-2.858-0.859-2.913c0.058-0.252,0.303-0.414,0.559-0.353c0.25,0.057,0.408,0.304,0.354,0.555
						c-0.009,0.048-0.185,1,0.728,2.195c1.321,1.73,4.872,3.924,14.286,4.552c18.094,1.209,26.342-2.45,28.44-3.599
						c3.908-2.142,16.055-12.62,20.614-27.427c0.884-2.871,1.578-5.296,2.136-7.244c2.582-9.019,2.914-10.178,9.291-11.932
						c4.401-1.211,6.896-0.012,8.212,1.206c2.046,1.893,2.749,5.135,1.978,9.128c-1.407,7.295-21.761,14.298-22.626,14.594
						c-0.06,0.019-0.125,0.028-0.179,0.024c-5.872,13.019-16.356,21.037-18.976,22.472
						C430.726,668.117,424.172,671.054,410.628,671.054z M467.581,620.11c-0.963,0-2.02,0.155-3.157,0.468
						c-5.87,1.614-6.08,2.345-8.64,11.287c-0.558,1.952-1.254,4.382-2.141,7.262c-0.465,1.511-1.001,2.97-1.591,4.373
						c3.443-1.238,20.219-7.568,21.395-13.668c0.707-3.663,0.105-6.598-1.694-8.263C470.705,620.6,469.29,620.11,467.581,620.11z"/>
				</g>
				<g>
					<path d="M440.584,660.259c-0.124,0-0.248-0.049-0.34-0.146c-0.177-0.188-0.169-0.484,0.018-0.662
						c8.156-7.704,17.378-11.469,24.788-14.494c4.433-1.81,8.262-3.373,10.467-5.298c5.82-5.08,5.257-17.154,1.113-24.814
						c-4.066-7.509-19.709-1.993-19.867-1.937c-0.241,0.086-0.511-0.039-0.599-0.282c-0.087-0.243,0.039-0.511,0.282-0.599
						c0.673-0.243,16.561-5.84,21.006,2.373c4.313,7.97,4.832,20.594-1.32,25.964c-2.323,2.028-6.218,3.618-10.729,5.459
						c-7.338,2.995-16.47,6.724-24.498,14.307C440.816,660.217,440.7,660.259,440.584,660.259z"/>
				</g>
				<g>
					<path d="M408.203,689.824c-38.956,0-70.648-11.753-70.648-26.201c0-8.508,10.578-16.237,29.023-21.204
						c0.247-0.068,0.506,0.08,0.573,0.33c0.068,0.249-0.08,0.506-0.33,0.573c-17.74,4.778-28.331,12.367-28.331,20.301
						c0,13.931,31.273,25.265,69.713,25.265s69.713-11.334,69.713-25.265c0-5.898-5.819-11.658-16.385-16.219
						c-0.238-0.102-0.346-0.377-0.244-0.615c0.101-0.237,0.378-0.349,0.615-0.244c10.93,4.718,16.949,10.784,16.949,17.078
						C478.851,678.071,447.158,689.824,408.203,689.824z"/>
				</g>
				<g>
					<path d="M406.373,680.654c-34.869,0-62.184-8.508-62.184-19.37c0-6.144,8.906-11.77,24.434-15.435
						c0.26-0.064,0.504,0.098,0.563,0.347c0.059,0.252-0.096,0.503-0.347,0.563c-14.849,3.505-23.714,8.935-23.714,14.525
						c0,10.164,27.475,18.434,61.248,18.434c20.168,0,39.068-3.029,50.558-8.102c0.234-0.106,0.513,0.003,0.617,0.238
						c0.105,0.237-0.003,0.513-0.239,0.617C445.706,677.596,426.664,680.654,406.373,680.654z"/>
				</g>
				<g>
					<path d="M406.88,685.036c-5.901,0-12.303-0.161-19.248-0.507c-0.259-0.013-0.457-0.232-0.444-0.49
						c0.012-0.258,0.228-0.48,0.49-0.444c58.307,2.901,77.955-7.164,84.167-16.121c4.444-6.408,1.951-12.371,1.925-12.431
						c-0.102-0.238,0.006-0.513,0.243-0.615c0.239-0.104,0.512,0.005,0.615,0.241c0.114,0.261,2.731,6.472-1.999,13.314
						C467.045,676.064,450.918,685.036,406.88,685.036z"/>
				</g>
			</g>
			<g>
				<g>
					<g>
						<path d="M632.353,475.459h56.621c4.579,0,8.304-3.725,8.304-8.304v-110.23c0-0.32-0.259-0.579-0.579-0.579
							c-0.32,0-0.579,0.259-0.579,0.579v110.23c0,3.94-3.205,7.145-7.145,7.145h-56.621c-3.94,0-7.145-3.205-7.145-7.145V361.84
							c0-0.32-0.259-0.579-0.579-0.579c-0.32,0-0.579,0.259-0.579,0.579v105.315C624.049,471.734,627.774,475.459,632.353,475.459z"
							/>
					</g>
					<g>
						<path d="M637.412,464.297h46.502c7.369,0,13.363-5.995,13.363-13.363v-94.008c0-0.32-0.259-0.579-0.579-0.579
							c-0.32,0-0.579,0.259-0.579,0.579v94.008c0,6.73-5.475,12.205-12.205,12.205h-46.502c-6.73,0-12.205-5.475-12.205-12.205
							V361.84c0-0.32-0.259-0.579-0.579-0.579c-0.32,0-0.579,0.259-0.579,0.579v89.093
							C624.049,458.302,630.044,464.297,637.412,464.297z"/>
					</g>
					<g>
						<path d="M633.715,472.562c0.274,0,0.518-0.196,0.569-0.475c0.058-0.315-0.151-0.617-0.466-0.674
							c-2.449-0.446-4.144-1.433-5.036-2.931c-1.301-2.184-0.474-4.789-0.465-4.815c0.099-0.304-0.066-0.631-0.369-0.731
							c-0.306-0.1-0.631,0.064-0.731,0.368c-0.042,0.126-1.005,3.116,0.563,5.761c1.07,1.805,3.032,2.978,5.83,3.488
							C633.646,472.559,633.681,472.562,633.715,472.562z"/>
					</g>
					<g>
						<path d="M670.673,471.708c6.342,0.001,12.208-0.008,15.535-0.034c3.557-0.027,6.008-0.97,7.287-2.802
							c1.694-2.428,0.638-5.453,0.592-5.581c-0.108-0.301-0.44-0.457-0.739-0.349c-0.301,0.107-0.458,0.438-0.352,0.739
							c0.01,0.025,0.898,2.603-0.456,4.535c-1.053,1.502-3.186,2.276-6.341,2.3c-9.922,0.076-42.461,0.001-42.788,0
							c0,0-0.001,0-0.001,0c-0.319,0-0.579,0.259-0.579,0.578c-0.001,0.32,0.258,0.58,0.578,0.58
							C643.626,471.674,658.087,471.708,670.673,471.708z"/>
					</g>
					<g>
						<path d="M639.485,359.781c-0.443-0.47-0.984-1.043-1.235-1.209c-0.231,0.149-0.674,0.732-1.006,1.168
							c-1.258,1.655-3.38,4.436-7.208,4.369c-4.218-0.063-5.752-2.02-6.267-3.045c-3.045,1.046-5.788,0.411-7.774-1.811
							c-2.457-2.749-3.14-7.416-1.523-10.406c0.669-1.237,0.547-2.656,0.406-4.3c-0.348-4.039-0.781-9.065,11.177-13.578
							c9.725-3.67,15.047-0.602,18.935,1.637c2.995,1.724,4.525,2.475,6.533,0.71c5.926-5.204,13.43-2.011,13.746-1.872
							c0.293,0.128,0.427,0.469,0.299,0.762c-0.128,0.294-0.47,0.425-0.762,0.3c-0.072-0.032-7.156-3.03-12.518,1.68
							c-2.724,2.392-5.112,1.016-7.877-0.576c-3.687-2.124-8.735-5.034-17.947-1.557c-11.138,4.202-10.764,8.555-10.433,12.394
							c0.151,1.753,0.294,3.409-0.54,4.951c-1.38,2.55-0.754,6.71,1.367,9.082c1.241,1.388,3.468,2.741,7.021,1.306
							c0.154-0.063,0.33-0.051,0.479,0.023c0.149,0.076,0.259,0.214,0.301,0.376c0.028,0.11,0.743,2.696,5.393,2.765
							c3.287,0.059,4.999-2.24,6.269-3.912c0.692-0.91,1.192-1.567,1.842-1.646c0.591-0.066,1.119,0.485,2.165,1.594
							c3.415,3.623,7.49,7.104,12.64,2.509c0.239-0.212,0.605-0.192,0.818,0.046c0.213,0.239,0.192,0.605-0.046,0.818
							c-2.023,1.805-3.933,2.484-5.68,2.484C644.259,364.843,641.227,361.629,639.485,359.781z M638.181,358.535"/>
					</g>
					<g>
						<path d="M661.026,372.801c0.866,0,1.633-0.264,2.295-0.791c3.267-2.603,2.666-11.111,2.385-13.797
							c1.147,0.32,3.394,1.288,4.904,4.131c1.12,2.113,3.833,3.174,6.601,2.579c1.252-0.269,4.905-1.477,6.36-6.501
							c0.798,2.427,2.506,4.839,5.757,4.973c3.827,0.17,5.303-2.212,6.718-4.505c0.799-1.294,1.625-2.632,2.894-3.469
							c3.694-2.436,4.897-7.882,2.792-12.32c0.732-0.78,2.034-2.962,0.453-7.772c-1.989-6.044-9.889-11.156-18.209-9.083
							c-0.696-1.369-3.387-4.818-12.912-5.142c-5.161-0.181-8.693,0.678-10.499,2.537c-0.582,0.6-0.87,1.201-1.011,1.67
							c-2.83-1.246-13.35-4.948-20.792,4.89c-0.193,0.255-0.143,0.619,0.113,0.812c0.256,0.191,0.619,0.142,0.812-0.113
							c8.016-10.599,19.547-4.494,20.035-4.229c0.184,0.1,0.41,0.094,0.588-0.02c0.178-0.113,0.281-0.315,0.267-0.525
							c-0.001-0.026-0.018-0.841,0.86-1.718c1.091-1.091,3.637-2.341,9.588-2.147c10.681,0.363,12.039,4.778,12.051,4.823
							c0.041,0.148,0.141,0.277,0.275,0.352c0.134,0.075,0.293,0.098,0.442,0.055c7.87-2.226,15.427,2.533,17.29,8.198
							c1.739,5.287-0.36,6.772-0.382,6.787c-0.246,0.165-0.337,0.495-0.198,0.757c2.074,3.926,1.066,9.064-2.201,11.219
							c-1.482,0.978-2.377,2.427-3.242,3.829c-1.353,2.192-2.534,4.085-5.685,3.956c-5.024-0.207-5.232-6.949-5.238-7.236
							c-0.007-0.31-0.257-0.56-0.567-0.566c-0.345,0.031-0.571,0.232-0.591,0.541c-0.312,4.778-2.56,8.073-6.012,8.814
							c-2.262,0.485-4.455-0.333-5.335-1.989c-2.359-4.444-6.37-4.875-6.54-4.891c-0.173-0.02-0.35,0.048-0.472,0.175
							c-0.123,0.127-0.18,0.304-0.157,0.479c0.411,3.026,0.877,11.357-1.865,13.54c-0.804,0.64-1.84,0.708-3.168,0.208
							c-7.646-2.885-4.916-19.125-4.887-19.288c0.055-0.315-0.156-0.616-0.471-0.67c-0.322-0.055-0.616,0.156-0.67,0.471
							c-0.123,0.707-2.919,17.349,5.619,20.571C659.737,372.666,660.406,372.801,661.026,372.801z"/>
					</g>
					<g>
						<path d="M624.628,436.006c0.246,0,0.475-0.158,0.553-0.405c0.096-0.305-0.074-0.63-0.378-0.727
							c-0.171-0.054-17.194-5.485-23.614-12.919c-6.237-7.222-3.809-36.537,0.084-44.676c3.571-7.468,23.005-2.18,23.201-2.125
							c0.315,0.081,0.628-0.096,0.713-0.403c0.085-0.308-0.095-0.628-0.403-0.713c-0.839-0.233-20.57-5.595-24.556,2.742
							c-3.632,7.594-6.892,37.856,0.084,45.933c6.636,7.683,23.431,13.043,24.143,13.267
							C624.513,435.997,624.571,436.006,624.628,436.006z"/>
					</g>
					<g>
						<path d="M624.628,449.504c0.234,0,0.455-0.143,0.542-0.375c0.113-0.299-0.038-0.634-0.338-0.746
							c-31.024-11.688-43.112-35.034-36.952-71.373c3.348-19.758,27.321-18.915,27.562-18.902c0.304,0.017,0.59-0.234,0.605-0.553
							c0.014-0.32-0.233-0.59-0.552-0.605c-0.253-0.013-25.236-0.908-28.758,19.866c-1.623,9.575-3.245,23.927,1.384,37.95
							c5.259,15.932,17.473,27.607,36.303,34.701C624.492,449.493,624.561,449.504,624.628,449.504z"/>
					</g>
					<g>
						<path d="M594.03,391.184c0.004,0,0.008,0,0.012,0c0.32-0.007,0.574-0.271,0.568-0.591
							c-0.236-11.645,2.624-16.877,5.065-19.216c2.505-2.4,4.99-2.279,5.092-2.267c0.334,0.014,0.594-0.222,0.616-0.539
							c0.021-0.319-0.217-0.594-0.535-0.617c-0.126-0.01-3.053-0.188-5.939,2.552c-3.818,3.626-5.655,10.393-5.458,20.111
							C593.457,390.933,593.715,391.184,594.03,391.184z"/>
					</g>
					<g>
						<path d="M621.027,370.405c0.32,0,0.579-0.259,0.579-0.579v-5.272c0-0.32-0.259-0.579-0.579-0.579
							c-0.32,0-0.579,0.259-0.579,0.579v5.272C620.447,370.146,620.707,370.405,621.027,370.405z"/>
					</g>
					<g>
						<path d="M655.598,455.165c0.223,0,0.448-0.001,0.677-0.003c0.32-0.002,0.577-0.264,0.575-0.584
							c-0.003-0.32-0.299-0.56-0.584-0.575c-11.834,0.094-15.488-2.287-16.61-3.715c-0.8-1.018-0.601-1.853-0.592-1.889
							c0.011-0.046,0.02-0.103,0.02-0.151v-83.696c0-0.32-0.259-0.579-0.579-0.579c-0.32,0-0.579,0.259-0.579,0.579v83.634
							c-0.066,0.337-0.192,1.487,0.773,2.757C640.171,452.882,644.305,455.165,655.598,455.165z"/>
					</g>
					<g>
						<path d="M633.715,448.211c0.32,0,0.579-0.259,0.579-0.579v-85.148c0-0.32-0.259-0.579-0.579-0.579
							c-0.32,0-0.579,0.259-0.579,0.579v85.148C633.135,447.951,633.394,448.211,633.715,448.211z"/>
					</g>
					<g>
						<path d="M632.343,456.689c0.2,0,0.394-0.103,0.501-0.288c0.161-0.277,0.067-0.631-0.209-0.792
							c-2.904-1.69-3.813-7.994-3.822-8.057l0.006-84.193c0-0.32-0.259-0.579-0.579-0.579c-0.32,0-0.579,0.259-0.579,0.579v84.273
							c0.045,0.362,1.001,7.005,4.392,8.979C632.144,456.663,632.244,456.689,632.343,456.689z"/>
					</g>
					<g>
						<path d="M644.664,459.392h34.181c0.32,0,0.579-0.259,0.579-0.579s-0.259-0.579-0.579-0.579h-34.181
							c-0.32,0-0.579,0.259-0.579,0.579S644.344,459.392,644.664,459.392z"/>
					</g>
					<g>
						<path d="M681.973,454.487c0.032,0,0.066-0.003,0.099-0.008c11.186-1.925,10.235-11.395,10.224-11.49l0.004-80.505
							c0-0.32-0.259-0.579-0.579-0.579c-0.32,0-0.579,0.259-0.579,0.579v80.571c0.042,0.41,0.821,8.546-9.266,10.282
							c-0.315,0.054-0.527,0.354-0.472,0.669C681.452,454.288,681.697,454.487,681.973,454.487z"/>
					</g>
					<g>
						<path d="M645.639,391.184c0.32,0,0.579-0.259,0.579-0.579v-26.811c0-0.32-0.259-0.579-0.579-0.579
							c-0.32,0-0.579,0.259-0.579,0.579v26.811C645.06,390.925,645.319,391.184,645.639,391.184z"/>
					</g>
				</g>
				<g>
					<circle cx="677.677" cy="444.86" r="1.419"/>
				</g>
				<g>
					<circle cx="656.743" cy="438.989" r="1.419"/>
				</g>
				<g>
					<circle cx="651.433" cy="433.351" r="1.419"/>
				</g>
				<g>
					<circle cx="669.996" cy="429.411" r="1.419"/>
				</g>
				<g>
					<circle cx="680.554" cy="419.601" r="1.419"/>
				</g>
				<g>
					<circle cx="658.529" cy="422.482" r="1.419"/>
				</g>
				<g>
					<circle cx="670.358" cy="407.651" r="1.419"/>
				</g>
				<g>
					<circle cx="656.27" cy="390.907" r="1.419"/>
				</g>
				<g>
					<circle cx="665.617" cy="378.162" r="1.419"/>
				</g>
				<g>
					<circle cx="671.758" cy="388.648" r="1.419"/>
				</g>
				<g>
					<circle cx="652.852" cy="446.439" r="1.781"/>
				</g>
				<g>
					<circle cx="671.777" cy="434.234" r="1.781"/>
				</g>
				<g>
					<circle cx="649.289" cy="418.785" r="1.781"/>
				</g>
				<g>
					<circle cx="657.622" cy="410.322" r="1.781"/>
				</g>
				<g>
					<circle cx="661.673" cy="403.382" r="1.781"/>
				</g>
				<g>
					<circle cx="645.639" cy="400.302" r="1.781"/>
				</g>
				<g>
					<circle cx="674.959" cy="396.739" r="1.781"/>
				</g>
				<g>
					<circle cx="681.974" cy="398.52" r="1.781"/>
				</g>
				<g>
					<circle cx="679.734" cy="387.706" r="1.781"/>
				</g>
			</g>
			<g>
				<g>
					<path d="M218.387,202.659c-19.91,0-49.53-1.713-49.53-6.433c0-0.762,0-3.083,16.264-4.878c0.316-0.032,0.61,0.196,0.645,0.517
						c0.035,0.321-0.196,0.61-0.517,0.645c-15.049,1.661-15.222,3.695-15.222,3.715c0,2.197,18.398,5.263,48.361,5.263
						s48.362-3.066,48.362-5.263c0-0.022-0.196-2.237-17.193-3.922c-0.321-0.032-0.555-0.318-0.524-0.64
						c0.033-0.321,0.312-0.548,0.641-0.524c18.246,1.809,18.246,4.275,18.246,5.085
						C267.919,200.945,238.297,202.659,218.387,202.659z"/>
				</g>
				<g>
					<path d="M226.131,191.036c-0.003,0-0.007,0-0.011,0c-2.517-0.047-5.101-0.073-7.732-0.073l-1.484,0.003
						c-0.001,0-0.001,0-0.002,0c-0.322,0-0.584-0.26-0.585-0.583c-0.001-0.323,0.259-0.586,0.582-0.587l1.488-0.003
						c2.638,0,5.229,0.025,7.755,0.073c0.322,0.006,0.579,0.273,0.573,0.596C226.71,190.781,226.449,191.036,226.131,191.036z"/>
				</g>
				<g>
					<path d="M212.269,211.831c-37.984,0-44.845-4.167-45.134-4.355c-0.15-0.097-0.246-0.256-0.264-0.432
						c-0.675-6.831,0.318-9.567,1.27-10.659c0.596-0.684,1.17-0.739,1.278-0.743c0.008-0.001,0.016-0.001,0.023-0.001
						c0.313,0,0.572,0.247,0.585,0.563c0.011,0.312-0.223,0.576-0.53,0.605c-0.094,0.026-2.329,0.806-1.492,9.804
						c1.57,0.722,11.788,4.523,51.66,3.999c27.623-0.36,43.469-1.695,47.099-3.968c0.115-0.073,0.214-0.132,0.308-0.18
						c0.718-0.491,1.552-6.347-0.262-9.975c-0.144-0.289-0.027-0.64,0.262-0.785c0.29-0.143,0.64-0.027,0.785,0.262
						c1.881,3.763,1.443,10.693-0.262,11.545c-0.065,0.033-0.131,0.075-0.211,0.125c-1.421,0.89-5.747,3.599-47.703,4.147
						C217.089,211.815,214.618,211.831,212.269,211.831z"/>
				</g>
				<g>
					<path d="M219.674,304.371c-0.002,0-0.005,0-0.007,0c-17.483-0.2-35.579-2.009-37.237-13.915
						c-1.695-12.174-12.416-81.6-12.525-82.301c-0.049-0.319,0.169-0.618,0.489-0.667c0.315-0.046,0.618,0.17,0.667,0.489
						c0.109,0.7,10.831,70.134,12.527,82.317c1.743,12.516,25.814,12.79,36.093,12.907c0.323,0.003,0.581,0.268,0.578,0.592
						C220.255,304.114,219.993,304.371,219.674,304.371z"/>
				</g>
				<g>
					<path d="M216.328,304.371c-0.32,0-0.581-0.257-0.585-0.578c-0.003-0.323,0.255-0.588,0.578-0.592
						c10.279-0.118,34.35-0.392,36.093-12.907c1.695-12.182,12.478-81.829,12.586-82.531c0.049-0.318,0.356-0.532,0.667-0.488
						c0.32,0.05,0.538,0.348,0.489,0.668c-0.108,0.701-10.89,70.34-12.584,82.514c-1.658,11.906-19.755,13.715-37.237,13.915
						C216.333,304.371,216.33,304.371,216.328,304.371z"/>
				</g>
				<g>
					<path d="M205.614,223.086c-16.045,0-26.562-1.823-26.718-1.85c-0.318-0.056-0.53-0.36-0.473-0.678
						c0.056-0.319,0.356-0.524,0.678-0.473c0.234,0.041,23.723,4.106,54.165-0.003c0.312-0.057,0.614,0.18,0.657,0.501
						c0.043,0.32-0.18,0.614-0.501,0.657C223.165,222.624,213.689,223.086,205.614,223.086z"/>
				</g>
				<g>
					<path d="M222.861,296.629c-2.518,0-5.143-0.148-7.826-0.487c-0.321-0.04-0.547-0.332-0.507-0.653
						c0.041-0.322,0.337-0.549,0.653-0.507c14.543,1.831,27.632-2.104,30.282-4.638c1.849-1.769,3.238-17.228,3.72-27.188
						c0.015-0.322,0.257-0.585,0.612-0.555c0.322,0.015,0.571,0.289,0.555,0.612c-0.124,2.584-1.301,25.319-4.079,27.976
						C243.915,293.444,234.531,296.629,222.861,296.629z"/>
				</g>
				<g>
					<path d="M224.021,290.729c-1.84,0-3.757-0.108-5.716-0.355c-0.321-0.04-0.547-0.332-0.507-0.653
						c0.041-0.321,0.335-0.554,0.653-0.507c10.569,1.331,20.061-1.51,21.978-3.343c1.308-1.251,2.329-12.771,2.667-19.741
						c0.016-0.322,0.268-0.6,0.612-0.555c0.322,0.015,0.571,0.289,0.555,0.612c-0.148,3.087-0.996,18.588-3.026,20.529
						C239.499,288.378,232.592,290.729,224.021,290.729z"/>
				</g>
				<g>
					<path d="M221.444,202.379c-0.302,0-0.559-0.233-0.581-0.54c-0.769-9.969-9.211-17.777-19.221-17.777
						c-9.41,0-17.399,6.719-18.996,15.977c-0.055,0.318-0.364,0.527-0.676,0.477c-0.319-0.055-0.532-0.357-0.477-0.676
						c1.694-9.821,10.168-16.948,20.15-16.948c10.617,0,19.572,8.283,20.386,18.856c0.025,0.322-0.216,0.604-0.538,0.628
						C221.475,202.378,221.46,202.379,221.444,202.379z"/>
				</g>
				<g>
					<path d="M218.032,202.379c-0.252,0-0.485-0.164-0.561-0.419c-2.329-7.873-8.831-13.162-16.178-13.162
						c-6.839,0-12.998,4.594-15.688,11.705c-0.115,0.301-0.456,0.453-0.754,0.34c-0.303-0.115-0.455-0.452-0.34-0.754
						c2.866-7.569,9.452-12.46,16.783-12.46c7.87,0,14.823,5.626,17.3,14c0.091,0.31-0.086,0.635-0.395,0.726
						C218.143,202.371,218.087,202.379,218.032,202.379z"/>
				</g>
				<g>
					<path d="M222.173,202.26c-0.089,0-0.179-0.02-0.264-0.063c-0.288-0.146-0.404-0.498-0.258-0.786
						c3.236-6.393,9.312-10.363,15.858-10.363c6.035,0,11.669,3.344,15.072,8.945c0.167,0.276,0.079,0.636-0.196,0.803
						c-0.275,0.166-0.635,0.08-0.804-0.196c-3.188-5.249-8.448-8.383-14.071-8.383c-6.102,0-11.779,3.725-14.814,9.721
						C222.592,202.143,222.386,202.26,222.173,202.26z"/>
				</g>
				<g>
					<path d="M254.894,200.436c-0.239,0-0.463-0.147-0.549-0.384c-2.708-7.417-9.629-12.4-17.221-12.4
						c-6.575,0-12.699,3.707-15.982,9.676c-0.156,0.284-0.514,0.385-0.795,0.23c-0.283-0.155-0.386-0.511-0.231-0.794
						c3.489-6.341,10.005-10.281,17.008-10.281c8.082,0,15.444,5.292,18.32,13.168c0.111,0.303-0.046,0.639-0.348,0.75
						C255.029,200.425,254.96,200.436,254.894,200.436z"/>
				</g>
				<g>
					<circle cx="200.82" cy="195.558" r="1.813"/>
				</g>
				<g>
					<circle cx="210.956" cy="196.611" r="1.813"/>
				</g>
				<g>
					<circle cx="238.792" cy="196.611" r="1.813"/>
				</g>
				<g>
					<path d="M245.758,189.816c-0.016,0-0.032-0.001-0.049-0.002c-0.321-0.026-0.561-0.309-0.535-0.63
						c0.056-0.686,1.413-16.857,5.143-22.303c3.779-5.519,11.958-7.215,17.787-3.801l3.382-5.246
						c-2.04-1.048-9.649-4.412-17.342-0.851c-8.494,3.928-12.953,13.141-14.457,29.872c-0.03,0.322-0.323,0.558-0.635,0.53
						c-0.321-0.029-0.559-0.313-0.53-0.635c1.546-17.196,6.212-26.703,15.131-30.828c9.529-4.409,18.587,0.969,18.97,1.2
						c0.135,0.082,0.231,0.215,0.266,0.369c0.035,0.154,0.007,0.316-0.079,0.448l-4.034,6.257c-0.085,0.131-0.217,0.223-0.369,0.255
						c-0.155,0.03-0.312,0.002-0.442-0.082c-5.247-3.425-13.2-1.913-16.683,3.173c-3.554,5.19-4.928,21.572-4.942,21.737
						C246.314,189.584,246.058,189.816,245.758,189.816z"/>
				</g>
				<g>
					<path d="M217.366,181.391c-0.878,0-1.791-0.128-2.702-0.447c-3.185-1.112-5.521-4.243-6.942-9.306
						c-0.042-0.15-0.023-0.311,0.055-0.447c0.077-0.136,0.204-0.235,0.355-0.276c0.122-0.034,12.337-3.216,16.22,7.539
						c0.088,0.246,0.003,0.52-0.208,0.673C223.986,179.241,220.958,181.391,217.366,181.391z M209.021,171.911
						c1.318,4.326,3.345,6.992,6.028,7.929c3.375,1.177,6.908-0.718,8.04-1.418C219.863,170.325,211.351,171.438,209.021,171.911z"
						/>
				</g>
				<g>
					<path d="M223.8,179.238c-0.304,0-0.56-0.235-0.581-0.544c-0.023-0.322,0.219-0.601,0.541-0.624
						c0.393-0.029,9.644-0.783,11.399-8.974c1.234-5.755-1.907-9.796-4.201-12.746c-0.801-1.03-1.481-1.905-1.874-2.709
						c-2.172,2.124-9.12,9.921-6.992,20.95c0.061,0.317-0.146,0.624-0.464,0.685c-0.311,0.062-0.624-0.145-0.685-0.463
						c-2.633-13.645,7.915-22.564,8.021-22.653c0.161-0.132,0.378-0.171,0.573-0.099c0.195,0.071,0.338,0.239,0.376,0.443
						c0.143,0.78,0.989,1.868,1.968,3.128c2.298,2.955,5.77,7.421,4.422,13.709c-1.941,9.058-12.356,9.888-12.461,9.896
						C223.829,179.238,223.814,179.238,223.8,179.238z"/>
				</g>
				<g>
					<path d="M222.834,177.129c-0.188,0-0.372-0.091-0.485-0.259c-0.179-0.267-0.109-0.63,0.158-0.811
						c0.039-0.026,3.87-2.699,4.534-9.934c0.03-0.322,0.321-0.561,0.636-0.529c0.321,0.03,0.559,0.315,0.529,0.636
						c-0.72,7.829-4.872,10.681-5.048,10.799C223.058,177.097,222.945,177.129,222.834,177.129z"/>
				</g>
			</g>
			<g>
				<g>
					<path d="M664.586,207.173h-81.727c-4.062,0-7.366-3.304-7.366-7.366c0-4.061,3.304-7.365,7.366-7.365h81.727
						c4.062,0,7.366,3.304,7.366,7.365C671.952,203.869,668.648,207.173,664.586,207.173z M582.859,193.552
						c-3.449,0-6.256,2.806-6.256,6.255c0,3.449,2.806,6.256,6.256,6.256h81.727c3.449,0,6.256-2.806,6.256-6.256
						c0-3.448-2.806-6.255-6.256-6.255H582.859z"/>
				</g>
				<g>
					<path d="M623.759,310.331c-0.001,0-0.002,0-0.003,0c-21.928-0.147-26.62-3.709-26.809-3.86
						c-0.112-0.089-0.184-0.218-0.204-0.36l-13.103-99.42c-0.04-0.304,0.175-0.583,0.478-0.624c0.296-0.043,0.583,0.172,0.624,0.478
						l13.069,99.168c1.003,0.588,6.773,3.379,25.951,3.508c0.307,0.002,0.554,0.253,0.552,0.558
						C624.312,310.085,624.064,310.331,623.759,310.331z"/>
				</g>
				<g>
					<path d="M623.759,310.331c-0.305,0-0.553-0.246-0.555-0.552c-0.002-0.306,0.245-0.556,0.552-0.558
						c19.158-0.128,24.936-2.914,25.952-3.509l13.069-99.167c0.04-0.306,0.321-0.521,0.624-0.478c0.304,0.04,0.518,0.32,0.478,0.624
						l-13.103,99.42c-0.019,0.142-0.092,0.271-0.204,0.36c-0.189,0.152-4.881,3.713-26.81,3.86
						C623.761,310.331,623.76,310.331,623.759,310.331z"/>
				</g>
				<g>
					<path d="M623.942,301.812c-16.366,0-27.782-3.744-27.953-3.802c-0.291-0.098-0.447-0.412-0.349-0.703
						c0.099-0.291,0.413-0.444,0.703-0.349c0.253,0.085,25.621,8.388,54.96-0.008c0.296-0.091,0.603,0.086,0.686,0.381
						c0.085,0.295-0.086,0.602-0.381,0.686C641.671,300.863,632.178,301.812,623.942,301.812z"/>
				</g>
				<g>
					<path d="M661.358,222.117h-75.197c-0.307,0-0.555-0.248-0.555-0.555s0.248-0.555,0.555-0.555h75.197
						c0.307,0,0.555,0.248,0.555,0.555S661.665,222.117,661.358,222.117z"/>
				</g>
				<g>
					<path d="M632.163,222.117c-0.039,0-0.078-0.004-0.117-0.012c-0.3-0.064-0.491-0.36-0.427-0.659
						c0.014-0.063,1.355-6.33,3.338-14.867c0.069-0.297,0.365-0.484,0.667-0.415c0.298,0.069,0.485,0.368,0.415,0.667
						c-1.98,8.528-3.32,14.786-3.333,14.848C632.649,221.939,632.419,222.117,632.163,222.117z"/>
				</g>
				<g>
					<path d="M648.554,193.3c-0.048,0-0.096-0.007-0.144-0.02c-0.296-0.079-0.472-0.384-0.391-0.68l8.334-30.915
						c0.019-0.097,0.132-0.422,0.607-0.71c1.649-1.005,6.051-0.587,12.746,1.209l1.61-6.154c-2.648-0.746-14.893-3.905-19.857,0.052
						c-1.364,1.088-4.746,7.315-12.074,36.796c-0.075,0.297-0.38,0.476-0.672,0.406c-0.298-0.074-0.479-0.375-0.406-0.672
						c5.649-22.727,9.84-35.308,12.46-37.397c6.008-4.793,20.761-0.29,21.387-0.097c0.283,0.088,0.448,0.384,0.372,0.671
						l-1.888,7.218c-0.037,0.143-0.13,0.266-0.259,0.339c-0.127,0.075-0.281,0.094-0.424,0.055
						c-11.276-3.091-12.545-1.386-12.554-1.369l-8.311,30.856C649.024,193.138,648.799,193.3,648.554,193.3z"/>
				</g>
				<g>
					<path d="M640.786,222.117c-0.048,0-0.096-0.007-0.144-0.02c-0.296-0.079-0.472-0.384-0.391-0.68l3.971-14.732
						c0.079-0.296,0.388-0.47,0.68-0.391c0.296,0.079,0.472,0.384,0.391,0.68l-3.971,14.732
						C641.256,221.955,641.032,222.117,640.786,222.117z"/>
				</g>
				<g>
					<path d="M592.63,193.552c-0.242,0-0.463-0.158-0.534-0.401c-2.691-9.349-9.935-34.023-11.115-35.912
						c-0.922-1.303-14.585-1.417-27.262-0.776c-0.276,0.046-0.54-0.194-0.578-0.481c-0.672-5.065-0.575-7.87,0.287-8.335
						c0.985-0.53,19.416-0.222,27.294-0.066c0.241-0.005,6.846-0.137,10.133,8.577c3.155,8.364,11.186,36.406,11.266,36.688
						c0.085,0.295-0.086,0.602-0.381,0.686c-0.299,0.089-0.603-0.087-0.686-0.381c-0.081-0.282-8.099-28.28-11.238-36.601
						c-2.996-7.944-8.834-7.853-9.087-7.859c-9.977-0.198-25.07-0.374-26.739-0.064c-0.313,0.651-0.164,3.831,0.187,6.702
						c6.778-0.331,26.251-1.069,27.746,1.323c1.504,2.406,10.844,34.814,11.241,36.192c0.085,0.295-0.086,0.603-0.38,0.688
						C592.732,193.545,592.681,193.552,592.63,193.552z"/>
				</g>
				<g>
					<polygon points="578.243,148.089 579.74,155.973 580.601,155.973 580.295,147.922 					"/>
				</g>
				<g>
					<polygon points="580.101,155.973 583.474,148.703 585.857,150.019 581.452,156.944 					"/>
				</g>
				<g>
					<polygon points="581.295,156.639 588.161,152.321 589.113,153.754 581.899,157.935 					"/>
				</g>
				<g>
					<polygon points="648.615,160.433 656.166,163.616 656.117,164.689 647.627,162.288 					"/>
				</g>
				<g>
					<polygon points="656.573,161.691 652.501,155.214 654.988,153.963 657.461,161.025 					"/>
				</g>
				<g>
					<polygon points="657.461,161.025 658.164,153.77 659.758,153.583 657.831,160.766 					"/>
				</g>
				<g>
					<path d="M585.857,202.629c25.543-1.519,51.169-1.532,76.712,0C637.027,204.161,611.4,204.149,585.857,202.629L585.857,202.629z
						"/>
				</g>
				<g>
					<path d="M647.802,293.61c-0.025,0-0.05-0.001-0.076-0.005c-0.304-0.041-0.516-0.32-0.475-0.625l7.551-55.818
						c0.04-0.304,0.313-0.526,0.625-0.475c0.304,0.041,0.516,0.32,0.475,0.625l-7.551,55.818
						C648.313,293.408,648.075,293.61,647.802,293.61z"/>
				</g>
				<g>
					<path d="M645.728,290.205c-0.023,0-0.044-0.001-0.067-0.004c-0.305-0.036-0.522-0.312-0.485-0.617l3.406-28.279
						c0.037-0.305,0.323-0.524,0.617-0.485c0.305,0.036,0.522,0.312,0.485,0.617l-3.406,28.279
						C646.244,289.998,646.005,290.205,645.728,290.205z"/>
				</g>
				<g>
					<path d="M642.773,285.171c-0.017,0-0.035-0.001-0.052-0.002c-0.305-0.028-0.53-0.298-0.502-0.604l1.986-21.764
						c0.028-0.305,0.306-0.522,0.604-0.502c0.305,0.028,0.53,0.298,0.502,0.604l-1.986,21.764
						C643.299,284.954,643.056,285.171,642.773,285.171z"/>
				</g>
			</g>
			<g>
				<g>
					<path d="M617.839,674.966h-32.807c-0.38,0-0.688-0.308-0.688-0.688s0.308-0.688,0.688-0.688h29.667l-24.656-11.342
						c-0.25-0.114-0.407-0.368-0.4-0.643l1.649-61.621c0.004-0.141,0.051-0.279,0.137-0.392l53.374-71.527h-59.77
						c-0.38,0-0.688-0.308-0.688-0.688s0.308-0.688,0.688-0.688h61.142c0.261,0,0.498,0.146,0.615,0.379
						c0.117,0.234,0.091,0.512-0.064,0.72l-54.064,72.452l-1.631,60.949l27.097,12.465c0.294,0.134,0.454,0.457,0.384,0.772
						C618.443,674.741,618.163,674.966,617.839,674.966z"/>
				</g>
				<g>
					<path d="M585.032,674.966h-32.806c-0.324,0-0.603-0.224-0.672-0.54c-0.07-0.316,0.09-0.638,0.384-0.772l27.097-12.465
						l-1.632-60.949l-54.064-72.452c-0.156-0.208-0.181-0.486-0.064-0.72c0.117-0.232,0.355-0.379,0.615-0.379h61.142
						c0.38,0,0.688,0.308,0.688,0.688s-0.308,0.688-0.688,0.688h-59.77l53.374,71.527c0.086,0.113,0.133,0.251,0.137,0.392
						l1.651,61.621c0.007,0.275-0.15,0.529-0.4,0.643l-24.656,11.342h29.665c0.38,0,0.688,0.308,0.688,0.688
						S585.412,674.966,585.032,674.966z"/>
				</g>
				<g>
					<path d="M596.151,670.999H573.41c-0.38,0-0.688-0.308-0.688-0.688c0-0.38,0.308-0.688,0.688-0.688h22.741
						c0.38,0,0.688,0.308,0.688,0.688C596.839,670.692,596.532,670.999,596.151,670.999z"/>
				</g>
				<g>
					<path d="M636.087,534.048H536.09c-0.38,0-0.688-0.308-0.688-0.688s0.308-0.688,0.688-0.688h99.997
						c0.38,0,0.688,0.308,0.688,0.688S636.467,534.048,636.087,534.048z"/>
				</g>
				<g>
					<path d="M630.447,539.55h-88.306c-0.38,0-0.688-0.308-0.688-0.688c0-0.38,0.308-0.688,0.688-0.688h88.306
						c0.38,0,0.688,0.308,0.688,0.688C631.135,539.242,630.827,539.55,630.447,539.55z"/>
				</g>
				<g>
					<path d="M646.035,527.932c-0.379,0-0.686-0.305-0.688-0.684c-0.068-13.076-10.765-23.714-23.841-23.714
						c-12.981,0-23.676,10.558-23.84,23.535c-0.005,0.377-0.312,0.68-0.688,0.68c-0.003,0-0.005,0-0.008,0
						c-0.38-0.005-0.685-0.317-0.68-0.696c0.173-13.727,11.485-24.894,25.215-24.894c13.831,0,25.144,11.251,25.217,25.081
						c0.001,0.38-0.305,0.69-0.684,0.692C646.038,527.932,646.037,527.932,646.035,527.932z"/>
				</g>
				<g>
					<path d="M601.131,527.767c-0.035,0-0.07-0.003-0.105-0.008c-0.376-0.056-0.634-0.407-0.576-0.783
						c1.834-12.06,10.848-20.812,21.435-20.812c4.993,0,9.87,2.007,13.733,5.651c0.277,0.261,0.289,0.696,0.028,0.971
						c-0.259,0.277-0.694,0.29-0.971,0.028c-3.607-3.401-8.149-5.275-12.79-5.275c-9.902,0-18.346,8.261-20.076,19.644
						C601.758,527.522,601.464,527.767,601.131,527.767z"/>
				</g>
				<g>
					<path d="M628.452,552.26c-0.318,0-0.603-0.22-0.673-0.543c-0.079-0.372,0.157-0.737,0.528-0.818
						c11.743-2.527,24.288-10.151,24.288-23.967c0-16.496-13.42-29.917-29.917-29.917c-0.801,0-1.601,0.031-2.388,0.093
						c-0.3,0.719-0.881,2.692,0.197,5.552c0.134,0.356-0.046,0.752-0.4,0.887c-0.359,0.13-0.752-0.044-0.887-0.4
						c-1.596-4.231-0.013-6.931,0.055-7.045c0.113-0.187,0.308-0.309,0.525-0.329c0.95-0.087,1.925-0.132,2.897-0.132
						c17.254,0,31.292,14.038,31.292,31.292c0,14.636-13.107,22.672-25.374,25.313C628.548,552.254,628.499,552.26,628.452,552.26z"
						/>
				</g>
				<g>
					<path d="M621.885,524.43c-0.38,0-0.688-0.308-0.688-0.688v-16.891c0-0.38,0.308-0.688,0.688-0.688s0.688,0.308,0.688,0.688
						v16.891C622.573,524.123,622.265,524.43,621.885,524.43z"/>
				</g>
				<g>
					<path d="M623.531,527.932c-0.176,0-0.352-0.067-0.486-0.201c-0.269-0.269-0.269-0.704,0-0.972l12.961-12.961
						c0.269-0.269,0.704-0.269,0.972,0c0.269,0.269,0.269,0.704,0,0.973l-12.961,12.961
						C623.883,527.865,623.707,527.932,623.531,527.932z"/>
				</g>
				<g>
					<path d="M619.725,528.064c-0.152,0-0.305-0.05-0.431-0.152l-14.206-11.454c-0.295-0.239-0.342-0.672-0.105-0.967
						c0.242-0.297,0.676-0.341,0.967-0.105l14.206,11.454c0.296,0.239,0.343,0.672,0.105,0.967
						C620.124,527.977,619.925,528.064,619.725,528.064z"/>
				</g>
			</g>
			<g>
				<g>
					<path d="M218.775,592.45c-21.334,0-38.691-17.357-38.691-38.691v-32.166c0-0.349,0.282-0.632,0.632-0.632h76.12
						c0.349,0,0.632,0.282,0.632,0.632v32.166C257.466,575.093,240.109,592.45,218.775,592.45z M181.346,522.225v31.534
						c0,20.638,16.79,37.428,37.428,37.428s37.428-16.79,37.428-37.428v-31.534H181.346z"/>
				</g>
				<g>
					<path d="M244.877,526.941h-58.269c-0.349,0-0.632-0.282-0.632-0.632s0.282-0.632,0.632-0.632h58.269
						c0.349,0,0.632,0.282,0.632,0.632S245.226,526.941,244.877,526.941z"/>
				</g>
				<g>
					<path d="M247.74,530.983h-53.385c-0.349,0-0.632-0.282-0.632-0.632s0.282-0.632,0.632-0.632h53.385
						c0.349,0,0.632,0.282,0.632,0.632S248.089,530.983,247.74,530.983z"/>
				</g>
				<g>
					<path d="M180.678,522.025c-0.251,0-0.489-0.15-0.587-0.398l-12.171-30.72c-0.555-1.402,0.134-2.995,1.536-3.55l4.546-1.801
						c1.402-0.558,2.992,0.133,3.549,1.534l13.396,33.814c0.128,0.324-0.03,0.692-0.355,0.82c-0.324,0.13-0.691-0.03-0.82-0.354
						l-13.396-33.814c-0.299-0.755-1.154-1.125-1.91-0.826l-4.546,1.801c-0.754,0.298-1.125,1.156-0.826,1.909l12.171,30.72
						c0.128,0.324-0.03,0.692-0.355,0.82C180.834,522.012,180.755,522.025,180.678,522.025z"/>
				</g>
				<g>
					<path d="M223.153,661.256h-9.606c-0.349,0-0.632-0.282-0.632-0.632v-68.957c0-0.349,0.282-0.632,0.632-0.632
						s0.632,0.282,0.632,0.632v68.326h8.343v-68.181c0-0.349,0.282-0.632,0.632-0.632c0.349,0,0.632,0.282,0.632,0.632v68.813
						C223.784,660.973,223.502,661.256,223.153,661.256z"/>
				</g>
				<g>
					<path d="M251.901,669.104h-67.763c-0.317,0-0.585-0.236-0.626-0.549c-0.041-0.315,0.157-0.611,0.463-0.693l29.408-7.848
						c0.335-0.081,0.683,0.111,0.773,0.448s-0.11,0.683-0.447,0.773l-24.756,6.606h58.236l-24.203-6.608
						c-0.336-0.092-0.535-0.439-0.443-0.776c0.092-0.336,0.44-0.53,0.776-0.443l28.748,7.848c0.305,0.084,0.501,0.38,0.459,0.693
						C252.485,668.87,252.217,669.104,251.901,669.104z"/>
				</g>
				<g>
					<path d="M217.803,588.269c-0.066,0-0.131,0-0.197,0c-0.348-0.001-0.63-0.286-0.628-0.634c0.002-0.348,0.284-0.629,0.632-0.629
						c0.043-0.007,0.13,0,0.192,0c26.049,0,32.602-25.034,32.665-25.288c0.084-0.339,0.427-0.541,0.766-0.46
						c0.338,0.085,0.544,0.427,0.46,0.766C251.627,562.286,244.848,588.269,217.803,588.269z"/>
				</g>
				<g>
					<path d="M218.932,584.654c-0.054,0-0.107,0-0.161,0c-0.348-0.001-0.63-0.286-0.628-0.634c0.002-0.348,0.284-0.629,0.632-0.629
						c0.043-0.007,0.105,0,0.157,0c21.018,0,26.31-20.203,26.361-20.407c0.085-0.339,0.426-0.541,0.766-0.46
						c0.338,0.085,0.544,0.427,0.46,0.766C246.465,563.502,240.948,584.654,218.932,584.654z"/>
				</g>
				<g>
					<path d="M254.857,522.012c-0.053,0-0.107-0.006-0.16-0.021c-0.337-0.088-0.54-0.432-0.452-0.77
						c0.191-0.73,0.287-1.488,0.287-2.251c0-5.224-4.533-9.473-10.104-9.473s-10.104,4.249-10.104,9.473
						c0,0.74,0.091,1.476,0.271,2.187c0.085,0.339-0.12,0.682-0.458,0.767c-0.335,0.088-0.681-0.117-0.767-0.456
						c-0.205-0.813-0.31-1.654-0.31-2.498c0-5.919,5.1-10.736,11.367-10.736s11.367,4.817,11.367,10.736
						c0,0.871-0.11,1.734-0.327,2.569C255.393,521.823,255.137,522.012,254.857,522.012z"/>
				</g>
				<g>
					<path d="M230.169,522.012c-0.258,0-0.5-0.159-0.593-0.416c-0.406-1.117-0.612-2.289-0.612-3.482
						c0-5.919,5.1-10.736,11.367-10.736c1.447,0,2.858,0.253,4.191,0.754c0.327,0.122,0.492,0.486,0.37,0.813
						c-0.122,0.326-0.488,0.495-0.813,0.369c-1.192-0.445-2.453-0.672-3.748-0.672c-5.571,0-10.104,4.249-10.104,9.473
						c0,1.046,0.18,2.072,0.535,3.05c0.12,0.328-0.05,0.691-0.377,0.809C230.313,521.999,230.241,522.012,230.169,522.012z"/>
				</g>
				<g>
					<path d="M237.926,519.133c-3.328-4.479,3.527-10.397,6.98-5.641c0.079,0.086,0.104,0.248-0.055,0.247
						c-3.668-0.801-6.087,2.069-6.673,5.423C238.132,519.309,237.978,519.245,237.926,519.133L237.926,519.133z"/>
				</g>
				<g>
					<path d="M229.596,518.759h-40.428c-0.349,0-0.632-0.282-0.632-0.632s0.282-0.632,0.632-0.632h40.428
						c0.349,0,0.632,0.282,0.632,0.632S229.945,518.759,229.596,518.759z"/>
				</g>
				<g>
					<path d="M230.358,515.002c-0.25,0-0.487-0.15-0.587-0.397c-0.664-1.658-4.712-4.693-6.215-5.724
						c-0.202-0.138-0.306-0.382-0.266-0.624s0.217-0.439,0.453-0.504c8.635-2.405,12.973,0.253,13.153,0.369
						c0.295,0.186,0.382,0.576,0.195,0.871c-0.186,0.295-0.576,0.384-0.87,0.196c-0.068-0.041-3.69-2.187-10.834-0.551
						c1.735,1.278,4.856,3.752,5.556,5.5c0.13,0.323-0.028,0.691-0.352,0.82C230.516,514.987,230.436,515.002,230.358,515.002z"/>
				</g>
				<g>
					<path d="M254.357,515.754c-0.296,0-0.56-0.208-0.619-0.509c-0.067-0.343,0.156-0.675,0.498-0.741
						c8.159-1.604,13.31-13.129,14.685-16.59c-16.788,2.545-20.007,11.726-20.039,11.821c-0.109,0.331-0.466,0.509-0.796,0.403
						c-0.331-0.109-0.512-0.463-0.405-0.793c0.136-0.424,3.565-10.408,22.125-12.833c0.218-0.028,0.433,0.058,0.571,0.227
						s0.179,0.397,0.109,0.604c-0.229,0.667-5.721,16.378-16.007,18.398C254.438,515.751,254.397,515.754,254.357,515.754z"/>
				</g>
				<g>
					<path d="M252.224,512.657c-0.234,0-0.459-0.131-0.568-0.355c-0.153-0.313-0.023-0.691,0.29-0.844
						c0.078-0.038,7.859-3.882,10.881-9.501c0.165-0.308,0.549-0.421,0.855-0.258c0.307,0.165,0.422,0.548,0.257,0.855
						c-3.217,5.983-11.106,9.876-11.44,10.039C252.411,512.636,252.316,512.657,252.224,512.657z"/>
				</g>
				<g>
					<path d="M242.221,508.799c-0.266,0-0.514-0.17-0.601-0.437c-4.914-15.199,6.258-21.198,6.371-21.257
						c0.213-0.11,0.472-0.09,0.666,0.054c0.194,0.143,0.289,0.385,0.245,0.622c-0.009,0.046-0.819,4.608,0.791,8.485
						c1.727,4.159,1.963,8.883,1.972,9.082c0.016,0.349-0.253,0.644-0.602,0.66c-0.338,0.054-0.643-0.253-0.66-0.601
						c-0.002-0.047-0.236-4.707-1.877-8.658c-1.208-2.908-1.182-6.073-1.035-7.83c-2.549,1.853-8.388,7.555-4.67,19.053
						c0.107,0.333-0.075,0.688-0.406,0.796C242.351,508.789,242.285,508.799,242.221,508.799z"/>
				</g>
				<g>
					<path d="M246.525,509.692c-0.254,0-0.494-0.154-0.59-0.406c-2.628-6.88-1.161-12.812-1.098-13.061
						c0.086-0.338,0.43-0.546,0.768-0.455c0.337,0.086,0.541,0.429,0.456,0.767c-0.014,0.058-1.425,5.808,1.055,12.297
						c0.124,0.326-0.039,0.691-0.365,0.815C246.676,509.678,246.6,509.692,246.525,509.692z"/>
				</g>
				<g>
					<path d="M260.007,518.72c-1.565,0-3.253-0.15-5.065-0.5c-0.342-0.067-0.567-0.397-0.501-0.74
						c0.067-0.342,0.397-0.564,0.74-0.501c10.12,1.95,16.261-2.764,18.112-4.489c-4.26-1.851-10.241-2.516-10.304-2.524
						c-0.347-0.037-0.598-0.349-0.56-0.696c0.038-0.348,0.347-0.603,0.696-0.56c0.286,0.031,7.059,0.784,11.53,3.02
						c0.173,0.086,0.297,0.248,0.336,0.437c0.039,0.19-0.011,0.387-0.136,0.535C274.617,512.985,269.659,518.72,260.007,518.72z"/>
				</g>
				<g>
					<path d="M257.97,514.38c-0.348,0-0.63-0.281-0.632-0.629c-0.001-0.349,0.28-0.633,0.629-0.634l9.708-0.038
						c0.001,0,0.002,0,0.002,0c0.348,0,0.63,0.281,0.632,0.629c0.001,0.349-0.28,0.633-0.629,0.634l-9.708,0.038
						C257.972,514.38,257.971,514.38,257.97,514.38z"/>
				</g>
				<g>
					<path d="M269.726,536.738c-1.296,0-9.132-0.139-13.283-3.422c-0.274-0.217-0.32-0.614-0.104-0.888
						c0.216-0.271,0.614-0.318,0.887-0.104c3.343,2.645,9.635,3.07,11.855,3.137c-3.419-13.158-13.61-15.259-14.051-15.343
						c-0.342-0.065-0.567-0.396-0.502-0.738c0.064-0.343,0.392-0.567,0.736-0.503c0.118,0.022,11.839,2.392,15.24,17.086
						c0.043,0.185-0.001,0.381-0.118,0.532c-0.118,0.151-0.297,0.239-0.488,0.242C269.874,536.737,269.815,536.738,269.726,536.738z
						"/>
				</g>
				<g>
					<path d="M265.152,532.505c-0.086,0-0.173-0.017-0.257-0.054c-0.233-0.105-5.738-2.6-8.605-7.455
						c-0.177-0.3-0.078-0.687,0.223-0.865c0.303-0.175,0.689-0.076,0.865,0.223c2.657,4.5,7.978,6.918,8.032,6.943
						c0.318,0.142,0.461,0.516,0.319,0.834C265.624,532.365,265.393,532.505,265.152,532.505z"/>
				</g>
			</g>
			<g>
				<g>
					<path d="M494.557,141.109c-1.076,0-26.35-0.031-26.35-2.778c0-2.747,25.275-2.778,26.35-2.778s26.35,0.031,26.35,2.778
						C520.907,141.078,495.632,141.109,494.557,141.109z M469.122,138.331c1.191,0.84,10.315,1.936,25.434,1.936
						c15.119,0,24.243-1.096,25.434-1.936c-1.192-0.84-10.316-1.936-25.434-1.936C479.438,136.395,470.315,137.491,469.122,138.331z
						 M520.089,138.421h0.008H520.089z"/>
				</g>
				<g>
					<path d="M496.85,279.492c-0.494,0-0.994-0.002-1.501-0.007h-1.577c-15.738,0.118-25.323-1.793-25.649-5.147
						c-0.184-1.888,2.582-3.602,7.218-4.471c11.212-2.102,14.303-6.103,15.494-11.464c1.32-5.942,0.67-33.131,0.663-33.404
						c-0.431-3.742-3.661-5.059-8.13-6.883c-6.948-2.834-16.463-6.715-20.816-22.99c-7.028-26.27,5.559-56.654,5.687-56.959
						c0.09-0.214,0.34-0.314,0.551-0.224c0.215,0.09,0.315,0.337,0.225,0.552c-0.127,0.301-12.602,30.427-5.65,56.414
						c4.246,15.87,13.537,19.66,20.32,22.427c4.56,1.861,8.161,3.33,8.651,7.604c0.03,1.16,0.662,27.603-0.68,33.645
						c-1.515,6.818-6.046,10.213-16.161,12.108c-4.644,0.871-6.643,2.457-6.536,3.562c0.165,1.705,5.568,4.528,24.808,4.387h1.585
						c19.238,0.149,24.646-2.682,24.811-4.387c0.107-1.105-1.892-2.692-6.536-3.562c-10.114-1.896-14.646-5.29-16.161-12.108
						c-1.343-6.043-0.711-32.485-0.683-33.608c0.493-4.311,4.095-5.78,8.654-7.641c6.784-2.767,16.075-6.557,20.32-22.427
						c6.954-25.995-5.523-56.114-5.65-56.414c-0.09-0.215,0.01-0.461,0.225-0.552c0.212-0.09,0.461,0.011,0.551,0.224
						c0.128,0.304,12.715,30.689,5.687,56.959c-4.353,16.274-13.868,20.156-20.816,22.99c-4.47,1.824-7.699,3.141-8.133,6.92
						c-0.004,0.237-0.654,27.425,0.666,33.367c1.191,5.361,4.282,9.362,15.494,11.464c4.636,0.869,7.402,2.582,7.218,4.471
						C520.686,277.585,511.693,279.492,496.85,279.492z"/>
				</g>
				<g>
					<path d="M528.161,182.232c-0.028,0-0.056-0.002-0.084-0.008c-33.102-6.728-66.724-0.068-67.061,0
						c-0.227,0.049-0.449-0.101-0.496-0.329c-0.046-0.228,0.101-0.451,0.329-0.497c0.337-0.068,34.127-6.76,67.395,0
						c0.228,0.047,0.375,0.269,0.328,0.497C528.533,182.095,528.357,182.232,528.161,182.232z"/>
				</g>
				<g>
					<path d="M494.872,187.202c-7.727,0-14.993-0.228-20.46-0.642c-8.851-0.671-8.851-1.482-8.851-1.967s0-1.297,8.851-1.967
						c5.467-0.414,12.733-0.642,20.46-0.642c7.727,0,14.993,0.228,20.46,0.642c8.851,0.671,8.851,1.482,8.851,1.967
						s0,1.297-8.851,1.967C509.866,186.974,502.599,187.202,494.872,187.202z M466.564,184.592
						c1.666,0.78,11.792,1.768,28.308,1.768c16.516,0,26.643-0.987,28.308-1.768c-1.666-0.78-11.792-1.768-28.308-1.768
						C478.357,182.825,468.23,183.812,466.564,184.592z M523.382,184.723h0.009H523.382z"/>
				</g>
				<g>
					<path d="M494.872,216.079c-16.162,0-29.311-13.596-29.311-30.307c0-0.328,0.005-0.655,0.015-0.982
						c0.008-0.233,0.232-0.4,0.434-0.408c0.233,0.007,0.415,0.201,0.408,0.434c-0.01,0.317-0.015,0.636-0.015,0.955
						c0,16.247,12.771,29.465,28.469,29.465s28.469-13.218,28.469-29.465c0-0.302-0.005-0.603-0.014-0.903
						c-0.007-0.232,0.176-0.426,0.409-0.433c0.226-0.004,0.426,0.175,0.433,0.409c0.009,0.308,0.014,0.617,0.014,0.927
						C524.184,202.483,511.035,216.079,494.872,216.079z"/>
				</g>
				<g>
					<path d="M494.127,274.58c-13.895,0-21.784-0.932-22.815-2.695c-0.175-0.3-0.14-0.58-0.049-0.742
						c0.114-0.203,0.37-0.275,0.573-0.16c0.171,0.096,0.25,0.295,0.2,0.477c0.118,0.244,1.713,2.279,22.09,2.279
						c15.013,0,21.717-0.46,22.416-1.536c0.123-0.19,0.003-0.483-0.203-0.947l0.757-0.369c0.255,0.573,0.53,1.192,0.151,1.774
						C516.422,273.934,512.619,274.58,494.127,274.58z M471.997,271.554C471.997,271.554,471.997,271.555,471.997,271.554
						C471.997,271.555,471.997,271.554,471.997,271.554z M471.998,271.554L471.998,271.554L471.998,271.554z"/>
				</g>
				<g>
					<path d="M492.3,144.502c-12.749,0-19.375-1.326-19.473-1.347c-0.228-0.047-0.374-0.27-0.327-0.497
						c0.047-0.229,0.269-0.378,0.497-0.326c0.147,0.03,14.928,2.98,43.03-0.007c0.237-0.025,0.438,0.143,0.463,0.374
						c0.025,0.231-0.143,0.438-0.374,0.463C506.665,144.166,498.709,144.502,492.3,144.502z"/>
				</g>
				<g>
					<path d="M465.983,174.874c-0.018,0-0.037-0.001-0.056-0.003c-0.23-0.031-0.392-0.243-0.362-0.473
						c1.784-13.448,6.902-26.901,6.954-27.035c0.083-0.217,0.327-0.325,0.544-0.243c0.217,0.083,0.326,0.326,0.242,0.543
						c-0.051,0.134-5.135,13.498-6.905,26.845C466.372,174.72,466.191,174.874,465.983,174.874z"/>
				</g>
				<g>
					<path d="M464.122,170.104c-0.018,0-0.037-0.001-0.056-0.003c-0.23-0.031-0.392-0.243-0.362-0.473
						c1.784-13.449,6.903-26.901,6.954-27.035c0.083-0.217,0.327-0.324,0.544-0.243c0.217,0.083,0.326,0.326,0.242,0.543
						c-0.051,0.134-5.135,13.497-6.906,26.845C464.511,169.95,464.33,170.104,464.122,170.104z"/>
				</g>
				<g>
					<path d="M521.376,173.295c-0.216,0-0.4-0.165-0.419-0.385c-0.012-0.142-1.279-14.385-5.519-27.164
						c-0.073-0.22,0.046-0.459,0.267-0.532c0.22-0.074,0.458,0.047,0.532,0.267c4.272,12.876,5.546,27.214,5.558,27.357
						c0.02,0.232-0.151,0.436-0.383,0.455C521.4,173.295,521.388,173.295,521.376,173.295z"/>
				</g>
				<g>
					<path d="M525.134,176.773c-0.216,0-0.4-0.165-0.419-0.385c-0.012-0.142-1.279-14.385-5.519-27.163
						c-0.073-0.22,0.046-0.459,0.267-0.532c0.22-0.074,0.458,0.046,0.532,0.267c4.272,12.875,5.546,27.213,5.558,27.356
						c0.02,0.232-0.151,0.436-0.383,0.455C525.158,176.772,525.146,176.773,525.134,176.773z"/>
				</g>
			</g>
		</g>
	</g>
	<g>
		<g>
			<path d="M304.988,273.733c-0.553,0-1-0.448-1-1v-72.296c0-0.552,0.447-1,1-1s1,0.448,1,1v72.296
				C305.988,273.285,305.541,273.733,304.988,273.733z"/>
		</g>
		<g>
			<path d="M407.561,287.76c-0.418,0-0.808-0.265-0.948-0.683c-0.176-0.524,0.106-1.09,0.631-1.266l25.693-8.61
				c0.523-0.173,1.09,0.107,1.266,0.63c0.176,0.524-0.106,1.09-0.631,1.266l-25.693,8.61
				C407.773,287.743,407.667,287.76,407.561,287.76z"/>
		</g>
		<g>
			<path d="M436.187,151.76c-0.388,0-0.757-0.227-0.919-0.606l-14.133-32.941c-0.218-0.507,0.018-1.095,0.524-1.313
				s1.096,0.016,1.313,0.525l14.133,32.941c0.218,0.507-0.018,1.095-0.524,1.313C436.453,151.734,436.319,151.76,436.187,151.76z"/>
		</g>
		<g>
			<path d="M502.988,257.693c-0.553,0-1-0.448-1-1v-30.4c0-0.552,0.447-1,1-1s1,0.448,1,1v30.4
				C503.988,257.245,503.541,257.693,502.988,257.693z"/>
		</g>
		<g>
			<path d="M466.563,133.86c-0.48,0-0.904-0.347-0.985-0.836c-0.091-0.545,0.277-1.06,0.822-1.15
				c0.188-0.031,18.919-3.109,32.288-2.211c0.551,0.037,0.968,0.514,0.931,1.064c-0.037,0.551-0.503,0.981-1.065,0.931
				c-13.118-0.878-31.64,2.158-31.825,2.188C466.673,133.855,466.617,133.86,466.563,133.86z"/>
		</g>
		<g>
			<path d="M657.925,305.063c-0.04,0-0.08-0.002-0.12-0.007c-0.549-0.066-0.939-0.564-0.874-1.112l7.978-66.303
				c0.066-0.549,0.575-0.939,1.112-0.873c0.549,0.066,0.939,0.564,0.874,1.112l-7.978,66.303
				C658.856,304.69,658.424,305.063,657.925,305.063z"/>
		</g>
		<g>
			<path d="M586.654,189.627c-0.429,0-0.825-0.278-0.957-0.709l-6.053-19.866c-0.16-0.528,0.138-1.087,0.666-1.248
				c0.53-0.163,1.087,0.137,1.248,0.665l6.053,19.866c0.16,0.528-0.138,1.087-0.666,1.248
				C586.848,189.612,586.75,189.627,586.654,189.627z"/>
		</g>
		<g>
			<path d="M626.721,189.626h-17.334c-0.553,0-1-0.448-1-1s0.447-1,1-1h17.334c0.553,0,1,0.448,1,1S627.274,189.626,626.721,189.626
				z"/>
		</g>
		<g>
			<path d="M613.187,317.463c-0.104,0-0.209-0.017-0.313-0.051l-20-6.603c-0.355-0.118-0.616-0.424-0.675-0.794l-2.3-14.6
				c-0.086-0.546,0.287-1.058,0.833-1.144c0.543-0.087,1.058,0.287,1.144,0.832l2.204,13.997l19.421,6.411
				c0.524,0.173,0.81,0.739,0.636,1.263C613.998,317.196,613.607,317.463,613.187,317.463z"/>
		</g>
		<g>
			<path d="M704.988,462.393c-0.553,0-1-0.448-1-1v-70.486c0-0.552,0.447-1,1-1s1,0.448,1,1v70.486
				C705.988,461.945,705.541,462.393,704.988,462.393z"/>
		</g>
		<g>
			<path d="M665.045,482.66h-37.651c-0.553,0-1-0.448-1-1s0.447-1,1-1h37.651c0.553,0,1,0.448,1,1S665.597,482.66,665.045,482.66z"
				/>
		</g>
		<g>
			<path d="M579.921,373.126c-0.119,0-0.24-0.021-0.357-0.066c-0.516-0.197-0.773-0.774-0.577-1.29
				c0.259-0.677,6.538-16.625,24.475-20.158c0.551-0.108,1.069,0.247,1.175,0.788c0.106,0.542-0.246,1.068-0.788,1.174
				c-16.824,3.314-22.934,18.754-22.993,18.91C580.702,372.882,580.322,373.126,579.921,373.126z"/>
		</g>
		<g>
			<path d="M602.589,648.26c-0.024,0-0.05-0.001-0.075-0.003c-0.551-0.041-0.964-0.52-0.923-1.071l3.6-48.62
				c0.016-0.22,0.104-0.429,0.252-0.594l22.601-25.221c0.371-0.411,1.003-0.446,1.412-0.077c0.412,0.369,0.446,1,0.078,1.412
				l-22.374,24.967l-3.574,48.28C603.546,647.86,603.107,648.26,602.589,648.26z"/>
		</g>
		<g>
			<path d="M584.781,681.654h-31.993c-0.553,0-1-0.448-1-1s0.447-1,1-1h31.993c0.553,0,1,0.448,1,1S585.334,681.654,584.781,681.654
				z"/>
		</g>
		<g>
			<path d="M541.455,567.08c-0.319,0-0.633-0.152-0.826-0.435l-22.866-33.408c-0.312-0.456-0.195-1.078,0.261-1.39
				c0.455-0.312,1.079-0.194,1.39,0.26l22.866,33.408c0.312,0.456,0.195,1.078-0.261,1.39
				C541.846,567.024,541.649,567.08,541.455,567.08z"/>
		</g>
		<g>
			<path d="M454.453,594.778c-0.201,0-0.405-0.061-0.582-0.187c-13.179-9.448-48.025-8.947-48.374-8.938
				c-0.573-0.006-1.008-0.43-1.018-0.982s0.43-1.008,0.982-1.018c1.46-0.022,35.863-0.516,49.575,9.312
				c0.448,0.322,0.552,0.947,0.229,1.396C455.071,594.633,454.764,594.778,454.453,594.778z"/>
		</g>
		<g>
			<path d="M385.922,695.993c-0.019,0-0.036,0-0.055-0.001c-49.762-2.675-56.902-28.532-57.182-29.631
				c-0.137-0.535,0.188-1.08,0.723-1.216c0.524-0.135,1.077,0.186,1.215,0.72l0,0c0.066,0.255,7.176,25.54,55.352,28.13
				c0.552,0.03,0.975,0.5,0.945,1.052C386.89,695.58,386.449,695.993,385.922,695.993z"/>
		</g>
		<g>
			<path d="M216.977,676.527h-33.471c-0.553,0-1-0.448-1-1s0.447-1,1-1h33.471c0.553,0,1,0.448,1,1S217.53,676.527,216.977,676.527z
				"/>
		</g>
		<g>
			<path d="M230.227,636.469c-0.553,0-1-0.448-1-1v-38.143c0-0.552,0.447-1,1-1s1,0.448,1,1v38.143
				C231.227,636.022,230.78,636.469,230.227,636.469z"/>
		</g>
		<g>
			<path d="M170.721,550.926c-0.553,0-1-0.448-1-1v-28.758l-11.729-27.246c-0.218-0.507,0.017-1.096,0.523-1.314
				c0.507-0.221,1.096,0.016,1.314,0.523l11.811,27.436c0.054,0.125,0.081,0.26,0.081,0.396v28.964
				C171.721,550.479,171.274,550.926,170.721,550.926z"/>
		</g>
		<g>
			<path d="M116.42,452.584c-0.553,0-1-0.448-1-1v-74.075c0-0.552,0.447-1,1-1s1,0.448,1,1v74.075
				C117.42,452.136,116.972,452.584,116.42,452.584z"/>
		</g>
		<g>
			<path d="M198.588,475.26h-35.467c-0.553,0-1-0.448-1-1s0.447-1,1-1h35.467c0.553,0,1,0.448,1,1S199.14,475.26,198.588,475.26z"/>
		</g>
		<g>
			<path d="M175.52,291.729c-0.471,0-0.89-0.333-0.981-0.813l-8.549-44.736c-0.104-0.542,0.252-1.066,0.795-1.17
				c0.544-0.099,1.066,0.251,1.17,0.795l8.549,44.736c0.104,0.542-0.252,1.066-0.795,1.17
				C175.645,291.723,175.583,291.729,175.52,291.729z"/>
		</g>
		<g>
			<path d="M226.465,312.033c-2.374,0-4.901-0.096-7.599-0.305c-0.551-0.043-0.963-0.524-0.92-1.074
				c0.043-0.55,0.503-0.965,1.074-0.92c30.581,2.369,39.037-10.424,39.12-10.554c0.294-0.466,0.91-0.608,1.377-0.315
				c0.467,0.292,0.61,0.905,0.32,1.373C259.513,300.761,252.199,312.033,226.465,312.033z"/>
		</g>
		<g>
			<path d="M181.886,186.726c-0.222,0-0.444-0.074-0.63-0.225c-0.428-0.348-0.493-0.977-0.146-1.405
				c0.284-0.35,7.003-8.473,17.522-8.473c0.13,0,0.262,0.001,0.394,0.003c0.552,0.011,0.991,0.467,0.98,1.019
				c-0.011,0.546-0.456,0.981-1,0.981c-0.006,0-0.013,0-0.02,0c-0.114-0.002-0.23-0.003-0.344-0.003
				c-9.56,0-15.917,7.656-15.981,7.735C182.465,186.6,182.177,186.726,181.886,186.726z"/>
		</g>
	</g>
</g>
</svg>
