<?xml version="1.0" encoding="utf-8"?>
<!-- Generator: Adobe Illustrator 27.5.0, SVG Export Plug-In . SVG Version: 6.00 Build 0)  -->
<svg version="1.1" xmlns="http://www.w3.org/2000/svg" xmlns:xlink="http://www.w3.org/1999/xlink" x="0px" y="0px"
	 viewBox="0 0 500 500" style="enable-background:new 0 0 500 500;" xml:space="preserve">
<g id="BACKGROUND">
</g>
<g id="OBJECTS">
	<g>
		<path d="M443.824,216.928c-1.314,1.37-2.619,2.747-3.905,4.142l-0.969,1.042l-0.481,0.514l-0.437,0.43
			c-0.604,0.538-1.25,1.026-1.983,1.359c-1.439,0.706-3.077,0.982-4.663,0.784c-0.79-0.115-1.559-0.337-2.287-0.656
			c-0.721-0.338-1.381-0.785-1.991-1.297c-0.59-0.535-1.119-1.133-1.55-1.802c-0.411-0.68-0.733-1.413-0.952-2.181
			c-0.407-1.546-0.346-3.206,0.158-4.727c0.232-0.769,0.634-1.479,1.083-2.144l0.362-0.482l0.456-0.535l0.927-1.078
			c1.244-1.431,2.463-2.883,3.679-4.338c4.885-5.803,9.689-11.679,14.266-17.761c-5.536,5.224-10.845,10.655-16.073,16.157
			c-1.312,1.371-2.621,2.746-3.905,4.141l-0.969,1.042l-0.487,0.53l-0.52,0.634c-0.649,0.872-1.22,1.818-1.585,2.853
			c-0.776,2.055-0.852,4.341-0.328,6.471c0.283,1.062,0.714,2.083,1.277,3.031c0.231,0.371,0.499,0.716,0.77,1.057l-58.368,69.309
			c-2.185-0.618-4.625-0.004-6.227,1.812l-3.166,3.707c4.504,1.227,8.679,2.596,12.522,4.056c1.645-2.11,1.693-4.994,0.237-7.14
			l58.146-69.045c0.322,0.186,0.641,0.378,0.98,0.532c1.014,0.433,2.083,0.725,3.174,0.865c2.182,0.239,4.436-0.143,6.373-1.178
			c0.978-0.498,1.843-1.192,2.617-1.947l0.553-0.591l0.47-0.543l0.927-1.078c1.243-1.431,2.466-2.881,3.68-4.338
			c4.885-5.803,9.688-11.679,14.263-17.764C454.362,205.995,449.051,211.425,443.824,216.928z M415.845,235.901l-6.832,8.242
			l-13.794,16.373l-13.976,16.218c-4.691,5.378-9.396,10.745-14.186,16.039c4.466-5.571,9.017-11.067,13.582-16.553l13.793-16.374
			l13.975-16.219l7.052-8.054c2.38-2.66,4.732-5.343,7.135-7.983C420.369,230.38,418.094,233.129,415.845,235.901z"/>
		<g>
			<path style="fill:none;stroke:#000000;stroke-miterlimit:10;" d="M155.123,236.679"/>
		</g>
		<g>
			<path d="M161.177,188.246c0.238,0.576,0.374,0.881,0.374,0.881s-0.082-0.397-0.237-1.142c0.186-0.352,0.386-0.723,0.623-1.135
				c1.345-2.402,3.459-5.861,6.622-9.907c1.559-2.039,3.459-4.159,5.591-6.393c2.196-2.172,4.609-4.49,7.435-6.671
				c2.807-2.197,5.925-4.368,9.384-6.364c0.419-0.227,0.84-0.456,1.265-0.686l0.54-0.273c0.353-0.178,0.7-0.314,1.015-0.456
				c0.314-0.145,0.622-0.242,0.899-0.345l0.205-0.073l0.099-0.035c0.035-0.013-0.059,0.064-0.081,0.091l-0.454,0.453
				c-0.343,0.345-0.65,0.67-0.911,0.984c-0.131,0.156-0.249,0.311-0.354,0.461l-0.076,0.113l-0.037,0.056
				c0,0-0.019,0.031-0.011,0.015l-0.067,0.122c-0.183,0.323-0.354,0.664-0.52,1.008c-0.645,1.382-1.105,2.886-1.283,4.486
				c-0.175,1.594-0.034,3.31,0.578,4.936c0.605,1.634,1.687,3.077,2.993,4.175c1.307,1.107,2.824,1.921,4.439,2.45
				c3.274,1.049,6.69,0.872,9.858,0.315c12.535-2.285,25.037-9.119,34.174-19.819c0.793-0.88,1.485-1.84,2.223-2.757
				c0.664-0.995,1.325-1.987,1.984-2.975l0.492-0.742c0.151-0.254,0.277-0.523,0.416-0.783l0.812-1.572l0.805-1.569
				c0.25-0.529,0.435-1.085,0.655-1.625c1.832-4.302,2.755-8.842,3.192-13.288c0.886-8.939-0.724-17.594-3.582-25.222
				c-0.408-0.936-0.814-1.867-1.217-2.791l-0.606-1.379l-0.71-1.32c-0.473-0.875-0.942-1.744-1.408-2.607
				c-0.538-0.822-1.072-1.638-1.602-2.448l-0.794-1.207c-0.279-0.39-0.59-0.757-0.882-1.134c-0.593-0.747-1.182-1.488-1.766-2.223
				c-0.608-0.715-1.285-1.363-1.916-2.037c-0.651-0.656-1.247-1.357-1.956-1.927c-0.685-0.594-1.363-1.184-2.036-1.768
				c-0.688-0.564-1.417-1.063-2.114-1.589l-1.049-0.772c-0.355-0.246-0.728-0.462-1.088-0.693c-0.725-0.452-1.443-0.9-2.155-1.344
				c-2.941-1.599-5.835-3.007-8.744-3.953c-5.772-2.011-11.279-2.834-16.09-2.949c-4.823-0.12-8.946,0.473-12.239,1.167
				c-1.638,0.407-3.098,0.726-4.316,1.179c-1.229,0.409-2.276,0.727-3.079,1.105c-1.626,0.689-2.479,1.051-2.479,1.051
				s0.874-0.305,2.54-0.886c0.819-0.324,1.882-0.576,3.123-0.907c1.23-0.375,2.697-0.606,4.332-0.914
				c3.287-0.498,7.36-0.856,12.054-0.501c4.683,0.348,9.98,1.405,15.441,3.575c2.754,1.025,5.467,2.492,8.207,4.117
				c0.659,0.447,1.326,0.899,1.998,1.356c0.333,0.231,0.68,0.448,1.007,0.694l0.966,0.769c0.64,0.522,1.313,1.016,1.943,1.571
				c0.614,0.572,1.234,1.15,1.859,1.732c0.651,0.555,1.184,1.237,1.774,1.87c0.57,0.652,1.184,1.274,1.732,1.962
				c0.526,0.707,1.055,1.42,1.589,2.138c0.263,0.361,0.545,0.711,0.795,1.085l0.711,1.158c0.476,0.773,0.955,1.552,1.438,2.336
				c0.415,0.823,0.833,1.653,1.254,2.487l0.635,1.254l0.534,1.312c0.357,0.877,0.717,1.759,1.078,2.647
				c2.507,7.229,3.85,15.366,2.917,23.614c-0.459,4.101-1.345,8.256-3.039,12.142c-1.662,3.91-3.809,7.574-6.756,10.903
				c-8.482,9.949-20.127,16.474-31.734,18.812c-2.849,0.564-5.672,0.703-8.118-0.026c-2.439-0.732-4.572-2.351-5.398-4.454
				c-0.874-2.107-0.549-4.717,0.417-6.946c0.125-0.279,0.251-0.555,0.397-0.831l0.053-0.104l0.118-0.208l0.23-0.385
				c0.148-0.257,0.306-0.512,0.486-0.765c0.687-1.018,1.497-2.02,2.549-3.169c2.11-2.301,4.49-4.823,6.449-6.904
				c-0.349,0.126-0.534,0.179-0.786,0.261c-0.166,0.044-0.369,0.104-0.474,0.119l-0.093,0.018c-0.036,0.009-0.033-0.005-0.166,0.06
				l-0.61,0.28l-1.209,0.555c-1.591,0.738-3.192,1.445-4.634,2.163c-1.477,0.734-2.874,1.361-4.307,2.135
				c-0.708,0.366-1.436,0.806-2.144,1.216c-0.468,0.278-0.933,0.555-1.395,0.829c-3.486,2.198-6.594,4.564-9.367,6.941
				c-2.791,2.36-5.144,4.843-7.266,7.161c-2.058,2.381-3.869,4.628-5.336,6.776c-2.979,4.264-4.893,7.865-6.092,10.355
				c-0.166,0.333-0.313,0.645-0.448,0.941c-0.031-0.148-0.063-0.304-0.098-0.473c-0.235-1.259-0.542-3.103-0.728-5.435
				c-0.176-2.331-0.248-5.151,0.05-8.313c0.069-0.79,0.163-1.601,0.284-2.429c0.048-0.415,0.127-0.833,0.198-1.255l0.11-0.654
				c0.056-0.408,0.151-0.779,0.231-1.182c0.176-0.803,0.316-1.588,0.535-2.475c0.266-0.95,0.536-1.911,0.808-2.882
				c0.609-2.073,1.231-4.189,1.864-6.346l-0.435,0.354l-0.231,0.195l-0.308,0.298c-0.417,0.404-0.836,0.811-1.258,1.22
				c-0.868,0.846-1.746,1.702-2.634,2.567c-0.914,0.884-1.738,1.788-2.644,2.718c-0.885,0.927-1.779,1.864-2.681,2.809
				c-1.964,2.301-3.931,4.761-5.678,7.465c-3.471,5.261-6.037,10.733-7.79,15.878c-1.762,5.149-2.71,9.967-3.189,14.019
				c-0.063,0.506-0.124,1-0.184,1.481c-0.035,0.484-0.069,0.956-0.103,1.414c-0.059,0.915-0.115,1.777-0.168,2.584
				c-0.013,1.619-0.048,3.005-0.015,4.139c0.125,2.259,0.195,3.51,0.195,3.51s0.158-1.238,0.444-3.473
				c0.158-1.113,0.415-2.465,0.664-4.031c0.165-0.777,0.341-1.607,0.528-2.487c0.093-0.439,0.188-0.89,0.286-1.353
				c0.119-0.459,0.241-0.929,0.366-1.411c0.963-3.856,2.368-8.369,4.405-13.162c2.031-4.794,4.688-9.862,7.978-14.85
				c1.656-2.566,3.469-4.932,5.245-7.193c0.137-0.208,0.272-0.412,0.403-0.612l0.224-0.325c0.085-0.117,0.239-0.341,0.208-0.237
				c0.031,0.095,0.039,0.365,0.058,0.849c0.003,0.053,0,0.14,0.007,0.174l-0.045,0.672c-0.03,0.455-0.066,0.904-0.072,1.349
				c-0.035,0.887-0.038,1.75-0.015,2.587c0.073,3.346,0.55,6.246,1.089,8.587c0.549,2.344,1.175,4.135,1.635,5.34
				c0.109,0.275,0.207,0.517,0.295,0.731L161.177,188.246z"/>
			<path d="M178.679,114.914c3.208,4.299,4.212,9.255,4.12,13.282c-0.088,4.069-1.203,7.248-2.148,9.293
				c-0.478,1.028-0.91,1.801-1.233,2.3c-0.316,0.507-0.481,0.772-0.481,0.772s0.199-0.24,0.582-0.7
				c0.39-0.456,0.922-1.172,1.535-2.154c1.209-1.953,2.751-5.089,3.278-9.4c0.256-2.145,0.242-4.566-0.236-7.14
				c-0.468-2.57-1.495-5.279-3.109-7.829c-1.62-2.544-3.83-4.94-6.591-6.868c-0.452-0.321-0.925-0.622-1.408-0.914
				c2.669,0.021,5.366,0.284,8.025,0.898c1.004,0.242,2.02,0.502,2.954,0.857l1.398,0.525l1.351,0.637
				c1.756,0.923,3.453,1.962,4.919,3.234c1.472,1.254,2.836,2.608,3.913,4.113c0.597,0.717,1.017,1.525,1.511,2.283
				c0.211,0.395,0.393,0.801,0.592,1.197l0.294,0.595l0.221,0.615c0.694,1.615,0.9,3.299,1.049,4.927
				c-0.029,1.626-0.157,3.238-0.686,4.713c-0.844,3.009-2.833,5.322-4.946,7.091c-2.161,1.732-4.463,2.915-6.556,3.75
				c-2.102,0.83-4.011,1.326-5.592,1.623c-1.584,0.281-2.839,0.395-3.691,0.437c-0.856,0.025-1.305,0.038-1.305,0.038
				s0.448,0.048,1.302,0.138c0.857,0.07,2.13,0.118,3.774,0.023c1.641-0.112,3.65-0.395,5.926-1.03
				c2.268-0.644,4.819-1.64,7.363-3.333c1.233-0.894,2.524-1.885,3.626-3.203c1.079-1.297,2.158-2.842,2.74-4.597
				c0.741-1.708,1.056-3.651,1.194-5.649c-0.037-1.991-0.211-4.09-0.933-6.068l-0.235-0.756l-0.311-0.727
				c-0.213-0.484-0.413-0.98-0.645-1.462c-0.53-0.92-1.008-1.9-1.663-2.764c-1.202-1.813-2.72-3.432-4.386-4.927
				c-1.659-1.512-3.587-2.763-5.631-3.867c-0.525-0.255-1.051-0.51-1.579-0.767c-0.544-0.227-1.103-0.429-1.658-0.642
				c-1.112-0.425-2.236-0.718-3.385-0.994c-6.199-1.425-12.35-1.048-17.858-0.005l-11.534,2.183l11.58,1.557
				C170.283,107.026,175.55,110.636,178.679,114.914z"/>
			<path d="M301.921,173.074c3.869-0.241,7.41-1.628,10.323-3.537c2.901-1.954,5.163-4.516,6.582-7.27
				c1.413-2.763,2.022-5.599,2.094-8.156c0.181-5.16-1.552-9.057-3.012-11.368c-0.752-1.166-1.441-1.988-1.937-2.512
				c-0.501-0.516-0.765-0.787-0.765-0.787s0.216,0.309,0.627,0.897c0.404,0.587,0.951,1.491,1.512,2.707
				c1.09,2.413,2.196,6.275,1.534,10.888c-0.304,2.287-1.097,4.715-2.489,6.95c-1.397,2.226-3.455,4.229-5.987,5.726
				c-2.545,1.453-5.549,2.461-8.693,2.548c-3.134,0.133-6.331-0.686-9.192-2.394c-2.861-1.71-5.183-4.179-6.926-6.888
				c-1.696-2.742-2.877-5.712-3.39-8.659c-0.032-0.173-0.043-0.345-0.071-0.518c-0.111-3.618,0.661-7.689,2.325-11.832
				c1.802-4.601,4.661-9.239,7.97-14.138c3.26-4.922,7.048-10.172,9.699-16.619c1.3-3.211,2.299-6.7,2.626-10.419
				c0.334-3.699-0.088-7.678-1.562-11.356c-0.887-2.273-2.122-4.399-3.603-6.355c-0.562-0.906-1.118-1.704-1.625-2.369
				c-0.869-1.114-1.605-1.92-2.124-2.444c-0.523-0.519-0.798-0.791-0.798-0.791s0.228,0.311,0.663,0.904
				c0.233,0.321,0.52,0.739,0.84,1.237c-2.842-2.794-6.209-5.069-9.782-6.857c-7.226-3.595-14.695-5.381-21.911-6.856
				c-7.245-1.399-14.346-2.097-21.112-2.23c-6.77-0.073-13.189,0.406-19.139,1.203c-2.959,0.52-5.832,0.904-8.538,1.577
				c-1.356,0.313-2.694,0.579-3.984,0.916c-1.284,0.36-2.54,0.712-3.767,1.056c-9.796,2.831-17.246,6.438-22.182,9.196
				c-2.514,1.306-4.331,2.555-5.6,3.33c-1.257,0.793-1.918,1.21-1.918,1.21s0.691-0.364,2.007-1.058
				c1.324-0.677,3.215-1.784,5.801-2.911c5.081-2.403,12.661-5.498,22.417-7.787c1.219-0.278,2.468-0.562,3.744-0.853
				c1.28-0.27,2.605-0.468,3.946-0.714c2.675-0.538,5.508-0.79,8.413-1.182c5.845-0.543,12.113-0.787,18.692-0.528
				c6.576,0.319,13.446,1.155,20.44,2.618c6.955,1.524,14.247,3.37,20.843,6.671c3.298,1.652,6.303,3.679,8.823,6.121
				c2.508,2.447,4.559,5.281,5.812,8.358c1.278,3.061,1.705,6.358,1.491,9.612c-0.015,0.231-0.055,0.459-0.076,0.689
				c-0.495,2.225-1.398,4.536-2.526,6.876c-2.785,5.743-6.83,11.703-10.919,18.115c-4.091,6.415-7.908,12.708-10.54,18.946
				c-1.309,3.116-2.318,6.212-2.888,9.217c-0.115,0.759-0.287,1.487-0.343,2.23c-0.058,0.739-0.114,1.465-0.17,2.176
				c0.017,0.717,0.035,1.419,0.051,2.106c0.008,0.684,0.164,1.354,0.239,2.003c0.445,2.585,1.3,4.849,2.446,6.559
				c0.283,0.429,0.503,0.875,0.811,1.239c0.303,0.364,0.594,0.715,0.874,1.051c0.527,0.695,1.125,1.217,1.65,1.694
				c1.006,1,1.942,1.58,2.537,2.015c0.601,0.424,0.917,0.646,0.917,0.646s-0.278-0.27-0.806-0.783
				c-0.52-0.518-1.346-1.216-2.183-2.319c-0.442-0.527-0.944-1.1-1.357-1.826c-0.222-0.348-0.453-0.712-0.694-1.089
				c-0.245-0.373-0.396-0.82-0.61-1.245c-0.867-1.701-1.39-3.831-1.551-6.176c-0.004-0.593-0.092-1.189-0.035-1.809
				c0.043-0.617,0.088-1.247,0.133-1.89c0.109-0.639,0.22-1.291,0.333-1.955c0.106-0.662,0.328-1.327,0.487-2.006
				c0.463-1.675,1.091-3.395,1.826-5.144c-0.11,1.609-0.081,3.283,0.132,5.005c0.393,3.425,1.577,6.914,3.461,10.182
				c1.931,3.231,4.641,6.249,8.17,8.362c1.772,1.022,3.652,1.862,5.619,2.306C297.995,173.064,299.996,173.202,301.921,173.074z"/>
			<path d="M367.415,193.837c-0.201-7.561-1.276-16.639-4.273-26.274c-2.982-9.603-7.611-19.883-14.607-29.26
				c-0.883-1.154-1.678-2.364-2.623-3.446c-1.055-1.245-2.104-2.482-3.145-3.709c-1.769-1.929-3.677-3.835-5.469-5.708
				c-0.902-0.931-1.8-1.858-2.693-2.782l-1.328-1.37l-1.071-1.077c0.693,2.126,1.381,4.241,2.066,6.342l0.534,1.641
				c0.174,0.54,0.273,0.962,0.412,1.446c0.258,0.934,0.516,1.865,0.773,2.793c0.132,0.466,0.261,0.928,0.329,1.328
				c0.094,0.419,0.158,0.828,0.211,1.233l0.204,1.339c0.079,0.801,0.163,1.597,0.223,2.389c0.192,3.173-0.019,6.278-0.586,9.206
				c-0.572,2.926-1.473,5.686-2.685,8.171c-0.297,0.624-0.642,1.214-0.955,1.815l-0.364,0.671l-0.213,0.366
				c-0.146,0.258-0.301,0.514-0.469,0.747l-0.259,0.378l-0.136,0.196c-0.019,0.02-0.054,0.095-0.061,0.071l-0.016-0.084
				c-0.067-0.387-0.159-0.816-0.278-1.284c-0.025-0.118-0.064-0.236-0.098-0.357l-0.054-0.185l-0.092-0.357
				c-0.119-0.517-0.289-1.015-0.442-1.509c-0.635-1.967-1.39-3.779-2.301-5.364c-1.777-3.197-3.945-5.532-5.859-7.2
				c-1.931-1.67-3.642-2.672-4.782-3.358c-1.18-0.621-1.802-0.949-1.802-0.949s0.583,0.389,1.689,1.127
				c1.061,0.794,2.647,1.945,4.374,3.732c1.713,1.785,3.588,4.195,5.029,7.336c0.743,1.557,1.325,3.313,1.791,5.199
				c0.112,0.474,0.239,0.949,0.317,1.444c0.062,0.324,0.124,0.65,0.187,0.978c0.062,0.4,0.135,0.796,0.176,1.232
				c0.099,0.873,0.198,1.757,0.299,2.652c0.085,0.913,0.171,1.837,0.258,2.772l0.161-0.071c0.055-0.028,0.148-0.167,0.221-0.245
				l0.469-0.562c0.318-0.382,0.639-0.766,0.961-1.152c0.326-0.395,0.654-0.792,0.985-1.192c0.31-0.415,0.622-0.832,0.935-1.252
				c0.319-0.427,0.64-0.857,0.963-1.289c0.146-0.202,0.364-0.472,0.455-0.624l0.286-0.468c0.376-0.63,0.785-1.253,1.144-1.913
				c1.462-2.631,2.599-5.598,3.365-8.775c0.761-3.179,1.125-6.576,1.028-10.068c-0.036-0.872-0.101-1.75-0.163-2.634l-0.144-1.182
				l0.003-0.091c0.002-0.11,0.007-0.165,0.014-0.181c-0.006-0.022,0.019,0.011,0.049,0.056l0.06,0.089
				c0.034,0.053,0.043,0.073,0.059,0.105c0.744,0.893,1.493,1.792,2.247,2.697c0.901,1.04,1.658,2.206,2.505,3.311
				c6.707,8.985,11.375,18.733,14.623,27.906c3.258,9.198,4.811,17.94,5.515,25.322c0.702,7.402,0.352,13.448,0.12,17.622
				c-0.455,4.164-0.707,6.468-0.707,6.468s0.123-0.567,0.357-1.646c0.223-1.082,0.596-2.673,0.984-4.743
				C366.741,207.504,367.614,201.424,367.415,193.837z"/>
			<path d="M319.963,74.308c1.109,1.187,2.208,2.363,3.297,3.529c0.411,0.465,0.333,0.46,0.46,0.632l0.257,0.414l0.515,0.822
				c0.38,0.526,0.586,1.139,0.871,1.704c1.06,2.297,1.695,4.714,1.852,7.052c0.178,1.167,0.054,2.311,0.074,3.427
				c-0.051,0.553-0.131,1.095-0.191,1.632c-0.054,0.539-0.121,1.068-0.264,1.571c-0.118,0.511-0.235,1.012-0.349,1.503
				c-0.111,0.494-0.319,0.945-0.468,1.408c-0.169,0.455-0.304,0.917-0.49,1.344c-0.205,0.419-0.405,0.829-0.6,1.228
				c-1.607,3.196-3.658,5.33-5.167,6.65c-0.757,0.662-1.43,1.065-1.848,1.395c-0.431,0.314-0.655,0.479-0.655,0.479
				s0.247-0.125,0.721-0.364c0.462-0.259,1.207-0.561,2.07-1.118c1.718-1.109,4.157-3.013,6.281-6.229
				c0.259-0.406,0.524-0.822,0.795-1.248c0.252-0.437,0.454-0.913,0.69-1.387c0.216-0.482,0.493-0.957,0.671-1.48
				c0.18-0.524,0.364-1.059,0.551-1.603c0.209-0.542,0.342-1.113,0.461-1.701c0.124-0.586,0.266-1.182,0.378-1.794
				c0.1-1.234,0.334-2.516,0.25-3.846c0.03-2.658-0.485-5.493-1.567-8.266c-0.292-0.685-0.51-1.416-0.915-2.067
				c-0.328-0.593-0.66-1.191-0.995-1.795c-0.054-0.128-0.07-0.196-0.069-0.217c-0.027-0.029,0.102,0.018,0.143,0.037
				c0.053,0.023,0.083,0.044,0.099,0.058l0.01,0.01l0.003,0.004l0.001,0.002l0.129,0.053c0.418,0.179,0.852,0.325,1.26,0.536
				c0.837,0.375,1.639,0.841,2.422,1.342c5.641,3.594,8.58,10.105,8.544,15.902c0.001,2.922-0.751,5.682-1.913,8.041
				c-1.199,2.349-2.831,4.274-4.605,5.709c-1.789,1.417-3.685,2.372-5.447,2.952c-1.765,0.586-3.386,0.802-4.714,0.899
				c-0.666,0.048-1.262,0.067-1.779,0.044c-0.518-0.001-0.958-0.015-1.311-0.055c-0.711-0.058-1.085-0.088-1.085-0.088
				s0.365,0.09,1.059,0.262c0.347,0.096,0.783,0.178,1.303,0.258c0.519,0.101,1.123,0.171,1.81,0.219
				c1.369,0.095,3.083,0.103,5.042-0.284c1.953-0.382,4.146-1.17,6.315-2.542c2.149-1.389,4.234-3.396,5.852-6.001
				c1.58-2.611,2.716-5.801,2.927-9.286c0.218-3.471-0.443-7.204-2.078-10.631c-1.588-3.439-4.272-6.644-7.679-8.828
				c-0.955-0.613-1.937-1.173-2.962-1.624c-0.502-0.249-1.032-0.428-1.547-0.636c-0.075-0.027-0.105-0.046-0.223-0.081l-0.356-0.104
				l-0.709-0.208c-0.468-0.128-0.951-0.298-1.402-0.391l-1.333-0.237l-0.662-0.118c-0.209-0.026-0.402-0.034-0.603-0.052
				c-0.796-0.062-1.588-0.127-2.35-0.158c-0.798-0.04-1.593-0.08-2.383-0.12c-0.921-0.053-1.337-0.046-1.928-0.054
				C317.627,72.006,318.847,73.092,319.963,74.308z"/>
			<path d="M276.32,101.445c0.157-0.88,0.313-1.751,0.466-2.613l0.044-0.259l0.007-0.075l0.015-0.156l0.035-0.335
				c0.03-0.258,0.059-0.513,0.088-0.764c0.013-0.051,0.007-0.18,0.036-0.17l0.106,0.099l0.227,0.215
				c0.157,0.152,0.297,0.341,0.463,0.534c0.085,0.096,0.149,0.209,0.23,0.324c0.158,0.256,0.315,0.511,0.47,0.763
				c2.514,4.466,3.242,9.144,3.175,12.922c-0.094,3.812-1.005,6.779-1.784,8.709c-0.208,0.48-0.368,0.919-0.548,1.277
				c-0.186,0.356-0.344,0.656-0.47,0.897c-0.253,0.486-0.385,0.738-0.385,0.738s0.16-0.234,0.469-0.687
				c0.155-0.228,0.347-0.51,0.574-0.845c0.222-0.339,0.431-0.76,0.693-1.223c0.997-1.863,2.253-4.799,2.715-8.78
				c0.426-3.942,0.098-8.988-2.322-14.108c-0.173-0.332-0.347-0.666-0.523-1.002c-0.252-0.477-0.526-0.964-0.838-1.382
				c-0.622-0.855-1.224-1.753-1.926-2.647c-0.356-0.45-0.715-0.903-1.076-1.36l-0.55-0.695l-0.069-0.088
				c-0.013,0.012-0.019,0.057-0.029,0.085l-0.053,0.189l-0.106,0.381c-0.144,0.514-0.288,1.031-0.434,1.551
				c-0.144,0.539-0.305,1.015-0.434,1.664c-0.263,1.192-0.529,2.399-0.798,3.619c-0.086,0.373-0.172,0.747-0.259,1.124l-0.13,0.567
				l-0.033,0.142l-0.011,0.037l-0.02,0.062c-0.11,0.311-0.19,0.606-0.273,0.703c-0.09-0.19-0.18-0.383-0.272-0.578l-0.052-0.11
				c-0.004-0.013-0.025-0.044-0.015-0.04l-0.216-0.308c-0.354-0.501-0.711-1.004-1.069-1.511c-1.489-1.987-3.158-3.909-4.99-5.742
				c-3.684-3.64-8.064-6.887-13.012-9.361c-2.366-1.179-4.795-2.164-7.248-2.956l-12.898-4.16l11.112,7.746
				c7.321,5.103,12.603,12.131,15.652,19.182c1.565,3.523,2.515,7.081,3.101,10.458c0.542,3.388,0.68,6.606,0.551,9.533
				c-0.268,5.866-1.553,10.52-2.653,13.617c-0.261,0.784-0.539,1.461-0.779,2.05c-0.229,0.594-0.445,1.086-0.632,1.479
				c-0.36,0.793-0.548,1.208-0.548,1.208s0.236-0.391,0.687-1.137c0.232-0.371,0.503-0.839,0.797-1.407
				c0.305-0.563,0.658-1.215,1.003-1.975c1.431-3.003,3.209-7.611,3.977-13.677c0.377-3.026,0.486-6.403,0.149-10.023
				c-0.38-3.608-1.172-7.477-2.658-11.337c-1.583-4.234-3.942-8.507-7.06-12.445c2.818,1.79,5.412,3.821,7.742,6.012
				c1.737,1.656,3.338,3.391,4.785,5.187c0.35,0.458,0.697,0.914,1.043,1.367l0.306,0.407c0.181,0.241,0.319,0.469,0.477,0.717
				l0.915,1.44c1.23,1.899,2.338,3.76,3.429,5.547C275.24,107.12,275.786,104.252,276.32,101.445z"/>
			<path d="M351.657,166.523c-0.47-0.985-0.86-2.027-1.421-2.999c-0.275-0.51-0.552-1.024-0.83-1.54
				c-0.453-0.887-1.068-1.727-1.619-2.621c-0.57-0.888-1.144-1.781-1.72-2.678l-0.437-0.679l-0.219-0.341l-0.11-0.171
				c-0.027,0.037-0.05,0.112-0.075,0.166l-0.594,1.427c-0.399,0.984-0.8,1.865-1.21,2.964c-0.203,0.54-0.408,1.08-0.634,1.568
				l-0.508,1.159c-0.946,1.99-2.029,3.956-3.254,5.874c-1.25,1.902-2.636,3.752-4.157,5.524c-2.143,2.469-4.487,4.69-6.963,6.628
				c-0.608,0.499-1.248,0.949-1.88,1.401c-0.546,0.42-1.568,1.051-1.301,0.9c-0.056,0.055-0.202,0.212-0.189,0.046l-0.019-0.088
				l-0.009-0.052l-0.003-0.48c-0.003-0.767-0.006-1.529-0.009-2.285c-0.009-1.566-0.017-3.107-0.026-4.62
				c0.003-2.588,0.007-5.129,0.01-7.619c-0.001-1.184-0.002-2.355-0.003-3.514l-0.002-0.847l-0.001-0.419l-0.033-0.21l-0.139-0.78
				c-0.312,0.674-0.623,1.345-0.932,2.012c-0.362,0.758-0.722,1.511-1.081,2.261c-0.703,1.449-1.419,3.061-1.993,3.921
				c-0.298,0.506-0.595,1.01-0.89,1.51c-0.294,0.471-0.575,1.039-0.869,1.395c-0.405,0.493-0.804,0.979-1.199,1.46
				c-1.462,1.612-3.037,2.987-4.654,4.107c-3.256,2.213-6.568,3.436-9.365,4.038c-2.812,0.6-5.109,0.582-6.662,0.506
				c-0.776-0.053-1.367-0.158-1.77-0.197c-0.403-0.049-0.611-0.074-0.611-0.074s0.203,0.051,0.595,0.149
				c0.395,0.088,0.975,0.264,1.75,0.409c1.55,0.257,3.884,0.539,6.86,0.211c2.958-0.334,6.561-1.282,10.25-3.371
				c1.832-1.059,3.659-2.414,5.395-4.076l0.625-0.658c0.199-0.21,0.478-0.51,0.475-0.493c0.153-0.149,0.276-0.302,0.402-0.434
				c0.237-0.275,0.427-0.513,0.543-0.721l0.093-0.152l0.021-0.034l-0.009,0.093l-0.018,0.181c-0.022,0.215-0.045,0.432-0.068,0.652
				c-0.041,0.317-0.082,0.641-0.125,0.97c-0.054,1.405-0.109,2.836-0.165,4.29c-0.026,0.755-0.053,1.516-0.08,2.283
				c-0.034,1.329-0.068,2.668-0.103,4.017c-0.005,0.734-0.01,1.47-0.015,2.209l-0.007,1.117c-0.037,0.156,0.094,0.025,0.163-0.001
				l0.243-0.135l0.487-0.271c1.307-0.73,2.622-1.465,3.946-2.204c1.614-1.005,1.979-1.206,2.741-1.742
				c0.697-0.476,1.4-0.952,2.07-1.481c2.724-2.057,5.294-4.446,7.62-7.127c1.652-1.924,3.144-3.943,4.473-6.024
				c1.305-2.097,2.44-4.255,3.412-6.439l0.161-0.388l0.008-0.032l0.012-0.058l0.024-0.128c0.011-0.173,0.071-0.022,0.132,0.008
				c0.038,0.04,0.057,0.047,0.116,0.135c0.258,0.436,0.514,0.87,0.769,1.302c0.561,0.88,0.959,1.835,1.442,2.733
				c3.561,7.347,5.047,14.779,5.271,21.024c0.31,6.274-0.644,11.368-1.459,14.81c-0.225,0.861-0.425,1.625-0.598,2.288
				c-0.215,0.651-0.396,1.203-0.543,1.648c-0.292,0.896-0.445,1.366-0.445,1.366s0.21-0.448,0.609-1.301
				c0.199-0.429,0.445-0.959,0.735-1.586c0.248-0.646,0.533-1.391,0.855-2.229c0.346-0.835,0.609-1.799,0.931-2.85
				c0.348-1.045,0.594-2.212,0.882-3.466c0.325-1.249,0.459-2.619,0.715-4.062c0.072-0.728,0.145-1.477,0.221-2.245
				c0.036-0.385,0.072-0.776,0.109-1.172c0.012-0.397,0.025-0.798,0.037-1.205c0.158-3.254-0.047-6.847-0.691-10.647
				C354.501,174.545,353.394,170.532,351.657,166.523z"/>
			<path d="M181.637,182.88c-1.752,0.411-4.261,1.22-7.178,2.705c-2.915,1.476-6.194,3.72-9.251,6.882
				c-1.509,1.59-3.012,3.367-4.292,5.408c-0.346,0.493-0.634,1.029-0.942,1.559l-0.458,0.802l-0.091,0.159l-0.007,0.007
				l-0.013,0.012c-0.037,0.042-0.035,0.019-0.035,0.019v0c0,0,0,0.019-0.016,0.019c0,0-0.009-0.001-0.016-0.004l-0.394-0.782
				c-0.264-0.519-0.527-1.033-0.787-1.543c-0.529-1.016-1.048-2.013-1.557-2.99c-0.435-0.851-0.865-1.694-1.29-2.527
				c-0.227-0.434-0.45-0.903-0.671-1.289c-0.219-0.382-0.437-0.762-0.654-1.14c-0.213-0.37-0.424-0.738-0.634-1.103l-0.155-0.27
				c-0.053-0.049-0.1-0.29-0.159-0.096l-0.338,0.618c-0.431,0.797-0.856,1.583-1.275,2.357c-0.41,0.733-0.77,1.521-1.117,2.274
				c-0.172,0.372-0.352,0.745-0.489,1.118c-0.091,0.251-0.182,0.5-0.272,0.747c-0.639,1.85-1.048,3.624-1.295,5.251
				c-0.491,3.262-0.358,5.916-0.157,7.707c0.111,0.898,0.219,1.587,0.318,2.05c0.093,0.462,0.142,0.706,0.142,0.706
				s0.012-0.248,0.033-0.719c0.012-0.469,0.065-1.161,0.146-2.042c0.181-1.76,0.566-4.29,1.512-7.236
				c0.473-1.471,1.09-3.041,1.888-4.646l0.286-0.553c0.044-0.07,0.082-0.115,0.123-0.166c0.079-0.098,0.149-0.179,0.216-0.242
				c0.065-0.064,0.125-0.111,0.177-0.143l0.037-0.022c0.011-0.002,0.02,0.06,0.03,0.085l0.049,0.187l0.066,0.296l0.018,0.111
				c0.021,0.067-0.047-0.049,0.113,0.304c0.449,1.006,0.908,2.033,1.375,3.078c0.238,0.521,0.478,1.046,0.72,1.575
				c0.371,0.788,0.744,1.583,1.121,2.384c1.023,2.135,2.061,4.3,3.111,6.492l0.068,0.14c0.924-2.342,1.842-4.668,2.804-6.862
				l0.352-0.828l0.175-0.412c0.066-0.161,0.074-0.15,0.114-0.233l0.385-0.731c0.258-0.484,0.493-0.977,0.783-1.434
				c1.056-1.891,2.296-3.589,3.534-5.164c2.514-3.13,5.239-5.609,7.741-7.431c2.498-1.829,4.727-3.084,6.321-3.844
				c0.785-0.415,1.433-0.647,1.857-0.853c0.43-0.193,0.656-0.295,0.656-0.295s-0.243,0.044-0.706,0.127
				C183.203,182.558,182.502,182.639,181.637,182.88z"/>
			<path d="M348.319,130.926c1.278,2.791,3.197,5.508,5.376,8.073c2.182,2.561,4.378,4.772,6.224,6.846
				c1.856,2.069,3.392,4.025,4.525,5.792c1.128,1.766,1.869,3.33,2.296,4.457c0.21,0.564,0.37,1.012,0.458,1.321
				c0.099,0.308,0.151,0.471,0.151,0.471s0.008-0.17,0.023-0.494c0.022-0.327,0.02-0.806-0.007-1.431
				c-0.06-1.244-0.333-3.065-1.076-5.212c-0.743-2.142-1.974-4.574-3.641-7.025c-1.663-2.461-3.725-4.902-5.83-7.376
				c-2.099-2.471-4.024-4.792-5.456-7.061c-1.441-2.268-2.438-4.509-3.003-6.491c-0.559-1.982-0.71-3.699-0.68-4.896
				c0.02-0.598,0.045-1.072,0.09-1.389c0.033-0.322,0.05-0.492,0.05-0.492s-0.076,0.153-0.219,0.443
				c-0.154,0.29-0.338,0.733-0.551,1.326c-0.415,1.18-0.804,3.012-0.714,5.322C346.429,125.41,347.038,128.148,348.319,130.926z"/>
			<path d="M294.387,66.317c3.264,2.212,7.258,5.844,10.355,10.681c3.098,4.837,4.725,9.985,5.368,13.875
				c0.331,1.944,0.476,3.573,0.522,4.707c0.039,1.143,0.061,1.778,0.061,1.778s0.24-0.59,0.575-1.702
				c0.337-1.111,0.713-2.765,0.889-4.87c0.179-2.101,0.101-4.657-0.483-7.437c-0.578-2.774-1.704-5.76-3.482-8.561
				c-1.8-2.786-4.04-5.059-6.319-6.744c-2.28-1.693-4.569-2.834-6.553-3.55c-1.985-0.721-3.644-1.071-4.795-1.23
				c-1.15-0.162-1.786-0.19-1.786-0.19s0.568,0.286,1.59,0.799C291.341,64.39,292.76,65.203,294.387,66.317z"/>
			<path d="M205.583,156.566c0.568-1.123,1.154-2.009,1.578-2.622c0.444-0.608,0.693-0.949,0.693-0.949s-0.405,0.127-1.105,0.459
				c-0.692,0.339-1.688,0.897-2.763,1.83c-1.072,0.928-2.229,2.234-3.139,3.956c-0.452,0.875-0.88,1.908-1.003,3.199
				c-0.144,1.266,0.203,2.892,1.179,4.097c0.959,1.205,2.239,1.867,3.442,2.183c1.215,0.309,2.407,0.31,3.497,0.072
				c2.23-0.529,3.575-1.762,4.554-2.79c0.962-1.056,1.54-2,1.937-2.653c0.39-0.657,0.582-1.036,0.582-1.036s-0.37,0.208-1.031,0.581
				c-0.655,0.372-1.589,0.936-2.722,1.474c-1.106,0.527-2.517,1.031-3.759,0.996c-1.255-0.012-2.711-0.579-3.282-1.363
				c-0.285-0.374-0.448-0.766-0.479-1.385c-0.031-0.604,0.093-1.342,0.289-2.074C204.453,159.04,205.013,157.686,205.583,156.566z"
				/>
			<path d="M231.11,148.701c-1.652,2.417-3.206,4.265-4.352,5.479c-0.553,0.631-1.037,1.064-1.34,1.391
				c-0.31,0.319-0.474,0.486-0.474,0.486s0.2-0.12,0.581-0.347c0.373-0.239,0.961-0.55,1.649-1.044
				c1.415-0.94,3.377-2.46,5.524-4.672c2.148-2.205,4.417-5.165,6.307-8.843c1.893-3.666,3.341-8.078,3.861-12.871
				c0.475-4.797-0.038-9.413-1.138-13.389c-1.095-3.987-2.709-7.35-4.359-9.949c-1.647-2.605-3.256-4.495-4.448-5.706
				c-0.572-0.625-1.084-1.049-1.4-1.36c-0.326-0.301-0.498-0.459-0.498-0.459s0.125,0.198,0.364,0.573
				c0.229,0.382,0.615,0.905,1.026,1.636c0.872,1.423,2.014,3.55,3.135,6.256c2.266,5.378,4.133,13.345,3.242,21.976
				C237.893,136.488,234.431,143.902,231.11,148.701z"/>
		</g>
		<g>
			<path d="M110.074,238.49c0.132,0.303,0.31,0.581,0.505,0.828c0.089,0.212,0.187,0.424,0.305,0.638
				c0.382,0.71,1.005,1.398,1.676,1.873c1.373,0.973,2.789,1.35,4.054,1.806c1.921,0.654,3.792,1.238,5.567,1.753
				c0.889,0.249,1.752,0.49,2.583,0.723c0.787,0.21,1.85,0.504,1.87,0.445l0.082,0.131c0.033,0.062,0.057,0.094,0.132,0.288
				c0.128,0.308,0.252,0.608,0.374,0.902c0.17,0.4,0.339,0.76,0.507,1.125c0.448,1.807,1.13,3.59,2.033,5.346
				c5.291,17.511,21.104,57.376,59.665,78.419c1.753-0.639,3.509-1.29,5.266-1.95c-0.903-0.328-1.814-0.649-2.698-0.991
				c-1.012-0.355-2.053-0.734-3.142-1.17c-1.581-0.581-3.219-1.294-4.93-2.04c-0.428-0.276-0.854-0.556-1.278-0.838
				c-1.325-0.882-2.635-1.79-3.923-2.736c-1.057-0.776-2.099-1.58-3.131-2.399c2.756,1.593,5.461,3.043,8.026,4.332
				c1.986,0.946,3.86,1.881,5.665,2.647c1.783,0.816,3.474,1.507,5.022,2.132c0.533,0.227,1.046,0.431,1.548,0.627
				c1.22-0.461,2.44-0.925,3.661-1.393c-6.702-2.015-13.005-4.429-18.725-7.166c-3.167-1.448-6.502-3.141-9.875-5.115
				c-0.272-0.243-0.545-0.485-0.815-0.731c-0.784-0.714-1.561-1.439-2.329-2.179c-1.028-0.991-2.039-2.009-3.036-3.047
				c1.546,1.091,3.136,2.176,4.807,3.233c4.339,2.701,8.641,4.997,12.623,6.954c2.012,0.935,3.91,1.861,5.737,2.616
				c1.806,0.807,3.517,1.488,5.084,2.104c1.556,0.646,2.996,1.142,4.25,1.611c1.252,0.476,2.343,0.852,3.239,1.148
				c0.097,0.033,0.185,0.063,0.274,0.094c1.486-0.573,2.973-1.151,4.46-1.733c-10.29-2.488-19.863-5.884-28.123-9.978
				c-0.251-0.124-0.488-0.254-0.737-0.379c-3.045-1.46-6.201-3.128-9.358-5.067c-1.585-0.99-3.087-2.021-4.549-3.065
				c-0.256-0.283-0.514-0.565-0.768-0.852c-0.512-0.577-1.017-1.163-1.52-1.753c-0.776-0.91-1.543-1.834-2.298-2.775
				c3.013,2.379,6.352,4.774,9.998,7.052c4.382,2.691,8.729,4.966,12.753,6.902c2.032,0.924,3.95,1.84,5.795,2.584
				c1.824,0.796,3.551,1.468,5.133,2.076c1.571,0.637,3.024,1.126,4.29,1.589c1.264,0.469,2.364,0.84,3.267,1.133
				c0.555,0.186,1.023,0.344,1.42,0.477c1.979,0.544,3.982,1.062,6.019,1.539c1.718-0.676,3.436-1.356,5.154-2.04
				c-2.242-0.436-4.502-0.917-6.776-1.451c-7.045-1.65-13.76-3.718-19.987-6.121c-1.179-0.431-2.386-0.892-3.634-1.364
				c-4.456-1.797-9.277-4.009-14.097-6.788c-3.966-2.329-7.585-4.873-10.795-7.451c-0.342-0.444-0.685-0.885-1.022-1.335
				c-0.35-0.467-0.694-0.943-1.039-1.418c-0.21-0.289-0.425-0.572-0.633-0.864c-0.25-0.35-0.474-0.699-0.719-1.048
				c0.756,0.649,1.536,1.302,2.33,1.98c3.706,2.957,7.982,5.948,12.704,8.721c4.744,2.735,9.452,5.007,13.803,6.927
				c2.197,0.91,4.27,1.818,6.261,2.542c1.97,0.78,3.833,1.435,5.539,2.022c1.696,0.619,3.259,1.09,4.623,1.536
				c0.791,0.263,1.513,0.49,2.177,0.692c1.544,0.408,3.1,0.803,4.678,1.173c2.689,0.631,5.355,1.186,7.997,1.686
				c1.743-0.696,3.486-1.395,5.227-2.095c-5.168-0.81-10.486-1.862-15.887-3.217c-0.871-0.216-1.729-0.447-2.59-0.675
				c-7.36-1.76-15.774-4.308-24.364-8.14c-2.642-1.188-5.181-2.459-7.609-3.79c-6.444-3.34-11.867-7.247-16.095-11.121
				c-0.062-0.092-0.128-0.184-0.19-0.277c-0.268-0.399-0.546-0.798-0.806-1.197c-0.506-0.774-0.982-1.543-1.463-2.313
				c2.697,2.505,5.889,5.086,9.524,7.599c5.019,3.452,10.893,6.717,17.31,9.603c12.868,5.743,25.313,8.989,34.344,11.006
				c3.768,0.83,6.946,1.451,9.384,1.893c1.598-0.644,3.195-1.288,4.79-1.932c0.491-0.198,0.98-0.395,1.47-0.593
				c-5.578-0.656-11.398-1.55-17.372-2.781c-0.072-0.013-0.14-0.024-0.212-0.036c-9.146-1.629-21.829-4.448-34.925-10.205
				c-3.261-1.452-6.379-3.021-9.315-4.673c-2.935-1.657-5.659-3.44-8.182-5.235c-3.054-2.22-5.768-4.506-8.115-6.756
				c-0.341-0.569-0.666-1.134-0.994-1.699c-0.208-0.359-0.429-0.722-0.632-1.08c-0.081-0.142-0.171-0.287-0.251-0.429
				c2.93,2.897,6.556,5.917,10.787,8.833c2.527,1.704,5.24,3.403,8.151,4.996c2.913,1.588,5.996,3.11,9.213,4.543
				c12.864,5.657,25.287,8.85,34.318,10.877c6.529,1.371,12.878,2.358,18.93,3.079c1.668-0.673,3.329-1.342,4.986-2.007
				c-0.384-0.064-0.757-0.129-1.088-0.198c-0.515-0.105-0.955-0.209-1.322-0.303c-0.068-0.005-0.133-0.009-0.201-0.014
				c-9.58-0.748-20.091-2.149-30.901-4.703c-4.259-1.004-8.394-2.164-12.378-3.456c-4.844-1.491-9.939-3.328-15.1-5.63
				c-3.255-1.471-6.367-3.059-9.296-4.73c-2.927-1.676-5.642-3.479-8.154-5.293c-3.372-2.49-6.316-5.061-8.804-7.577
				c-0.329-0.602-0.662-1.206-0.976-1.801c-0.185-0.351-0.367-0.699-0.547-1.047c-0.025-0.048-0.047-0.094-0.071-0.142
				c2.976,3.085,6.751,6.322,11.202,9.441c2.516,1.723,5.219,3.442,8.123,5.053c2.906,1.606,5.982,3.147,9.194,4.599
				c12.892,5.753,25.356,9.013,34.391,11.091c2.816,0.637,5.308,1.159,7.405,1.576c5.519,0.865,10.877,1.49,15.968,1.928
				c0.686,0.059,1.356,0.107,2.032,0.16c0.993-0.057,2.18-0.115,3.477-0.14c2.035-0.814,4.061-1.619,6.077-2.413
				c-1.076-0.006-2.235-0.044-3.457-0.145c-2.787-0.228-5.255-0.693-6.963-1.079c-10.085-0.918-21.221-2.563-32.767-5.39
				c-1.127-0.225-2.329-0.475-3.618-0.76c-4.018-0.881-8.774-2.089-13.968-3.747c-5.19-1.659-10.822-3.781-16.482-6.577
				c-5.66-2.789-10.783-6.018-15.061-9.439c-2.4-1.906-4.515-3.869-6.376-5.793c-0.276-0.554-0.565-1.114-0.828-1.66
				c-0.141-0.292-0.265-0.571-0.402-0.861c-0.069-0.145-0.134-0.287-0.201-0.431c2.397,2.487,5.271,5.116,8.653,7.651
				c4.293,3.237,9.368,6.316,14.942,9.063c0.61,0.299,1.218,0.59,1.826,0.876c0.261,0.122,0.52,0.244,0.783,0.365
				c0.402,0.187,0.803,0.371,1.204,0.553c8.708,3.88,18.672,7.222,29.333,9.87c11.437,2.826,22.479,4.537,32.505,5.556
				c1.747-0.06,4.49-0.082,7.552,0.168c2.26,0.187,4.323,0.48,5.941,0.753c1.773-0.693,3.538-1.376,5.294-2.047
				c-2.196-0.119-4.205-0.325-5.9-0.549c-4.326-0.157-8.931-0.47-13.758-0.991c-9.858-1.057-20.626-2.925-31.726-5.708
				c-3.742-0.962-7.407-1.953-10.979-3.001c-7.124-1.869-15.707-4.556-24.475-8.794c-0.508-0.251-1.005-0.509-1.504-0.767
				c-0.125-0.051-0.252-0.102-0.377-0.152c-2.149-0.975-4.196-2.013-6.071-3.189c-3.645-2.24-6.749-4.765-9.396-7.278
				c-0.235-0.201-0.484-0.413-0.716-0.611c-1.015-0.804-1.832-1.773-2.704-2.614c-0.518-0.547-1.049-1.055-1.549-1.572
				c-0.138-0.307-0.259-0.599-0.393-0.902c-0.139-0.315-0.274-0.627-0.409-0.939c-0.138-0.32-0.287-0.649-0.42-0.964
				c0.355,0.392,0.695,0.768,1.065,1.177c0.73,0.834,1.634,1.565,2.486,2.397c0.891,0.793,1.722,1.711,2.749,2.467
				c0.992,0.794,2.012,1.611,3.058,2.448c4.312,3.187,9.344,6.282,14.902,9.027c11.171,5.402,22.018,8.671,29.861,10.936
				c3.931,1.122,7.13,1.984,9.345,2.563c0.051,0.014,0.095,0.025,0.145,0.039c9.497,2.204,18.679,3.772,27.183,4.751
				c2.873,0.332,5.658,0.587,8.363,0.787c-0.122-0.026-0.203-0.044-0.203-0.044s1.643-0.046,4.281-0.064
				c2.639-0.017,6.269-0.029,10.269,0.012c0.302,0.005,0.594,0.009,0.891,0.014c2.662-0.997,5.302-1.962,7.918-2.889
				c-2.774,0.293-6.439,0.565-10.479,0.553c-4.181-0.014-7.966-0.343-10.767-0.7c-3.453-0.187-7.064-0.48-10.804-0.909
				c-4.997-0.557-10.212-1.384-15.589-2.395c-3.189-0.641-6.44-1.36-9.723-2.153c-0.745-0.129-1.506-0.264-2.304-0.411
				c-9.195-1.695-21.914-4.633-35.143-10.256c-0.655-0.279-1.3-0.566-1.944-0.854c-1.872-0.769-3.667-1.621-5.432-2.415
				c-2.11-1.114-4.206-2.105-6.102-3.304c-3.897-2.217-7.208-4.787-10.137-7.212c-0.694-0.652-1.371-1.289-2.031-1.909
				c-0.648-0.632-1.333-1.194-1.88-1.857c-0.047-0.052-0.09-0.1-0.136-0.152c-0.021-0.049-0.04-0.096-0.06-0.145
				c-0.104-0.249-0.193-0.48-0.295-0.726c-0.217-0.527-0.427-1.045-0.632-1.557c3.031,3.127,6.962,6.34,11.613,9.387
				c5.137,3.35,11.153,6.454,17.678,9.238c5.6,2.381,11.095,4.347,16.264,5.984c1.88,0.483,3.778,0.955,5.715,1.39
				c0.696,0.161,1.394,0.323,2.095,0.486c0.681,0.198,1.364,0.397,2.049,0.596c1.372,0.393,2.747,0.814,4.142,1.191
				c4.053,1.118,8.064,2.095,12.005,2.967c1.212,0.249,2.294,0.465,3.222,0.645c2.568,0.495,3.989,0.768,3.989,0.768
				s-0.3-0.038-0.845-0.108c4.659,0.864,9.197,1.596,13.561,2.116c2.66,0.326,5.249,0.581,7.769,0.782
				c0.72-0.013,1.613-0.029,2.649-0.048c2.844-0.035,6.757-0.091,11.077-0.076c4.32,0.012,8.238,0.106,11.083,0.199
				c0.64,0.021,1.217,0.042,1.736,0.063c17.832-6.196,34.461-10.479,49.054-10.479c1.192,0,2.346,0.032,3.513,0.054
				c0.164-0.054,0.323-0.109,0.492-0.163c2.692-0.854,4.972-1.277,4.972-1.277s-1.561,0.718-3.724,1.467
				c4.75,0.133,9.273,0.452,13.604,0.91c0.145-0.078,0.284-0.152,0.455-0.244c1.022-0.536,2.48-1.353,4.254-2.405
				c3.469-2.053,8.115-5.104,12.756-9.089c-0.27,0.479-0.556,0.964-0.835,1.446c-4.285,3.502-8.537,6.122-11.778,7.891
				c-1.815,0.992-3.308,1.747-4.355,2.236c-0.141,0.067-0.251,0.119-0.374,0.177c1.467,0.156,2.917,0.325,4.336,0.514
				c0.465-0.295,0.952-0.608,1.485-0.957c2.397-1.566,5.425-3.714,8.593-6.368c-0.288,0.465-0.567,0.928-0.864,1.395
				c-2.779,2.177-5.426,3.926-7.576,5.215c-0.457,0.275-0.884,0.525-1.293,0.763c1.021,0.138,2.043,0.276,3.04,0.43
				c1.031-0.757,2.124-1.591,3.256-2.499c-0.307,0.45-0.627,0.899-0.942,1.35c-0.593,0.437-1.167,0.844-1.731,1.237
				c1.18,0.187,2.328,0.395,3.474,0.603c10.731-14.988,17.075-29.987,20.453-39.68c1.724-2.755,2.885-5.588,3.46-8.474
				c0.017-0.038,0.033-0.07,0.049-0.109c0.122-0.293,0.246-0.594,0.374-0.902c0.074-0.194,0.099-0.226,0.132-0.288l0.082-0.131
				c0.021,0.059,1.083-0.236,1.87-0.445c0.831-0.233,1.694-0.474,2.583-0.723c1.774-0.516,3.645-1.099,5.566-1.753
				c1.265-0.456,2.681-0.832,4.054-1.806c0.671-0.475,1.294-1.163,1.676-1.873c0.118-0.214,0.216-0.427,0.305-0.638
				c0.195-0.247,0.373-0.525,0.505-0.828c0.259-0.599,0.371-1.183,0.434-1.741c0.117-1.105,0.018-2.174-0.022-3.106
				c-0.04-0.982-0.086-2.014-0.156-3.056c-0.139-2.088-0.356-4.255-0.739-6.477c-0.397-2.222-0.886-4.395-1.893-6.506
				c-0.252-0.526-0.571-1.053-0.961-1.563c-0.426-0.5-0.903-1.029-1.676-1.365c-0.728-0.348-1.696-0.397-2.378-0.145
				c-0.726,0.211-1.241,0.585-1.694,0.947c-0.906,0.784-1.431,1.477-2.039,2.146c-0.592,0.678-1.166,1.336-1.722,1.973
				c-1.097,1.284-2.12,2.482-3.055,3.575c-2.792,3.314-4.721,5.731-5.503,6.723c-5.59-8.13-16.119-15.547-30.972-21.62
				c-6.279-2.567-13.146-4.802-20.45-6.71c0.593,1.082,1.106,2.223,1.516,3.436c1.034,0.316,2.078,0.626,3.085,0.956l43.104,32.14
				c0.518,1.854,0.793,3.738,0.793,5.65c0,1.607-0.191,3.196-0.56,4.763l-45.363-33.825c0.011,0.85,0.016,1.722,0.016,2.596
				l44.73,33.352c-0.859,2.507-2.173,4.953-3.917,7.319l-41.008-30.578c-0.065,0.786-0.182,1.562-0.349,2.325l40.072,29.88
				c-1.671,2.008-3.645,3.957-5.91,5.833l-37.803-28.188c-0.44,0.537-0.911,1.048-1.412,1.531l37.538,27.99
				c-2.187,1.678-4.605,3.295-7.236,4.843l-37.767-28.161c-0.734,0.327-1.473,0.638-2.217,0.931l38.019,28.349
				c-2.574,1.425-5.329,2.788-8.257,4.081l-38.985-29.069c-0.756,0.293-1.499,0.598-2.232,0.92l39.016,29.092
				c-2.896,1.21-5.945,2.355-9.135,3.428l-37.566-28.011c-0.592,0.418-1.172,0.848-1.752,1.278l36.911,27.522
				c-3.187,1.014-6.506,1.957-9.94,2.827l-33.673-25.108c-0.047,0.038-0.096,0.077-0.143,0.115
				c-0.505,0.408-1.015,0.818-1.523,1.227l32.732,24.406c-3.466,0.825-7.042,1.576-10.721,2.245l-28.788-21.466
				c-0.592,0.421-1.185,0.841-1.792,1.248l27.775,20.71c-3.75,0.632-7.599,1.179-11.532,1.64l-24.029-17.917
				c-0.718,0.333-1.463,0.636-2.209,0.937l23.22,17.314c-4.055,0.424-8.193,0.757-12.405,0.989l-20.691-15.428
				c-0.943,0.178-1.89,0.336-2.842,0.466l20.281,15.122c-3.751,0.16-7.554,0.243-11.403,0.243c-0.675,0-1.346-0.006-2.018-0.011
				l-20.255-15.103c-1.416-0.137-2.825-0.324-4.221-0.563l20.947,15.619c-4.987-0.103-9.889-0.343-14.687-0.712l-85.471-63.731
				c1.74-1.964,3.777-3.867,6.089-5.699l39.63,29.55c-0.376-1.078-0.691-2.182-0.963-3.302l-36.959-27.558
				c2.236-1.646,4.698-3.231,7.366-4.746l28.618,21.339c0.029-0.677,0.066-1.536,0.106-2.505l-26.731-19.932
				c2.613-1.399,5.408-2.733,8.368-4l18.195,13.567c0-0.556,0.01-1.114,0.035-1.674c0.012-0.282,0.037-0.562,0.056-0.843
				l-16.063-11.977c2.93-1.187,6.015-2.306,9.233-3.355l8.526,6.358c0.219-0.688,0.462-1.37,0.721-2.047l-6.815-5.082
				c3.219-0.993,6.563-1.917,10.025-2.764l0.567,0.423c0.873-1.355,1.813-2.637,2.815-3.85c-11.665,2.35-22.447,5.483-31.917,9.355
				c-14.949,6.112-25.521,13.585-31.083,21.777c-0.684-0.87-2.67-3.371-5.627-6.88c-0.934-1.094-1.957-2.291-3.055-3.575
				c-0.556-0.637-1.13-1.295-1.721-1.973c-0.608-0.669-1.133-1.362-2.039-2.146c-0.453-0.361-0.968-0.736-1.694-0.947
				c-0.682-0.253-1.651-0.203-2.378,0.145c-0.772,0.335-1.25,0.865-1.676,1.365c-0.39,0.511-0.709,1.037-0.961,1.563
				c-1.007,2.111-1.496,4.284-1.893,6.506c-0.383,2.222-0.6,4.389-0.739,6.477c-0.07,1.042-0.116,2.074-0.156,3.056
				c-0.04,0.932-0.139,2.002-0.022,3.106C109.703,237.307,109.815,237.891,110.074,238.49z M175.803,280.616
				c-21.033-7.341-35.697-17.839-39.917-29.764L175.803,280.616z M135.007,247.613c-0.243-1.276-0.371-2.565-0.371-3.867
				c0-2.028,0.302-4.027,0.885-5.989l66.72,49.75c-7.184-1.336-13.98-2.979-20.291-4.891L135.007,247.613z M274.066,299.272
				c-2.095,0.208-4.66,0.425-7.632,0.6c-0.878,0.122-2.61,0.344-4.991,0.554c-3.496,0.31-8.35,0.545-13.704,0.36
				c-5.354-0.189-10.175-0.746-13.645-1.254c-0.351-0.052-0.679-0.102-1.002-0.151c-10.477-0.828-22.112-2.376-34.23-5.036
				c-1.963-0.375-4.067-0.806-6.284-1.301c1.14,0.232,2.294,0.454,3.459,0.669c4.385,0.809,8.948,1.501,13.686,2.076
				c0.809,0.098,1.619,0.196,2.439,0.287c7.149,1.185,14.027,2.028,20.472,2.605c0.48,0.011,0.983,0.023,1.531,0.035
				c3.513,0.112,8.327,0.265,13.631,0.433c7.051,0.23,13.258,0.432,16.623,0.542c3.829-0.128,7.082-0.338,9.635-0.545
				c4.274-0.359,6.627-0.666,6.627-0.666S278.336,298.836,274.066,299.272z M351.585,278.168c-0.083,0.073-0.161,0.147-0.245,0.22
				c-4.798,4.108-9.689,7.106-13.316,9.054c-1.816,0.976-3.31,1.718-4.357,2.198c-1.042,0.484-1.622,0.753-1.622,0.753
				s0.565-0.298,1.582-0.833c1.023-0.527,2.481-1.332,4.256-2.368c3.549-2.069,8.327-5.166,13.083-9.239
				c0.455-0.394,0.892-0.791,1.328-1.188C352.058,277.233,351.831,277.694,351.585,278.168z M352.895,275.577
				c-0.264,0.228-0.517,0.46-0.788,0.685c-2.696,2.208-5.44,4.081-8.001,5.669c-2.579,1.56-4.969,2.846-7.02,3.834
				c-2.046,0.997-3.728,1.748-4.904,2.23c-1.172,0.487-1.823,0.758-1.823,0.758s0.638-0.3,1.787-0.84
				c1.154-0.531,2.804-1.346,4.811-2.404c2.012-1.05,4.358-2.393,6.893-3.989c2.518-1.624,5.219-3.512,7.892-5.7
				c0.615-0.512,1.209-1.029,1.791-1.549C353.324,274.704,353.113,275.137,352.895,275.577z M381.877,221.615
				c0.411,1.119,0.872,2.581,1.258,4.246c0.142,0.612,0.274,1.249,0.388,1.909c0.423,2.459,0.53,4.721,0.514,6.351
				c-0.015,1.631-0.12,2.634-0.12,2.634s-0.115-1.037-0.29-2.612c-0.086-0.738-0.201-1.613-0.337-2.566
				c-0.16-1.123-0.351-2.359-0.576-3.668c-0.42-2.419-0.869-4.601-1.231-6.179c-0.364-1.542-0.603-2.557-0.603-2.557
				S381.316,220.083,381.877,221.615z M369.873,224.238c1.059-0.974,2.218-2.04,3.461-3.184c0.616-0.579,1.253-1.177,1.908-1.793
				c0.653-0.609,1.348-1.322,1.919-1.728c0.298-0.207,0.607-0.373,0.824-0.402c0.24-0.066,0.323-0.01,0.481,0.068
				c0.322,0.146,0.826,0.852,1.165,1.66c0.714,1.652,1.162,3.695,1.524,5.775c0.362,2.094,0.62,4.18,0.837,6.205
				c0.103,1.021,0.205,2.023,0.304,3.006c0.085,0.789,0.179,1.479,0.21,2.111c-0.116,0.404-0.234,0.808-0.379,1.216
				c-0.184,0.504-0.401,0.968-0.659,1.341c-0.09,0.129-0.191,0.231-0.291,0.337c-0.355,0.251-0.745,0.489-1.138,0.715
				c-0.227,0.128-0.466,0.262-0.707,0.397c-0.655,0.252-1.402,0.488-2.198,0.762c-1.921,0.654-3.759,1.335-5.479,2.01
				c-0.856,0.346-1.687,0.681-2.487,1.004c-0.457,0.188-0.819,0.345-1.286,0.54c0.004-0.178,0.016-0.355,0.016-0.533
				c0-4.725-1.558-9.339-4.562-13.746C364.287,229.194,366.641,227.171,369.873,224.238z M323.04,208.291
				c17.752,6.785,30.397,15.92,35.182,26.233L323.04,208.291z M362.411,243.746c0-11.123-8.227-21.642-23.418-30.258
				c16.76,8.245,26.834,18.785,26.834,30.258c0,3.822-1.124,7.538-3.234,11.103c-2.351,3.376-5.831,7.394-10.911,11.528
				c-3.624,2.709-7.878,5.26-12.681,7.624C354.187,265.385,362.411,254.867,362.411,243.746z M322.87,288.038
				c3.025-1.033,6.572-2.416,10.45-4.08c3.852-1.723,8.025-3.762,12.192-6.276c3.628-2.231,6.889-4.66,9.749-7.124
				c-0.166,0.37-0.318,0.725-0.491,1.102c-2.657,2.265-5.657,4.481-8.959,6.512c-4.196,2.533-8.41,4.551-12.299,6.231
				c-3.915,1.622-7.497,2.94-10.549,3.908c-1.516,0.515-2.907,0.919-4.125,1.284c-1.216,0.372-2.269,0.671-3.134,0.9
				c-1.725,0.47-2.681,0.73-2.681,0.73s0.947-0.291,2.656-0.816c0.857-0.255,1.901-0.584,3.105-0.988
				C319.99,289.024,321.369,288.586,322.87,288.038z M246.35,293.958c10.061,0.124,19.639-0.44,28.323-1.183
				c2.169-0.218,4.284-0.431,6.339-0.638c2.056-0.205,4.033-0.543,5.957-0.791c1.917-0.287,3.786-0.476,5.554-0.812
				c1.772-0.321,3.473-0.629,5.096-0.923c3.264-0.521,6.154-1.276,8.718-1.837c1.28-0.293,2.471-0.565,3.567-0.816
				c1.082-0.304,2.071-0.582,2.96-0.833c3.565-0.993,5.537-1.542,5.537-1.542s-1.939,0.658-5.445,1.848
				c-0.879,0.296-1.855,0.624-2.924,0.984c-1.086,0.303-2.266,0.633-3.533,0.986c-2.543,0.68-5.417,1.563-8.671,2.212
				c-1.621,0.355-3.318,0.728-5.087,1.116c-1.768,0.4-3.636,0.652-5.556,1c-1.926,0.309-3.909,0.707-5.971,0.968
				c-2.063,0.258-4.187,0.524-6.364,0.796c-8.724,0.941-18.373,1.636-28.509,1.512c-10.13-0.095-19.785-0.638-28.492-1.775
				c-1.089-0.13-2.168-0.238-3.227-0.383c-1.057-0.162-2.1-0.323-3.128-0.481c-2.054-0.325-4.052-0.61-5.973-0.946
				c-1.914-0.378-3.763-0.743-5.54-1.095c-0.888-0.177-1.758-0.35-2.609-0.52c-0.844-0.206-1.669-0.407-2.475-0.603
				c-3.223-0.788-6.143-1.472-8.655-2.279c-2.52-0.77-4.711-1.352-6.44-2.029c-3.482-1.259-5.408-1.955-5.408-1.955
				s1.961,0.588,5.505,1.65c1.754,0.584,3.971,1.057,6.512,1.708c2.532,0.688,5.47,1.245,8.703,1.904
				c0.808,0.165,1.635,0.334,2.481,0.507c0.853,0.138,1.724,0.279,2.613,0.424c1.777,0.291,3.625,0.593,5.539,0.906
				c1.92,0.275,3.914,0.501,5.962,0.769c1.024,0.131,2.064,0.264,3.117,0.399c1.055,0.119,2.13,0.201,3.214,0.306
				C226.707,293.453,236.296,293.863,246.35,293.958z M223.339,290.415c-5.694-0.527-11.228-1.237-16.567-2.114l-70.531-52.591
				c0.978-2.435,2.39-4.807,4.206-7.103L223.339,290.415z M155.984,213.486c-15.192,8.616-23.42,19.136-23.42,30.26
				c0,11.121,8.225,21.64,23.411,30.256c-5.744-2.826-10.698-5.922-14.734-9.233c-3.211-2.803-5.693-5.518-7.611-7.98
				c-2.92-4.148-4.484-8.523-4.484-13.043C129.148,232.273,139.222,221.732,155.984,213.486z M115.109,218.86
				c0.339-0.809,0.843-1.514,1.165-1.66c0.159-0.077,0.242-0.134,0.481-0.068c0.218,0.028,0.527,0.195,0.825,0.402
				c0.571,0.406,1.267,1.119,1.919,1.728c0.656,0.616,1.293,1.214,1.908,1.793c1.243,1.144,2.402,2.21,3.461,3.184
				c3.415,3.099,5.849,5.181,6.682,5.887c-2.949,4.369-4.475,8.942-4.475,13.622c0,0.211,0.012,0.421,0.019,0.631
				c-0.591-0.243-0.991-0.419-1.523-0.638c-0.8-0.323-1.631-0.658-2.487-1.004c-1.72-0.675-3.558-1.355-5.479-2.01
				c-0.795-0.274-1.543-0.51-2.197-0.762c-0.241-0.135-0.48-0.269-0.707-0.397c-0.392-0.226-0.783-0.464-1.138-0.715
				c-0.1-0.106-0.201-0.209-0.291-0.337c-0.258-0.373-0.475-0.837-0.659-1.341c-0.145-0.408-0.263-0.812-0.379-1.216
				c0.031-0.632,0.125-1.322,0.21-2.111c0.099-0.982,0.201-1.985,0.304-3.006c0.217-2.025,0.476-4.112,0.837-6.205
				C113.948,222.554,114.396,220.512,115.109,218.86z M111.329,226.443c0.001-0.008,0.003-0.015,0.005-0.022
				c0.393-2.279,1.044-4.278,1.608-5.677c0.566-1.407,1.011-2.231,1.011-2.231s-0.248,0.941-0.621,2.358
				c-0.368,1.456-0.811,3.471-1.195,5.711c-0.319,1.88-0.541,3.602-0.686,4.998c-0.028,0.268-0.058,0.545-0.08,0.786
				c-0.117,1.461-0.195,2.43-0.195,2.43s-0.147-0.925-0.215-2.441C110.892,230.842,110.94,228.732,111.329,226.443z"/>
			<g>
				<path d="M314.302,210.787c0.006-1.903-0.289-3.83-0.917-5.712c-3.07-9.198-11.794-14.462-19.922-18.399
					c-12.169-5.894-26.611-8.876-41.745-8.649c-18.827,0.292-52.074,4.694-63.2,30.888c-1.779,4.188-2.783,8.61-2.983,13.142
					c-0.105,2.374,0.016,4.709,0.344,6.982c-0.141,3.413-0.274,6.622-0.344,8.202c-0.551,12.437,5.017,23.85,14.895,30.529
					c8.673,5.865,19.522,8.915,30.416,8.915c6.598,0,13.212-1.12,19.367-3.409c8.363-3.113,14.889-8.389,21.201-13.492
					c3.835-3.101,7.801-6.307,12.144-8.997c3.289-2.038,6.913-3.309,10.749-4.653c4.044-1.417,8.226-2.883,11.97-5.331
					c4.66-3.047,7.648-8.2,7.993-13.787C314.31,226.384,314.597,216.321,314.302,210.787z M311.169,226.821
					c-0.285,4.613-2.75,8.866-6.592,11.378c-3.428,2.242-7.25,3.582-11.298,5.001c-3.824,1.34-7.779,2.727-11.357,4.944
					c-4.508,2.793-8.551,6.062-12.461,9.223c-6.399,5.173-12.444,10.061-20.331,12.995c-15.405,5.732-33.839,3.706-46.958-5.165
					c-3.045-2.059-5.627-4.626-7.706-7.55c0.993,0.983,2.106,1.975,3.342,2.919c0.616,0.469,1.234,0.897,1.849,1.304
					c0.852,0.624,1.737,1.238,2.677,1.823c2.326,1.421,4.676,2.541,6.865,3.408c2.202,0.84,4.235,1.444,5.969,1.821
					c0.858,0.218,1.655,0.335,2.346,0.459c0.69,0.129,1.291,0.203,1.783,0.252c0.978,0.101,1.523,0.158,1.523,0.158
					s-0.521-0.168-1.455-0.471c-0.469-0.142-1.039-0.324-1.691-0.567c-0.653-0.238-1.403-0.475-2.208-0.811
					c-1.627-0.612-3.52-1.439-5.575-2.425c-2.044-1.014-4.243-2.201-6.482-3.568c-0.88-0.548-1.723-1.103-2.545-1.658
					c-0.595-0.437-1.2-0.886-1.814-1.354c-2.966-2.268-5.56-4.461-7.413-6.15c-1.553-3.333-2.536-6.971-2.881-10.782
					c0.426,0.804,0.963,1.595,1.523,2.439c1.265,1.747,2.795,3.584,4.632,5.258c1.386,1.279,2.806,2.401,4.195,3.378
					c0.515,0.429,1.048,0.851,1.603,1.261c2.116,1.53,4.29,2.744,6.323,3.706c2.053,0.924,3.948,1.632,5.582,2.083
					c0.806,0.254,1.555,0.42,2.208,0.573c0.65,0.16,1.217,0.271,1.684,0.343c0.926,0.151,1.442,0.235,1.442,0.235
					s-0.485-0.194-1.354-0.543c-0.438-0.163-0.967-0.379-1.572-0.651c-0.608-0.264-1.303-0.547-2.048-0.915
					c-1.123-0.504-2.372-1.143-3.716-1.871c6.723,2.774,14.147,4.201,21.591,4.201c6.598,0,13.212-1.119,19.367-3.409
					c0.214-0.08,0.414-0.176,0.626-0.259c-3.814,2.021-7.507,3.409-10.793,4.19c-3.903,0.931-7.191,1.033-9.449,0.962
					c-1.13-0.036-2.001-0.177-2.599-0.217c-0.596-0.057-0.91-0.086-0.91-0.086s0.309,0.06,0.896,0.173
					c0.59,0.095,1.454,0.317,2.587,0.449c2.262,0.263,5.613,0.425,9.681-0.278c4.057-0.695,8.779-2.283,13.573-4.874
					c2.392-1.302,4.817-2.818,7.23-4.525c0.601-0.433,1.203-0.876,1.805-1.329c1.5-1.045,3.096-2.228,4.778-3.54
					c2.6-2.01,5.374-4.292,8.4-6.473c5.969-4.363,12.484-6.617,17.042-8.562c2.619-1.063,4.631-1.984,5.882-2.581
					c2.049-0.779,3.732-1.562,4.984-2.271c1-0.553,1.744-1.035,2.236-1.377c0.49-0.344,0.748-0.524,0.748-0.524
					s-0.274,0.155-0.794,0.449c-0.52,0.293-1.301,0.703-2.333,1.165c-2.059,0.944-5.156,1.993-9.095,2.925
					c-1.687,0.414-3.532,0.829-5.492,1.312c1.646-0.661,3.345-1.26,5.091-1.872c4.044-1.418,8.226-2.884,11.97-5.331
					c2.051-1.341,3.743-3.059,5.041-5.01C311.293,223.352,311.234,225.768,311.169,226.821z M189.706,215.088
					c0.433-1.685,0.986-3.342,1.673-4.96c10.438-24.574,42.315-28.714,60.388-28.994c0.538-0.008,1.073-0.013,1.609-0.013
					c14.068,0,27.428,2.877,38.732,8.351c7.175,3.476,14.822,8.019,17.882,15.422c0.158,0.382,0.314,0.766,0.447,1.163
					c0.076,0.227,0.133,0.455,0.197,0.683c0.34,1.208,0.52,2.431,0.548,3.646c0.117,4.981-2.29,9.806-6.606,12.627
					c-3.428,2.242-7.25,3.581-11.298,5.001c-3.824,1.34-7.779,2.726-11.357,4.943c-4.508,2.793-8.55,6.062-12.459,9.223
					c-6.4,5.174-12.445,10.062-20.332,12.996c-15.408,5.735-33.839,3.704-46.958-5.166c-7.187-4.86-11.854-12.499-13.173-21.176
					c-0.328-2.159-0.458-4.379-0.358-6.64c0.082-1.852,0.318-3.682,0.69-5.484C189.443,216.167,189.568,215.626,189.706,215.088z
					 M190.127,241.467c-0.093-0.126-0.2-0.252-0.286-0.379c-0.265-0.373-0.54-0.725-0.778-1.079
					c-0.156-0.249-0.301-0.482-0.449-0.717c-0.003-0.268,0.008-0.539,0.011-0.808C189.083,239.502,189.575,240.502,190.127,241.467z
					"/>
				<path d="M205.882,244.231c6.881,4.826,15.759,7.483,25.001,7.483h0.002c5.557,0,11.069-0.993,15.939-2.873
					c6.875-2.654,12.509-7.378,18.474-12.378c4.068-3.411,8.274-6.938,13.137-10.064c4.182-2.688,8.668-4.32,12.659-5.772
					c3.655-1.328,7.107-2.583,9.86-4.449c2.831-1.919,4.13-5.485,3.343-8.871c-0.054-0.232-0.089-0.465-0.163-0.695
					c-0.092-0.287-0.207-0.567-0.323-0.846c-0.23-0.556-0.504-1.096-0.817-1.62c-2.801-4.697-8.693-8.14-13.77-10.69
					c-10.793-5.42-23.797-8.178-37.355-7.961c-16.459,0.264-45.411,3.975-54.375,25.857c-0.375,0.916-0.69,1.85-0.972,2.792
					c-0.161,0.538-0.301,1.081-0.431,1.627c-0.127,0.534-0.231,1.073-0.329,1.614c-0.242,1.339-0.42,2.691-0.479,4.063
					C194.886,230.782,198.848,239.299,205.882,244.231z M197.354,221.537c0.065-1.503,0.261-2.986,0.561-4.446
					c0.112-0.546,0.254-1.085,0.398-1.623c0.148-0.548,0.306-1.094,0.488-1.633c0.191-0.57,0.382-1.139,0.611-1.697
					c8.514-20.782,36.542-24.315,52.491-24.571c0.5-0.008,0.999-0.012,1.498-0.012c12.728,0,24.795,2.681,34.894,7.752
					c4.383,2.202,9.402,5.083,12.168,8.774c0.387,0.516,0.728,1.048,1.018,1.596c0.266,0.502,0.498,1.014,0.67,1.543
					c0.003,0.009,0.008,0.018,0.011,0.028c0.872,2.711-0.102,5.678-2.371,7.216c-2.54,1.723-5.874,2.934-9.439,4.23
					c-4.06,1.477-8.661,3.151-13.037,5.965c-4.974,3.196-9.231,6.766-13.349,10.218c-5.829,4.888-11.335,9.504-17.889,12.034
					c-4.635,1.788-9.889,2.733-15.195,2.733c-8.819,0-17.276-2.524-23.811-7.107C200.619,238.01,196.986,230.161,197.354,221.537z"
					/>
				<path d="M216.445,238.814c4.958,0,8.992-3.664,8.992-8.169c0-4.505-4.034-8.169-8.992-8.169c-4.958,0-8.992,3.664-8.992,8.169
					C207.453,235.15,211.487,238.814,216.445,238.814z M216.445,224.548c3.27,0,6.01,2.011,6.73,4.701
					c-0.389-0.867-1.136-1.925-2.3-2.713c-1.26-0.846-2.646-1.139-3.612-1.131c-0.485,0-0.874,0.044-1.136,0.106
					c-0.253,0.057-0.404,0.09-0.404,0.09s0.153,0.014,0.41,0.038c0.261,0.014,0.637,0.074,1.083,0.173
					c0.898,0.194,2.068,0.645,3.199,1.403c1.126,0.764,1.984,1.68,2.5,2.44c0.182,0.265,0.319,0.49,0.431,0.691
					c0.006,0.1,0.017,0.199,0.017,0.3c0,0.585-0.1,1.15-0.275,1.686c-0.011-0.164-0.029-0.348-0.068-0.567
					c-0.123-0.724-0.507-1.726-1.28-2.582c-0.776-0.853-1.736-1.333-2.444-1.527c-0.714-0.199-1.167-0.181-1.167-0.181
					s0.415,0.187,1.001,0.556c0.589,0.367,1.319,0.951,2.003,1.702c0.68,0.755,1.19,1.538,1.498,2.16
					c0.154,0.307,0.266,0.568,0.342,0.753c-0.217,0.547-0.518,1.059-0.892,1.523c-0.013-0.083-0.029-0.178-0.051-0.292
					c-0.073-0.388-0.234-0.945-0.557-1.588c-0.616-1.268-2.085-2.915-4.323-3.472c-2.243-0.533-4.305,0.254-5.434,1.098
					c-0.582,0.423-0.982,0.843-1.224,1.155c-0.244,0.311-0.358,0.495-0.358,0.495s0.155-0.154,0.449-0.405
					c0.292-0.253,0.747-0.582,1.347-0.895c1.183-0.632,3.077-1.119,5.026-0.651c1.946,0.48,3.405,1.782,4.165,2.887
					c0.389,0.554,0.642,1.055,0.786,1.414c0.052,0.127,0.09,0.228,0.123,0.314c-0.527,0.636-1.189,1.178-1.95,1.595
					c0-0.017,0.001-0.029,0-0.047c-0.001-0.347-0.057-0.854-0.25-1.458c-0.358-1.185-1.462-2.828-3.406-3.493
					c-1.954-0.637-3.823,0.012-4.822,0.744c-0.517,0.367-0.867,0.739-1.076,1.015c-0.211,0.276-0.306,0.439-0.306,0.439
					s0.137-0.134,0.397-0.35c0.258-0.217,0.662-0.496,1.192-0.751c1.043-0.516,2.717-0.86,4.355-0.32
					c1.633,0.553,2.764,1.834,3.288,2.874c0.27,0.523,0.425,0.988,0.501,1.317c0.008,0.033,0.013,0.058,0.02,0.088
					c-1.035,0.544-2.239,0.863-3.53,0.863c-3.816,0-6.92-2.736-6.92-6.097c0-0.293,0.032-0.58,0.077-0.862
					c0.338-0.389,1.15-1.233,2.289-1.82c1.486-0.853,3.044-0.965,3.044-0.965s-0.352-0.174-0.99-0.246
					c-0.631-0.076-1.564,0.015-2.445,0.492c-0.845,0.462-1.408,1.154-1.699,1.715C210.634,226.415,213.294,224.548,216.445,224.548z
					"/>
				<path d="M227.816,233.234c-0.193,0.413-0.5,0.992-0.923,1.652c-0.839,1.324-2.229,2.927-4.082,4.174
					c-1.853,1.247-3.86,1.933-5.403,2.213c-0.77,0.144-1.422,0.21-1.877,0.234c-0.456,0.021-0.717,0.032-0.717,0.032
					s0.229,0.117,0.669,0.284c0.439,0.168,1.099,0.363,1.95,0.474c1.675,0.237,4.241-0.005,6.523-1.538
					c2.278-1.538,3.467-3.825,3.877-5.466c0.217-0.83,0.285-1.515,0.294-1.985c0.011-0.47-0.012-0.726-0.012-0.726
					S228.007,232.819,227.816,233.234z"/>
				<path d="M243.888,191.422c2.192,0.065,4.794,0.23,7.67,0.476c2.874,0.272,6.021,0.639,9.308,1.136
					c3.284,0.517,6.395,1.117,9.217,1.725c2.815,0.633,5.346,1.261,7.456,1.861c2.111,0.591,3.821,1.098,4.991,1.484
					c1.176,0.369,1.83,0.575,1.83,0.575s-0.611-0.311-1.71-0.871c-1.101-0.565-2.728-1.315-4.779-2.156
					c-2.048-0.849-4.541-1.734-7.36-2.566c-2.824-0.807-5.978-1.547-9.332-2.074c-3.357-0.509-6.587-0.755-9.523-0.838
					c-2.938-0.057-5.582,0.035-7.791,0.226c-2.209,0.183-3.986,0.407-5.207,0.614c-1.217,0.202-1.893,0.315-1.893,0.315
					s0.685,0.002,1.918,0.004C239.913,191.316,241.696,191.348,243.888,191.422z"/>
				<path d="M220.112,211.057c0.467,0.449,0.953,0.909,1.46,1.383c0.483,0.451,0.984,0.911,1.501,1.381
					c2.276,2.064,4.867,4.283,7.713,6.503c5.256,4.092,10.327,7.374,14.077,9.6c3.751,2.229,6.162,3.446,6.162,3.446
					s-2.148-1.65-5.587-4.294c-3.443-2.665-8.175-6.329-13.392-10.368c-2.325-1.824-4.544-3.564-6.604-5.179
					c-0.59-0.463-1.166-0.914-1.727-1.354c-0.592-0.465-1.168-0.916-1.723-1.351c-1.181-0.926-2.286-1.792-3.273-2.567
					c-3.404-2.689-5.529-4.368-5.529-4.368s1.77,2.04,4.848,5.132C218.668,209.656,219.371,210.344,220.112,211.057z"/>
				<path d="M246.055,209.564c0.228,0.165,0.45,0.328,0.681,0.493c0.41,0.293,0.813,0.577,1.218,0.863
					c9.161,6.466,16.912,10.867,16.912,10.867s-5.786-5.148-13.915-11.187c-0.607-0.451-1.227-0.906-1.859-1.365
					c-0.386-0.28-0.769-0.56-1.163-0.842c-0.245-0.176-0.485-0.344-0.729-0.516c-9.373-6.655-17.401-11.214-17.401-11.214
					s6.016,5.351,14.396,11.543C244.803,208.655,245.423,209.107,246.055,209.564z"/>
				<path d="M270.711,205.571c0.731,0.488,1.448,0.953,2.142,1.389c0.788,0.495,1.543,0.953,2.259,1.377
					c3.504,2.071,6.009,3.261,6.009,3.261s-1.447-1.414-3.835-3.427c-0.532-0.448-1.111-0.926-1.731-1.425
					c-0.572-0.46-1.177-0.937-1.815-1.426c-1.009-0.773-2.095-1.573-3.242-2.372c-6.191-4.313-11.795-6.97-11.795-6.97
					s4.433,4.337,10.624,8.65C269.793,204.953,270.254,205.266,270.711,205.571z"/>
				<path d="M280.627,217.917c-1.631,0.335-3.543,0.891-5.611,1.679c-2.055,0.815-4.257,1.88-6.424,3.243
					c-2.155,1.382-4.055,2.923-5.667,4.435c-1.592,1.537-2.909,3.031-3.906,4.365c-0.522,0.646-0.928,1.284-1.301,1.826
					c-0.377,0.539-0.67,1.025-0.9,1.429c-0.46,0.798-0.716,1.244-0.716,1.244s0.348-0.377,0.973-1.052
					c0.305-0.343,0.683-0.757,1.148-1.213c0.46-0.46,0.956-1.004,1.561-1.551c1.164-1.136,2.62-2.405,4.277-3.743
					c1.678-1.315,3.567-2.686,5.629-4.009c2.074-1.304,4.119-2.431,6.023-3.39c1.916-0.931,3.683-1.709,5.206-2.279
					c0.753-0.315,1.456-0.532,2.068-0.753c0.611-0.227,1.146-0.393,1.586-0.523c0.877-0.278,1.366-0.433,1.366-0.433
					s-0.512,0.043-1.43,0.119c-0.463,0.037-1.027,0.095-1.676,0.207C282.184,217.623,281.434,217.719,280.627,217.917z"/>
				<path d="M303.415,236.345c-1.984,0.847-4.906,1.936-8.558,3.182c-3.643,1.272-8.034,2.669-12.78,4.712
					c-2.365,1.032-4.82,2.23-7.23,3.751c-0.591,0.4-1.186,0.804-1.787,1.211c-0.575,0.448-1.154,0.9-1.737,1.355
					c-0.081,0.067-0.122,0.089-0.257,0.21l-0.239,0.252l-0.366,0.384l-0.733,0.774c-0.48,0.528-0.992,1.031-1.524,1.519
					c-4.154,4.018-8.813,7.07-13.295,9.344c-4.501,2.258-8.816,3.789-12.5,4.862c-3.69,1.07-6.748,1.71-8.861,2.149
					c-2.123,0.399-3.299,0.62-3.299,0.62s1.193-0.108,3.347-0.303c2.149-0.251,5.267-0.639,9.067-1.473
					c3.794-0.838,8.277-2.148,12.997-4.298c2.082-0.958,4.208-2.107,6.31-3.44c0.349-0.191,0.701-0.385,1.077-0.599
					c1.861-1.099,4.016-2.542,6.251-4.325c2.24-1.777,4.543-3.857,7.077-5.812c3.52-2.741,7.151-4.793,10.348-6.386
					c3.09-1.34,5.983-2.479,8.5-3.549c3.573-1.489,6.419-2.825,8.329-3.849c0.966-0.489,1.685-0.93,2.18-1.211
					c0.492-0.286,0.751-0.436,0.751-0.436s-0.273,0.123-0.792,0.358C305.171,235.577,304.419,235.945,303.415,236.345z"/>
				<path d="M303.655,231.887c-2.113,0.736-5.198,1.704-9.016,2.918c-3.807,1.238-8.382,2.684-13.231,5.001
					c-2.417,1.162-4.899,2.555-7.276,4.318l-0.876,0.689l-0.441,0.348l-0.221,0.174l-0.112,0.089
					c-0.026,0.014-0.147,0.135-0.157,0.142c-0.265,0.253-0.535,0.51-0.802,0.765c-1.775,1.363-3.425,2.735-4.941,4.03
					c-1.802,1.55-3.452,2.97-4.918,4.231c-7.415,5.303-14.958,8.738-21.045,10.307c-3.835,1.023-7.048,1.382-9.269,1.602
					c-2.233,0.106-3.469,0.164-3.469,0.164s1.233,0.082,3.481,0.155c2.242-0.029,5.518-0.133,9.491-0.925
					c7.932-1.499,18.535-6.145,27.897-14.277c1.165-1.014,2.31-2.025,3.387-3.074c0.234-0.229,0.465-0.454,0.698-0.682
					c0.827-0.604,1.665-1.21,2.527-1.817c5.471-3.908,11.066-6.39,15.164-8.193c2.676-1.164,4.655-2.077,5.721-2.577
					c3.147-1.236,5.716-2.281,7.527-3.091c1.029-0.445,1.814-0.825,2.347-1.076c0.533-0.253,0.812-0.386,0.812-0.386
					s-0.292,0.105-0.846,0.305C305.529,231.228,304.716,231.533,303.655,231.887z"/>
				<path d="M216.246,264.42c-0.628-0.251-1.348-0.51-2.119-0.862c-1.563-0.645-3.372-1.519-5.338-2.54
					c-1.951-1.055-4.047-2.281-6.165-3.693c-0.891-0.606-1.741-1.222-2.562-1.838c-0.324-0.258-0.649-0.519-0.977-0.787
					c-2.984-2.458-5.502-4.908-7.227-6.82c-0.863-0.952-1.555-1.746-2.007-2.314c-0.466-0.56-0.727-0.873-0.727-0.873
					s0.164,0.375,0.456,1.043c0.293,0.675,0.779,1.623,1.457,2.755c1.345,2.264,3.613,5.211,6.747,7.791
					c0.613,0.502,1.231,0.96,1.848,1.394c0.595,0.459,1.206,0.911,1.848,1.347c2.211,1.474,4.464,2.64,6.566,3.554
					c2.119,0.881,4.076,1.536,5.753,1.95c0.829,0.236,1.599,0.377,2.268,0.514c0.668,0.145,1.249,0.236,1.727,0.296
					c0.948,0.126,1.477,0.195,1.477,0.195s-0.501-0.181-1.399-0.506C217.42,264.876,216.872,264.677,216.246,264.42z"/>
				<path d="M242.658,209.94c-0.424-0.36-0.857-0.724-1.304-1.094c-0.117-0.097-0.231-0.189-0.347-0.285
					c-4.576-3.763-8.471-6.483-8.471-6.483s3.103,3.03,7.351,6.61c0.309,0.26,0.623,0.523,0.944,0.789
					c0.241,0.199,0.479,0.394,0.716,0.588c0.584,0.477,1.154,0.935,1.705,1.372c3.619,2.869,6.396,4.808,6.396,4.808
					s-2.18-2.128-5.382-4.92C243.755,210.878,243.218,210.415,242.658,209.94z"/>
				<path d="M254.914,218.607c-1.151-0.818-2.321-1.146-2.321-1.146s0.695,0.997,1.846,1.814c1.151,0.818,2.321,1.146,2.321,1.146
					S256.065,219.424,254.914,218.607z"/>
				<path d="M232.314,224.036c-3.057-2.542-5.766-4.917-7.701-6.671c-1.908-1.749-3.12-2.86-3.12-2.86s1.035,1.247,2.833,3.153
					c1.797,1.906,4.385,4.449,7.464,7.009c3.081,2.557,6.055,4.635,8.259,6.052c2.204,1.418,3.619,2.207,3.619,2.207
					s-1.314-0.987-3.384-2.542C238.205,228.802,235.374,226.575,232.314,224.036z"/>
				<path d="M265.529,206.029c0.565,0.465,1.187,0.934,1.846,1.399c0.298,0.21,0.585,0.423,0.9,0.629
					c0.414,0.268,0.823,0.505,1.231,0.743c1.777,1.033,3.471,1.792,4.784,2.275c1.617,0.596,2.651,0.846,2.651,0.846
					s-0.968-0.444-2.485-1.221c-1.008-0.514-2.259-1.205-3.612-2.014c-0.687-0.41-1.392-0.842-2.121-1.315
					c-0.028-0.018-0.053-0.036-0.081-0.054c-0.717-0.468-1.388-0.93-2.031-1.385c-1.268-0.896-2.391-1.746-3.259-2.449
					c-1.326-1.072-2.124-1.776-2.124-1.776s0.648,0.844,1.849,2.079C263.724,204.453,264.56,205.23,265.529,206.029z"/>
				<path d="M301.358,221.789c-0.402,0.217-0.631,0.341-0.631,0.341s0.246-0.068,0.684-0.225c0.438-0.155,1.062-0.419,1.79-0.836
					c1.451-0.816,3.322-2.371,4.556-4.681c1.233-2.31,1.485-4.73,1.356-6.389c-0.06-0.837-0.187-1.502-0.301-1.953
					c-0.025-0.099-0.047-0.183-0.068-0.261c-0.076-0.28-0.126-0.433-0.126-0.433s0.014,0.148,0.039,0.416
					c0.008,0.087,0.018,0.186,0.028,0.298c0.038,0.458,0.061,1.124,0.018,1.935c-0.078,1.619-0.52,3.848-1.669,6
					c-1.149,2.153-2.757,3.759-4.058,4.725C302.326,221.215,301.76,221.566,301.358,221.789z"/>
				<path d="M191.729,232.541c0.422,1.797,1.354,4.243,3.015,6.566c1.669,2.317,3.688,3.983,5.256,4.957
					c0.784,0.491,1.444,0.844,1.915,1.052c0.464,0.21,0.727,0.329,0.727,0.329s-0.24-0.16-0.664-0.441
					c-0.432-0.273-1.031-0.71-1.741-1.274c-1.424-1.126-3.223-2.874-4.828-5.101c-1.597-2.233-2.678-4.497-3.289-6.206
					c-0.308-0.853-0.53-1.561-0.65-2.057c-0.131-0.491-0.205-0.77-0.205-0.77s0.029,0.287,0.08,0.794
					C191.391,230.903,191.515,231.641,191.729,232.541z"/>
				<path d="M206.692,236.285c0.262,0.215,0.416,0.319,0.416,0.319s-0.119-0.15-0.324-0.408c-0.204-0.263-0.477-0.66-0.758-1.172
					c-0.566-1.017-1.109-2.557-1.12-4.287c-0.009-1.731,0.516-3.276,1.07-4.3c0.275-0.515,0.543-0.915,0.744-1.181
					c0.202-0.26,0.319-0.412,0.319-0.412s-0.153,0.106-0.412,0.324c-0.26,0.217-0.617,0.561-0.994,1.046
					c-0.755,0.952-1.555,2.586-1.546,4.527c0.013,1.942,0.832,3.566,1.599,4.509C206.069,235.731,206.429,236.071,206.692,236.285z"
					/>
			</g>
		</g>
		<g>
			<g>
				<path d="M267.369,391.879c-18.578,0-37.144-0.117-55.568-0.351l0.026-2.072c36.831,0.468,74.23,0.468,111.158,0l0.026,2.072
					C304.538,391.761,285.948,391.879,267.369,391.879z"/>
			</g>
			<g>
				<path d="M273.749,385.569c-16.304,0-32.68-0.18-49.706-0.54l0.044-2.072c34.023,0.72,65.446,0.72,98.89,0l0.044,2.072
					C306.284,385.389,290.053,385.569,273.749,385.569z"/>
			</g>
			<g>
				<path d="M322.978,378.531c-26.547-0.528-52.84-0.58-78.148-0.15l-0.035-2.072c25.333-0.429,51.652-0.377,78.225,0.15
					L322.978,378.531z"/>
			</g>
			<g>
				<path d="M322.984,372.032c-18.344-0.26-36.964-0.321-55.343-0.186l-0.015-2.072c18.393-0.136,37.027-0.074,55.388,0.186
					L322.984,372.032z"/>
			</g>
			<g>
				<path d="M322.994,365.534c-12.803-0.058-25.724-0.08-38.41-0.066l-0.002-2.072c12.688-0.014,25.615,0.008,38.421,0.066
					L322.994,365.534z"/>
			</g>
		</g>
		<g>
			<text transform="matrix(1 0 0 1 133.835 428.1952)"><tspan x="0" y="0" style="font-family:'SairaCondensed-Regular'; font-size:32.016px; letter-spacing:9;">RESTAURAN</tspan><tspan x="224.271" y="0" style="font-family:'SairaCondensed-Regular'; font-size:32.016px;">T</tspan></text>
			<g>
				
					<line style="fill:none;stroke:#000000;stroke-width:2;stroke-miterlimit:10;" x1="100.548" y1="416.296" x2="122.486" y2="416.296"/>
				
					<line style="fill:none;stroke:#000000;stroke-width:2;stroke-miterlimit:10;" x1="382.677" y1="416.296" x2="404.614" y2="416.296"/>
			</g>
		</g>
		<g>
			<g>
				<path d="M404.229,325.082c-0.273-0.317-28.099-31.63-91.426-31.63c-24.846,0-55.589,12.411-88.136,25.55
					c-33.672,13.592-68.094,27.485-98.495,28.906c-1.935-3.061-3.352-6.38-4.239-9.947c-4.714-18.965,7.107-38.853,7.227-39.051
					l1.447-2.397l-2.659,0.878c-42.215,13.938-48.673,31.681-48.887,38.607l0,0l21.419,46.675l0.242,0.163
					c12.033,8.096,25.945,11.297,41.032,11.297c29.132-0.001,62.637-11.937,95.405-23.612c30.79-10.97,59.878-21.321,82.515-20.466
					c23.779,0.909,41.678,5.996,54.542,11.688c-16.348,6.004-35.247,1.786-35.505,1.726l-3.063-0.713l2.039,2.393
					c4.12,4.837,6.097,9.286,5.915,13.266c-0.02-0.004-0.04-0.007-0.06-0.011c0.02,0.006,0.04,0.01,0.06,0.016
					c-0.037,0.805-0.155,1.592-0.369,2.357c-2.061,7.359-11.743,10.634-11.841,10.666l-2.978,0.984l2.977,0.983
					c9.822,3.245,18.743,4.606,26.8,4.606c19.593,0,34.549-7.949,44.394-16.497l0,0l0,0l1.91-56.128L404.229,325.082z
					 M345.456,375.384c4.454,1.438,9.174,2.147,13.914,2.087c5.239-0.061,10.491-1.035,15.482-2.814
					c2.426-0.864,4.792-1.921,7.074-3.152c-2.158,1.352-4.425,2.548-6.771,3.579c-4.857,2.175-10.11,3.473-15.451,4.094
					c-4.646,0.501-9.377,0.349-14.039-0.397C345.739,377.674,345.666,376.541,345.456,375.384z M345.647,378.953
					c4.596,1.114,9.363,1.652,14.141,1.518c5.501-0.199,11.043-1.103,16.304-2.972c3.354-1.166,6.621-2.651,9.712-4.465
					c-3.553,2.498-7.43,4.582-11.525,6.167c-9.174,3.573-19.423,4.712-29.35,3.043c0.107-0.295,0.21-0.592,0.296-0.9
					C345.445,380.561,345.581,379.763,345.647,378.953z M102.12,381.277l-7.402-16.151l-0.678-1.479l-0.783-1.707l-0.394-0.86
					l-1.136-2.479l-0.336-0.732l-1.181-2.577l-0.276-0.602l-1.22-2.661l-0.225-0.492l-1.273-2.777l-0.174-0.379l-1.306-2.849
					l-0.11-0.24l-1.346-2.938l-0.068-0.149l-0.446-0.972c0.056,0.031,0.112,0.059,0.168,0.09c0.232,0.127,0.467,0.248,0.7,0.373
					c0.07,0.037,0.14,0.074,0.209,0.112c0.878,0.464,1.761,0.913,2.653,1.334c0.186,0.088,0.374,0.169,0.56,0.255
					c0.847,0.391,1.7,0.764,2.559,1.117c0.363,0.15,0.728,0.296,1.093,0.439c0.806,0.315,1.617,0.614,2.433,0.898
					c0.588,0.205,1.179,0.402,1.772,0.591c0.729,0.232,1.461,0.453,2.197,0.662c0.9,0.255,1.803,0.499,2.714,0.72
					c0.648,0.157,1.3,0.305,1.953,0.445c1.37,0.293,2.753,0.549,4.146,0.77c0.541,0.086,1.084,0.164,1.628,0.239
					c2.242,0.309,4.512,0.528,6.809,0.664c0.262,0.015,0.525,0.027,0.787,0.04c2.94,0.148,5.922,0.163,8.943,0.053
					c0.819-0.03,1.64-0.067,2.465-0.115c30.416-1.763,64.516-15.525,97.886-28.995c32.356-13.062,62.917-25.399,87.36-25.399
					c59.044,0,86.632,27.476,89.593,30.623l-1.035,30.417l-0.671,19.732c-3.187-3.085-10.843-9.601-23.83-15.619
					c-13.209-6.122-31.932-11.731-57.109-12.693c-23.046-0.891-52.306,9.545-83.289,20.585
					C187.324,386.076,136.518,404.179,102.12,381.277z M126.082,300.208c-3.075,5.967-10.156,22.153-6.163,38.24
					c0.844,3.401,2.14,6.585,3.876,9.547c-4.153,0.104-8.225-0.037-12.209-0.451c2.08-1.131,4.202-2.192,6.373-3.158
					c-2.575,0.886-5.109,1.901-7.602,3.021c-1.738-0.206-3.459-0.465-5.161-0.781c3.524-2.335,7.215-4.44,11.066-6.255
					c-4.401,1.614-8.675,3.607-12.792,5.911c-1.113-0.234-2.218-0.494-3.315-0.779c4.698-3.628,9.756-6.824,15.146-9.44
					c-6.017,2.29-11.779,5.294-17.197,8.874c-0.728-0.213-1.451-0.438-2.171-0.674c5.94-5.201,12.553-9.681,19.769-13.105
					c-7.88,2.956-15.305,7.165-22.085,12.298c-0.471-0.174-0.939-0.355-1.406-0.54c6.779-6.633,14.574-12.302,23.264-16.406
					c-9.345,3.512-18.003,8.852-25.696,15.388c-0.275-0.122-0.549-0.244-0.822-0.37c3.223-3.469,6.681-6.731,10.402-9.691
					c5.272-4.194,11.056-7.804,17.278-10.551c-6.413,2.265-12.524,5.451-18.198,9.299c-4.26,2.888-8.265,6.159-12.028,9.7
					c-0.141-0.072-0.282-0.143-0.422-0.216c4.002-4.692,8.408-9.057,13.248-12.924c5.58-4.459,11.751-8.251,18.424-10.995
					c-6.853,2.257-13.358,5.626-19.349,9.747c-5.389,3.705-10.366,8.014-14.944,12.72c-0.162-0.095-0.323-0.193-0.485-0.289
					c-0.002-0.044-0.004-0.09-0.005-0.137l0.42,0.357c4.743-5.981,10.079-11.53,16.085-16.303
					c5.999-4.768,12.695-8.748,19.966-11.417c-7.434,2.176-14.472,5.732-20.891,10.168c-5.477,3.783-10.512,8.2-15.143,13.01
					c0.03-0.134,0.061-0.269,0.094-0.407c4.679-5.887,9.91-11.364,15.814-16.071c6.305-5.03,13.415-9.159,21.156-11.74
					c-7.889,2.081-15.349,5.786-22.084,10.494c-4.049,2.826-7.841,6.012-11.412,9.435
					C91.799,318.036,102.595,308.37,126.082,300.208z M341.014,366c5.653,0.91,19.029,2.35,31.615-1.526
					c-1.198,0.573-2.413,1.112-3.663,1.575c-7.466,2.775-15.824,3.572-23.866,1.894c7.819,2.516,16.469,2.669,24.634,0.579
					c2.789-0.71,5.523-1.706,8.163-2.937c-2.072,1.203-4.234,2.268-6.475,3.156c-8.355,3.316-17.762,4.442-26.842,2.688
					c8.877,2.597,18.607,2.414,27.682-0.238c3.887-1.137,7.678-2.746,11.24-4.801c0.01,0.006,0.021,0.012,0.032,0.018
					c-2.961,2.306-6.201,4.286-9.651,5.848c-4.576,2.077-9.516,3.439-14.582,3.923c-4.602,0.444-9.305,0.142-13.869-0.927
					C344.871,372.314,343.4,369.223,341.014,366z M344.88,382.392c9.792,2.474,20.36,2.215,30.238-0.741
					c3.647-1.083,7.201-2.55,10.59-4.359c-3.841,2.464-7.999,4.483-12.361,5.981c-9.526,3.29-20.017,4.138-30.14,2.231
					C343.876,384.56,344.453,383.527,344.88,382.392z M334.726,392.287c2.455-1.189,6.046-3.369,8.445-6.733
					c9.949,2.739,20.717,2.81,30.918,0.199c3.718-0.945,7.362-2.258,10.865-3.906c-3.8,2.167-7.837,3.961-12.05,5.283
					c-9.846,3.103-20.577,3.779-30.92,1.73c10.139,2.89,21.111,3.151,31.593,0.771c3.79-0.856,7.517-2.065,11.121-3.601
					c-3.942,2.052-8.097,3.737-12.409,4.963c-9.884,2.82-20.532,3.36-30.824,1.354c10.09,2.847,20.954,3.239,31.428,1.165
					c5.014-0.988,9.938-2.558,14.655-4.65C374.638,395.556,357.188,399.025,334.726,392.287z"/>
				<path d="M336.694,346.345c4.06,0.432,8.006,0.999,11.792,1.693c3.779,0.728,7.4,1.554,10.81,2.494
					c6.812,1.904,12.777,4.216,17.6,6.552c1.236,0.604,2.396,1.204,3.483,1.793c3.148,1.707,5.664,3.317,7.482,4.617
					c1.259,0.828,2.152,1.585,2.795,2.051c0.633,0.479,0.966,0.732,0.966,0.732s-0.313-0.275-0.909-0.799
					c-0.608-0.51-1.453-1.331-2.66-2.24c-1.668-1.36-3.98-3.045-6.884-4.843c-1.174-0.727-2.434-1.47-3.804-2.221
					c-4.762-2.593-10.721-5.182-17.585-7.301c-3.435-1.048-7.094-1.966-10.921-2.76c-3.833-0.76-7.836-1.368-11.955-1.806
					c-8.244-0.847-16.159-0.869-23.31-0.387c-7.152,0.513-13.545,1.48-18.832,2.641c-5.29,1.154-9.488,2.408-12.341,3.398
					c-1.438,0.46-2.525,0.906-3.272,1.174c-0.743,0.279-1.134,0.426-1.134,0.426s0.4-0.118,1.162-0.342
					c0.765-0.215,1.874-0.585,3.336-0.951c2.901-0.805,7.145-1.805,12.441-2.699c5.294-0.902,11.656-1.605,18.734-1.922
					C320.769,345.36,328.57,345.511,336.694,346.345z"/>
				<path d="M168.301,385.114c-1.147,0.176-2.443,0.416-3.892,0.588c-2.884,0.417-6.332,0.782-10.159,1.08
					c-3.832,0.261-8.045,0.435-12.471,0.431c-4.426-0.031-8.637-0.237-12.467-0.528c-3.825-0.328-7.27-0.719-10.151-1.158
					c-1.447-0.184-2.742-0.434-3.888-0.618c-1.147-0.179-2.129-0.368-2.93-0.53c-1.608-0.305-2.499-0.475-2.499-0.475
					s0.864,0.28,2.421,0.785c0.78,0.256,1.739,0.555,2.866,0.852c1.125,0.303,2.402,0.68,3.837,0.992
					c2.856,0.695,6.302,1.347,10.161,1.871c3.863,0.488,8.141,0.827,12.641,0.858c4.5,0.004,8.781-0.302,12.647-0.76
					c3.863-0.494,7.314-1.119,10.176-1.792c1.438-0.301,2.717-0.668,3.845-0.962c1.129-0.289,2.09-0.58,2.872-0.83
					c1.561-0.493,2.427-0.766,2.427-0.766s-0.893,0.162-2.503,0.455C170.433,384.763,169.45,384.944,168.301,385.114z"/>
				<path d="M307.715,299.892c0.574-0.035,1.188-0.072,1.838-0.112c0.652-0.015,1.341-0.031,2.065-0.048
					c2.89-0.092,6.335,0.003,10.144,0.184c3.811,0.228,7.986,0.611,12.351,1.165c4.356,0.607,8.488,1.305,12.211,2.123
					c3.712,0.848,7.04,1.721,9.766,2.669c0.684,0.232,1.336,0.452,1.953,0.661c0.614,0.218,1.172,0.469,1.707,0.679
					c1.063,0.434,1.998,0.78,2.711,1.163c1.464,0.707,2.275,1.099,2.275,1.099s-0.757-0.493-2.123-1.381
					c-0.674-0.471-1.565-0.92-2.591-1.469c-0.516-0.267-1.059-0.579-1.656-0.858c-0.603-0.268-1.24-0.552-1.909-0.849
					c-2.677-1.203-5.986-2.34-9.719-3.391c-3.742-1.021-7.928-1.86-12.357-2.476c-4.437-0.564-8.694-0.825-12.565-0.862
					c-3.873,0.009-7.358,0.172-10.266,0.522c-0.726,0.084-1.417,0.164-2.072,0.24c-0.652,0.09-1.265,0.205-1.837,0.298
					c-1.145,0.195-2.13,0.349-2.923,0.556c-1.585,0.375-2.463,0.584-2.463,0.584s0.897-0.095,2.513-0.268
					C305.572,300.009,306.567,299.967,307.715,299.892z"/>
				<path d="M113.81,355.892c3.401,0.338,6.474,0.299,8.847,0.105c1.638-0.131,2.955-0.301,3.859-0.459
					c0.899-0.157,1.401-0.245,1.401-0.245s-0.508-0.027-1.419-0.075c-0.911-0.033-2.227-0.12-3.841-0.245
					c-1.627-0.124-3.554-0.318-5.679-0.592c-0.315-0.041-0.642-0.086-0.966-0.131c-1.83-0.25-3.781-0.555-5.811-0.928
					c-0.119-0.022-0.233-0.046-0.352-0.068c-0.523-0.099-1.043-0.199-1.553-0.302c-1.442-0.291-2.819-0.596-4.126-0.905
					c-0.668-0.158-1.319-0.316-1.944-0.474c-1.014-0.257-1.969-0.512-2.85-0.759c-0.486-0.137-0.956-0.272-1.396-0.403
					c-0.29-0.086-0.56-0.167-0.829-0.248c-0.725-0.218-1.369-0.417-1.922-0.593c-0.34-0.109-0.657-0.212-0.924-0.303
					c-0.868-0.281-1.352-0.438-1.352-0.438s0.437,0.261,1.221,0.729c0.194,0.116,0.412,0.242,0.651,0.376
					c0.424,0.238,0.929,0.505,1.486,0.789c0.405,0.206,0.832,0.419,1.303,0.644c0.218,0.104,0.458,0.212,0.69,0.318
					c0.663,0.304,1.378,0.611,2.148,0.919c0.604,0.241,1.239,0.479,1.902,0.714c0.996,0.352,2.055,0.69,3.168,1.003
					c0.573,0.162,1.16,0.315,1.76,0.461c0.829,0.201,1.673,0.392,2.547,0.554c0.828,0.152,1.639,0.271,2.442,0.376
					C112.791,355.78,113.304,355.842,113.81,355.892z"/>
			</g>
			<path id="SVGID_x5F_1_x5F_" style="fill:none;" d="M134.469,383.914c0,0,31.075,6.08,90.522-20.266
				c59.447-26.346,122.779-46.066,158.822,6.907"/>
			<text>			<textPath  xlink:href="#SVGID_x5F_1_x5F_" startOffset="0.244%">
<tspan  style="font-family:'SairaCondensed-SemiBold'; font-size:40.9181px; letter-spacing:240;">BARBECUE</tspan>			</textPath>
</text>
		</g>
		<path d="M131.739,303.296l32.289,37.805c2.561-0.726,5.134-1.496,7.718-2.307c-2.53-2.756-5.322-5.868-8.216-9.226
			c-9.654-11.202-16.895-20.995-17.7-22.089c-0.049-0.067-0.077-0.105-0.077-0.105s0.038,0.038,0.093,0.092
			c0.929,0.923,9.558,9.537,19.236,20.765c3.072,3.565,5.897,6.984,8.352,10.029c1.091-0.349,2.184-0.703,3.279-1.065
			l-35.835-41.957c-1.602-1.817-4.042-2.43-6.227-1.812l-58.368-69.309c0.271-0.341,0.54-0.686,0.771-1.058
			c0.563-0.948,0.994-1.969,1.277-3.031c0.524-2.13,0.448-4.416-0.328-6.471c-0.365-1.035-0.935-1.981-1.585-2.853l-0.52-0.634
			l-0.487-0.53l-0.969-1.042c-1.285-1.395-2.593-2.77-3.905-4.141c-5.229-5.502-10.537-10.933-16.073-16.157
			c4.577,6.081,9.382,11.957,14.266,17.761c1.216,1.455,2.436,2.907,3.679,4.338l0.928,1.078l0.455,0.535l0.362,0.482
			c0.45,0.665,0.852,1.374,1.084,2.144c0.504,1.521,0.565,3.181,0.158,4.727c-0.219,0.768-0.541,1.501-0.952,2.181
			c-0.431,0.669-0.96,1.266-1.55,1.802c-0.611,0.511-1.271,0.959-1.991,1.297c-0.728,0.318-1.497,0.54-2.287,0.656
			c-1.586,0.198-3.224-0.078-4.663-0.784c-0.733-0.333-1.379-0.821-1.983-1.359l-0.437-0.43l-0.481-0.514l-0.969-1.042
			c-1.285-1.395-2.591-2.772-3.905-4.142c-5.228-5.503-10.538-10.932-16.077-16.154c4.574,6.084,9.377,11.961,14.263,17.764
			c1.215,1.457,2.437,2.906,3.68,4.338l0.927,1.078l0.47,0.543l0.553,0.591c0.774,0.755,1.64,1.449,2.617,1.947
			c1.937,1.036,4.191,1.417,6.373,1.178c1.091-0.14,2.16-0.432,3.174-0.865c0.34-0.153,0.658-0.346,0.981-0.532l58.146,69.045
			C129.761,298.105,129.862,301.167,131.739,303.296z M118.757,276.733l-13.976-16.218l-13.794-16.373l-6.832-8.242
			c-2.248-2.772-4.524-5.521-6.749-8.313c2.403,2.64,4.756,5.323,7.135,7.983l7.052,8.054l13.975,16.219l13.793,16.374
			c4.565,5.486,9.117,10.983,13.583,16.553C128.153,287.479,123.448,282.112,118.757,276.733z"/>
	</g>
</g>
</svg>
